<?xml version="1.0" standalone="no"?>
<!DOCTYPE svg PUBLIC "-//W3C//DTD SVG 1.1//EN" "http://www.w3.org/Graphics/SVG/1.1/DTD/svg11.dtd" >
<svg xmlns="http://www.w3.org/2000/svg" xmlns:xlink="http://www.w3.org/1999/xlink" version="1.1">
<metadata>
Created by FontForge 20201107 at Mon Feb  9 19:06:53 2026
 By www-data
(c)Marvadesign
</metadata>
<defs>
<font id="SinkRegular" horiz-adv-x="976" >
  <font-face 
    font-family="Sink"
    font-weight="400"
    font-stretch="normal"
    units-per-em="2048"
    panose-1="0 0 0 0 0 0 0 0 0 0"
    ascent="1638"
    descent="-410"
    x-height="1079"
    cap-height="1434"
    bbox="-141 -530 2116 1865"
    underline-thickness="0"
    underline-position="0"
    unicode-range="U+000A-F009"
  />
<missing-glyph horiz-adv-x="1079" 
d="M102 1434h875v-1434h-875v1434zM160 1393l379 -633l381 633h-760zM514 717l-369 614v-1231zM541 674l-379 -631h758zM565 717l371 -621v1239z" />
    <glyph glyph-name=".notdef" horiz-adv-x="1079" 
d="M102 1434h875v-1434h-875v1434zM160 1393l379 -633l381 633h-760zM514 717l-369 614v-1231zM541 674l-379 -631h758zM565 717l371 -621v1239z" />
    <glyph glyph-name=".null" horiz-adv-x="0" 
 />
    <glyph glyph-name=".null" horiz-adv-x="0" 
 />
    <glyph glyph-name="nonmarkingreturn" horiz-adv-x="682" 
 />
    <glyph glyph-name="LF" unicode="&#xa;" horiz-adv-x="0" 
 />
    <glyph glyph-name="controlCR" unicode="&#xd;" horiz-adv-x="0" 
 />
    <glyph glyph-name="space" unicode=" " horiz-adv-x="382" 
 />
    <glyph glyph-name="exclam" unicode="!" horiz-adv-x="475" 
d="M414 178q0 -73 -52 -125.5t-125 -52.5t-125.5 52.5t-52.5 125.5t52.5 125t125.5 52t125 -52t52 -125zM59 1403q0 13 9.5 22t22.5 9h292q13 0 22 -9t9 -22v-946q0 -13 -9 -22t-22 -9h-292q-13 0 -22.5 9t-9.5 22v946z" />
    <glyph glyph-name="quotedbl" unicode="&#x22;" horiz-adv-x="833" 
d="M39 1256q0 74 52 126t125 52t125.5 -52.5t52.5 -125.5q0 -61 -99 -266q-7 -15 -23 -15h-125q-15 0 -22 12q-8 12 -2 24l24 54q4 10 0.5 19.5t-12.5 14.5q-44 23 -70 65t-26 92zM436 1256q0 73 52.5 125.5t125.5 52.5t125 -52.5t52 -125.5q0 -61 -99 -266q-7 -15 -23 -15
h-125q-14 0 -21 12q-8 12 -2 24l24 54q4 10 0.5 19.5t-12.5 14.5q-44 23 -70.5 65t-26.5 92z" />
    <glyph glyph-name="quotedbl" unicode="&#x201d;" horiz-adv-x="833" 
d="M39 1256q0 74 52 126t125 52t125.5 -52.5t52.5 -125.5q0 -61 -99 -266q-7 -15 -23 -15h-125q-15 0 -22 12q-8 12 -2 24l24 54q4 10 0.5 19.5t-12.5 14.5q-44 23 -70 65t-26 92zM436 1256q0 73 52.5 125.5t125.5 52.5t125 -52.5t52 -125.5q0 -61 -99 -266q-7 -15 -23 -15
h-125q-14 0 -21 12q-8 12 -2 24l24 54q4 10 0.5 19.5t-12.5 14.5q-44 23 -70.5 65t-26.5 92z" />
    <glyph glyph-name="quotedbl" unicode="&#x201c;" horiz-adv-x="833" 
d="M39 1256q0 74 52 126t125 52t125.5 -52.5t52.5 -125.5q0 -61 -99 -266q-7 -15 -23 -15h-125q-15 0 -22 12q-8 12 -2 24l24 54q4 10 0.5 19.5t-12.5 14.5q-44 23 -70 65t-26 92zM436 1256q0 73 52.5 125.5t125.5 52.5t125 -52.5t52 -125.5q0 -61 -99 -266q-7 -15 -23 -15
h-125q-14 0 -21 12q-8 12 -2 24l24 54q4 10 0.5 19.5t-12.5 14.5q-44 23 -70.5 65t-26.5 92z" />
    <glyph glyph-name="numbersign" unicode="#" horiz-adv-x="1460" 
d="M589 661q-3 -12 4 -22q8 -11 21 -11h199q20 0 25 20l34 125q3 12 -5 23q-8 10 -20 10h-199q-21 0 -26 -19zM55 609q5 20 25 20h125q20 0 25 19l34 125q3 12 -5 23q-8 10 -20 10h-98q-13 0 -20 10q-8 10 -5 22l34 126q5 19 25 19h125q20 0 25 19l107 401q4 13 15.5 22
t24.5 9h293q13 0 19.5 -9t2.5 -22l-103 -387q-3 -13 4 -23t21 -10h199q20 0 25 19l108 401q4 13 15 22t24 9h293q13 0 20 -9t3 -22l-104 -387q-3 -11 5 -22t20 -11h98q13 0 20 -10q8 -11 5 -22l-34 -126q-5 -19 -25 -19h-125q-20 0 -25 -19l-34 -126q-3 -12 4 -22t21 -10h97
q14 0 21 -10t4 -23l-34 -125q-5 -19 -25 -19h-125q-20 0 -25 -19l-107 -401q-4 -13 -15.5 -22t-24.5 -9h-292q-13 0 -20 9t-3 22l104 387q3 11 -5 22q-7 10 -21 10h-199q-20 0 -25 -19l-107 -400q-4 -13 -15.5 -22t-24.5 -9h-292q-13 0 -20 9t-3 22l104 387q3 11 -5 22
q-7 10 -20 10h-98q-13 0 -20 10q-8 10 -5 23z" />
    <glyph glyph-name="dollar" unicode="$" horiz-adv-x="991" 
d="M49 983q0 183 92 297t244 144q21 4 21 25v137q0 10 7.5 17.5t18.5 7.5h126q10 0 17.5 -7.5t7.5 -17.5v-137q0 -21 21 -25q145 -29 237 -127t99 -251q0 -26 -22 -32l-294 -95q-15 -5 -27 4q-14 10 -14 25l-2 37v2q0 44 -24.5 68t-63.5 24t-64 -24.5t-25 -68.5
q0 -40 29.5 -68.5t77 -47t104.5 -36.5t114.5 -46t105 -67.5t77 -108.5t29.5 -161q0 -183 -92 -296.5t-245 -143.5q-9 -2 -15 -9t-6 -17v-136q0 -11 -7.5 -18.5t-17.5 -7.5h-126q-10 0 -18 7.5t-8 18.5v136q0 9 -6 17t-15 9q-145 29 -236.5 127t-98.5 251q-2 24 21 31l294 95
q16 5 28 -4q13 -10 13 -24l3 -38v-2q0 -44 24.5 -68t63.5 -24t64 24.5t25 68.5q0 40 -29.5 68.5t-77 47t-104.5 36.5t-114.5 46t-105 67.5t-77 108.5t-29.5 161z" />
    <glyph glyph-name="percent" unicode="%" horiz-adv-x="1445" 
d="M333 931q61 0 61 128t-61 128q-62 0 -62 -128t62 -128zM1012 1425q4 9 16 9h137q10 0 15 -9q5 -8 0 -17l-749 -1398q-5 -10 -15 -10h-137q-11 0 -16 9t0 18zM1049 375q0 -128 61 -128q62 0 62 128t-62 128q-61 0 -61 -128zM1110 750q66 0 116.5 -15.5t96.5 -54.5t71 -116
t25 -189t-25 -189t-71 -116t-96.5 -54.5t-116.5 -15.5q-65 0 -116 15.5t-96.5 54.5t-70.5 116t-25 189t25 189t70.5 116t96.5 54.5t116 15.5zM25 1059q0 112 25 189t70.5 116t96.5 54.5t116 15.5t116 -15.5t96.5 -54.5t70.5 -116t25 -189t-25 -189t-70.5 -115.5t-96 -54
t-116.5 -15.5t-116.5 15.5t-96 54t-70.5 115.5t-25 189z" />
    <glyph glyph-name="ampersand" unicode="&#x26;" horiz-adv-x="1136" 
d="M498 355l58 1q13 0 22.5 9.5t9.5 23.5v161q0 14 -10 23.5t-23 9.5h-57q-27 0 -49.5 -23.5t-31.5 -57t-7 -67t25 -57t63 -23.5zM498 1434h412q14 0 23.5 -10t9.5 -23v-289q0 -14 -9.5 -23.5t-23.5 -9.5h-412q-40 0 -63 -23.5t-25 -56.5t7 -66.5t31.5 -57t49.5 -23.5h557
q13 0 22.5 -9.5t9.5 -23.5v-204q0 -13 -9.5 -22.5t-22.5 -9.5h-80q-13 0 -22.5 -9.5t-9.5 -23.5v-161q0 -13 9.5 -22.5t22.5 -9.5h80q13 0 22.5 -9.5t9.5 -23.5v-290q0 -14 -9.5 -23.5t-22.5 -9.5q-93 0 -278.5 -0.5t-278.5 -0.5q-206 0 -333 138q-99 107 -111 249
q-12 139 67 226q75 83 208 83q12 0 12 21t-12 21q-160 0 -235 116q-65 100 -38 238q28 144 141 239q123 103 301 103z" />
    <glyph glyph-name="quotesingle" unicode="'" horiz-adv-x="436" 
d="M147 1065q4 10 0.5 19.5t-12.5 14.5q-43 23 -69.5 65.5t-26.5 92.5q0 73 52 125t125 52t125.5 -52t52.5 -125q0 -62 -99 -267q-7 -15 -23 -15h-125q-15 0 -22 12q-8 13 -2 25z" />
    <glyph glyph-name="quotesingle" unicode="&#x2019;" horiz-adv-x="436" 
d="M147 1065q4 10 0.5 19.5t-12.5 14.5q-43 23 -69.5 65.5t-26.5 92.5q0 73 52 125t125 52t125.5 -52t52.5 -125q0 -62 -99 -267q-7 -15 -23 -15h-125q-15 0 -22 12q-8 13 -2 25z" />
    <glyph glyph-name="quotesingle" unicode="&#x2018;" horiz-adv-x="436" 
d="M147 1065q4 10 0.5 19.5t-12.5 14.5q-43 23 -69.5 65.5t-26.5 92.5q0 73 52 125t125 52t125.5 -52t52.5 -125q0 -62 -99 -267q-7 -15 -23 -15h-125q-15 0 -22 12q-8 13 -2 25z" />
    <glyph glyph-name="parenleft" unicode="(" horiz-adv-x="634" 
d="M572 1611q13 0 22 -9t9 -22v-292q0 -13 -9 -22.5t-22 -9.5q-52 0 -90.5 -80t-55.5 -199.5t-17 -259.5t17 -259.5t55.5 -199.5t90.5 -80q13 0 22 -9.5t9 -22.5v-292q0 -13 -9 -22t-22 -9q-121 0 -221 77t-163.5 202.5t-99 286t-38 328.5t29.5 328.5t94 286t165 202.5
t233 77z" />
    <glyph glyph-name="parenright" unicode=")" horiz-adv-x="634" 
d="M62 178q52 0 90.5 80t55.5 200t17 259.5t-17 259.5t-55.5 200t-90.5 80q-13 0 -22 9t-9 22v292q0 13 9 22t22 9q130 0 233 -77t165 -202.5t94 -286t29.5 -328.5t-38 -328.5t-99 -286t-163.5 -202.5t-221 -77q-13 0 -22 9t-9 22v292q0 13 9 22.5t22 9.5z" />
    <glyph glyph-name="asterisk" unicode="*" horiz-adv-x="716" 
d="M302 975q2 12 -9 18q-10 7 -20 -2l-126 -103q-13 -10 -27 -7q-15 3 -22 16l-50 87q-8 14 -3 27q5 14 19 19l153 58q12 5 12 17t-12 17l-153 57q-14 5 -19 20q-5 13 3 27l50 87q7 13 22 16q14 3 27 -7l126 -104q9 -7 20 -1t9 18l-27 161q-1 14 8 27q8 11 25 11h100
q17 0 25 -11q11 -13 8 -27l-27 -161q-2 -12 9 -18q10 -7 20 1l126 104q13 10 26 7q16 -3 23 -16l25 -43l25 -44q8 -14 3 -27q-5 -15 -19 -20l-153 -57q-12 -5 -12 -17t12 -17l153 -57q14 -5 19 -20q5 -13 -3 -27l-50 -87q-7 -13 -22 -16q-14 -3 -27 7l-126 104q-9 7 -20 1
q-11 -7 -9 -18l27 -161q1 -14 -8 -27q-8 -11 -25 -11h-100q-17 0 -25 11q-10 12 -7 27z" />
    <glyph glyph-name="plus" unicode="+" horiz-adv-x="854" 
d="M31 780q0 10 7.5 18t18.5 8h255q10 0 18 8t8 18v255q0 11 8 18.5t18 7.5h125q11 0 18.5 -7.5t7.5 -18.5v-255q0 -10 7.5 -18t18.5 -8h255q10 0 18 -8t8 -18v-126q0 -10 -8 -18t-18 -8h-255q-11 0 -18.5 -7.5t-7.5 -17.5v-255q0 -10 -7.5 -18t-18.5 -8h-125q-10 0 -18 8
t-8 18v255q0 11 -8 18.5t-18 7.5h-255q-11 0 -18.5 7.5t-7.5 18.5v125z" />
    <glyph glyph-name="comma" unicode="," horiz-adv-x="434" 
d="M39 178q0 73 52 125t125 52t125.5 -52t52.5 -125q0 -62 -99 -267q-7 -15 -24 -15h-124q-15 0 -22 12q-9 12 -2 25l24 53q4 10 0.5 19.5t-12.5 14.5q-43 23 -69.5 65.5t-26.5 92.5z" />
    <glyph glyph-name="hyphen" unicode="-" horiz-adv-x="866" 
d="M37 780q0 10 7.5 18t18.5 8h739q10 0 18 -8t8 -18v-125q0 -11 -8 -18.5t-18 -7.5h-739q-11 0 -18.5 7.5t-7.5 18.5v125z" />
    <glyph glyph-name="period" unicode="." horiz-adv-x="434" 
d="M216 0q-73 0 -125 52.5t-52 125.5t52 125t125 52t125.5 -52t52.5 -125t-52.5 -125.5t-125.5 -52.5z" />
    <glyph glyph-name="slash" unicode="/" horiz-adv-x="751" 
d="M473 1415q5 19 26 19h124q13 0 20 -10q8 -10 5 -23l-371 -1381q-5 -20 -25 -20h-123q-13 0 -21 11q-8 10 -5 22z" />
    <glyph glyph-name="zero" unicode="0" horiz-adv-x="995" 
d="M585 717v5v61.5t-1 60.5t-3.5 61.5t-6.5 53.5t-10.5 49.5t-15.5 36.5t-22 26t-29 8q-21 0 -37 -14.5t-25.5 -46t-15.5 -60t-8 -79t-2.5 -79.5t-0.5 -83q0 -5 -0.5 -29.5t0 -43t1 -50t3 -56t6 -54t10.5 -51t16 -40t22.5 -28.5t30.5 -10t30.5 10t22.5 28.5t15.5 40.5
t10.5 51t6.5 54t3 56t0.5 50t-0.5 43t-0.5 29zM497 0q-91 0 -162.5 24t-117.5 58.5t-78.5 97t-49 114t-25 138t-10 139.5t-1.5 146t1.5 146t10 139.5t25 138t49 114t78.5 97t117.5 58.5t162.5 24t162 -24t117.5 -58.5t78.5 -97t48.5 -114t25 -138t10 -139.5t1.5 -146
q0 -72 -0.5 -113t-4.5 -110t-12 -111t-23.5 -100.5t-37 -94t-55.5 -75.5t-77 -62t-102 -36.5t-131 -14.5z" />
    <glyph glyph-name="one" unicode="1" horiz-adv-x="679" 
d="M262 1048q0 13 -9 22t-22 9h-97q-18 0 -27 15t-1 30l148 293q8 17 28 17h304q13 0 22 -9t9 -22v-1372q0 -13 -9 -22t-22 -9h-292q-13 0 -22.5 9t-9.5 22v1017z" />
    <glyph glyph-name="two" unicode="2" horiz-adv-x="995" 
d="M588 986q0 44 -25 68.5t-64 24.5t-64 -24t-25 -68v-2l-2 -38q0 -14 -13 -24q-12 -9 -28 -4l-294 95q-23 6 -21 31q9 182 134 285.5t313 103.5q195 0 319.5 -118.5t124.5 -332.5q0 -93 -31 -171t-77.5 -128t-107.5 -94t-115 -71t-105.5 -57.5t-74.5 -53.5q-15 -15 -7 -34
t29 -19h458q13 0 22 -9t9 -22v-293q0 -13 -9 -22t-22 -9h-830q-13 0 -22 9t-9 22v324q0 78 29.5 144.5t77 113t105 87.5t114.5 74.5t104.5 65t77 69t29.5 77.5z" />
    <glyph glyph-name="three" unicode="3" horiz-adv-x="985" 
d="M357 515q15 5 27 -4q13 -9 14 -24l2 -38v-2q0 -44 25 -68t64 -24t63.5 24.5t24.5 68.5q0 46 -24 90.5t-64 44.5h-101q-13 0 -22 9t-9 22v206q0 13 9 22t22 9h101q40 0 64 44.5t24 90.5q0 44 -24.5 68.5t-63.5 24.5t-64 -24t-25 -68v-2l-2 -38q-1 -15 -14 -24
q-12 -9 -27 -4l-294 95q-24 7 -22 31q9 182 134.5 285.5t313.5 103.5q96 0 176 -27t141.5 -80.5t95 -141.5t30.5 -202q-2 -98 -76 -171.5t-199 -73.5q-12 0 -12 -21t12 -21q118 0 196.5 -75t78.5 -170q0 -214 -124 -332.5t-319 -118.5q-188 0 -313.5 103.5t-134.5 285.5
q-2 24 22 31z" />
    <glyph glyph-name="four" unicode="4" horiz-adv-x="1083" 
d="M561 1069q0 16 -16 20q-20 4 -23 -10l-128 -480q-4 -15 5 -27t25 -12h106q13 0 22 9t9 22v478zM29 554q0 3 2 11l347 849q8 20 29 20h477q13 0 22.5 -9.5t9.5 -22.5v-811q0 -13 9 -22t22 -9h65q13 0 22 -9.5t9 -22.5v-205q0 -13 -9 -22.5t-22 -9.5h-65q-13 0 -22 -9
t-9 -22v-229q0 -13 -9.5 -22t-22.5 -9h-292q-13 0 -22 9t-9 22v229q0 13 -9 22t-22 9h-470q-13 0 -22 9.5t-9 22.5v231z" />
    <glyph glyph-name="five" unicode="5" horiz-adv-x="993" 
d="M55 389q-2 24 22 31l294 95q16 5 28 -4q13 -10 13 -24l2 -38v-2q0 -44 25 -68t64 -24t64 24.5t25 68.5q0 46 -24.5 90.5t-64.5 44.5h-409q-13 0 -22 9t-9 22v788q0 13 9 22.5t22 9.5h733q13 0 22 -9.5t9 -22.5v-292q0 -13 -9 -22t-22 -9h-378q-13 0 -22 -9t-9 -22v-166
q0 -13 9 -22.5t22 -9.5q92 -2 159.5 -11t134.5 -34.5t109 -68t68 -114.5t26 -171q0 -214 -124 -332.5t-319 -118.5q-188 0 -313.5 103.5t-134.5 285.5z" />
    <glyph glyph-name="six" unicode="6" horiz-adv-x="974" 
d="M496 355q39 0 64 24.5t25 68.5q0 39 -9.5 66t-22 40.5t-38 20t-43.5 7.5t-53 1q-14 0 -23 -10q-9 -11 -8 -23q14 -195 108 -195zM649 1433q11 1 20.5 -6t11.5 -18l65 -293q3 -15 -5 -26q-9 -12 -24 -12q-229 -12 -295 -187q-6 -15 3 -28q9 -14 25 -14q90 -1 156.5 -10
t132.5 -34t107.5 -67.5t67.5 -115t26 -171.5q0 -214 -124.5 -332.5t-319.5 -118.5q-210 0 -334 184q-111 166 -117 419q-5 258 101 474q112 227 309 312q91 40 194 44z" />
    <glyph glyph-name="seven" unicode="7" horiz-adv-x="1019" 
d="M600 1006q5 16 -4 28q-9 13 -25 13h-437q-13 0 -22.5 9.5t-9.5 22.5v292q0 13 9.5 22t22.5 9h821q13 0 22 -9t9 -22v-318q0 -5 -2 -11l-366 -1021q-8 -21 -29 -21h-305q-17 0 -26 13q-8 12 -3 29z" />
    <glyph glyph-name="eight" unicode="8" horiz-adv-x="997" 
d="M498 1079q-40 0 -63 -23.5t-25 -57t7 -67t31.5 -57t49.5 -23.5t49.5 23.5t31.5 57t7 67t-25 57t-63 23.5zM498 583q-27 0 -49.5 -23.5t-31.5 -57t-7 -67t25 -57t63 -23.5t63 23.5t25 57t-7 67t-31.5 57t-49.5 23.5zM329 696q12 0 12 20v1q0 21 -12 21q-160 0 -235 116
q-65 100 -38 238q28 144 141 239q123 103 301 103q209 0 337 -138q99 -107 110 -248q11 -137 -67 -225q-76 -85 -212 -85q-12 0 -12 -20v-1q0 -21 12 -21q160 0 234 -117q63 -101 35 -240q-30 -144 -143 -238q-121 -101 -294 -101q-206 0 -333 138q-99 107 -111 249
q-12 139 67 226q75 83 208 83z" />
    <glyph glyph-name="nine" unicode="9" horiz-adv-x="974" 
d="M554 850q14 0 23 10q9 11 8 24q-14 194 -109 194q-39 0 -64 -24.5t-25 -68.5q0 -28 5 -50t12 -36t20.5 -24t25 -15t32 -7.5t34 -2.5h38.5zM227 317q-4 16 5 26q9 12 24 12q229 12 295 187q6 15 -3 29q-9 13 -25 13q-90 1 -156.5 10t-132.5 34t-107.5 67.5t-67.5 115
t-26 171.5q0 214 124 332.5t319 118.5q210 0 334 -184q112 -166 117 -419q6 -258 -100 -474q-112 -227 -309 -312q-91 -40 -194 -44q-27 0 -32 25z" />
    <glyph glyph-name="colon" unicode=":" horiz-adv-x="450" 
d="M225 355q73 0 125 -52t52 -125t-52 -125.5t-125 -52.5t-125.5 52.5t-52.5 125.5t52 125t126 52zM225 887q73 0 125 -52t52 -125t-52 -125.5t-125 -52.5t-125.5 52t-52.5 126q0 73 52 125t126 52z" />
    <glyph glyph-name="semicolon" unicode=";" horiz-adv-x="450" 
d="M47 710q0 73 52.5 125.5t125.5 52.5t125 -52.5t52 -125.5t-52 -125t-125 -52q-74 0 -126 52t-52 125zM225 355q73 0 125 -52t52 -125q0 -62 -99 -267q-7 -15 -23 -15h-125q-13 0 -21 12q-9 12 -2 25l23 53q4 10 1 19.5t-12 14.5q-44 23 -70.5 65.5t-26.5 92.5
q0 73 52.5 125t125.5 52z" />
    <glyph glyph-name="less" unicode="&#x3c;" horiz-adv-x="579" 
d="M46 658q-13 8 -13 22v74q0 15 13 23l446 257q13 8 26 0t13 -22v-145q0 -14 -13 -22l-181 -105q-13 -8 -13 -23t12 -22l182 -105q13 -8 13 -23v-145q0 -14 -13 -22t-26 0z" />
    <glyph glyph-name="equal" unicode="=" horiz-adv-x="878" 
d="M69 806q-11 0 -18.5 8t-7.5 18v125q0 11 7.5 18.5t18.5 7.5h740q11 0 18.5 -7.5t7.5 -18.5v-125q0 -10 -7.5 -18t-18.5 -8h-740zM809 628q11 0 18 -7t7 -18v-126q0 -11 -7.5 -18.5t-17.5 -7.5h-740q-11 0 -18.5 7.5t-7.5 18.5v126q0 10 7.5 17.5t18.5 7.5h740z" />
    <glyph glyph-name="greater" unicode="&#x3e;" horiz-adv-x="579" 
d="M60 588l182 105q13 8 13 22t-13 22l-182 106q-13 8 -13 22v145q0 14 13 22t26 0l447 -257q13 -8 13 -23v-74q0 -14 -13 -22l-447 -258q-13 -8 -26 0t-13 22v145q0 15 13 23z" />
    <glyph glyph-name="question" unicode="?" horiz-adv-x="1095" 
d="M725 178q0 -73 -52 -125.5t-125 -52.5t-125 52.5t-52 125.5t52 125t125 52t125 -52t52 -125zM639 986q0 44 -25 68.5t-64 24.5t-64 -24t-25 -68v-2l-2 -37q0 -15 -13 -25q-12 -9 -28 -4l-294 95q-22 6 -22 32q9 182 134.5 285t313.5 103q195 0 319.5 -118.5t124.5 -332.5
q0 -69 -26 -124.5t-64 -95.5l-76 -80t-67.5 -98.5t-34.5 -129.5q-1 -12 -9.5 -20.5t-20.5 -8.5l-293 -5q-14 0 -23 9t-9 23q4 95 33.5 170t68 120t76.5 82t64 76.5t26 84.5z" />
    <glyph glyph-name="at" unicode="@" horiz-adv-x="1845" 
d="M929 630q33 0 52.5 21.5t22.5 53.5v5q0 4 -0.5 11.5t-0.5 11.5v4q-6 29 -24.5 48t-49.5 19q-47 0 -66.5 -43.5t0 -87t66.5 -43.5zM45 717q0 179 70 342.5t188 281.5t281 187.5t342 69.5q331 0 572 -208q183 -157 262 -385q75 -216 26 -395q-48 -176 -201 -243
q-79 -34 -180 -34q-121 0 -220.5 66.5t-146.5 173.5q-2 -6 -5 -19q-7 -27 -11 -41.5t-14 -41.5t-20.5 -43t-28.5 -36.5t-39 -31.5t-51.5 -19t-66.5 -8q-60 0 -109 33t-79 87t-46.5 123t-16.5 141t16.5 141t46.5 123t79 87t109 33q116 0 178 -110q5 -8 14 -7q9 2 9 13v78
q0 11 8 18.5t19 7.5h244q11 0 18.5 -7.5t7.5 -18.5v-339q0 -44 31 -74.5t74 -30.5q82 0 101 84q21 95 -42 228q-75 156 -218 252q-145 98 -320 98q-158 0 -292.5 -77t-213 -210t-78.5 -289q0 -125 31.5 -220t84 -154.5t129.5 -97t159.5 -52.5t182.5 -15q183 0 326 23.5
t315 76.5q14 3 24 -4t10 -21v-248q0 -18 -17 -24q-152 -51 -305 -80t-350 -30q-148 -1 -274.5 23.5t-241.5 85.5t-195.5 156t-128 243t-47.5 338z" />
    <glyph glyph-name="A" unicode="A" horiz-adv-x="913" 
d="M481 1056q-1 10 -8 16.5t-17 6.5q-22 0 -24 -22l-31 -484q0 -15 8 -24q10 -10 23 -10h48q14 0 23 10q9 9 9 24zM896 35q2 -15 -7 -25t-24 -10h-287q-12 0 -21 8.5t-10 20.5l-9 126q-1 12 -10 21t-21 9h-101q-12 0 -21 -9t-10 -21l-8 -126q-1 -12 -10.5 -20.5t-21.5 -8.5
h-287q-14 0 -23 11t-8 24l152 1371q2 12 10.5 20t20.5 8h513q12 0 21 -8t10 -20z" />
    <glyph glyph-name="B" unicode="B" horiz-adv-x="983" 
d="M594 940h-1v50q0 37 -25.5 63t-62.5 26h-58q-13 0 -22 -9t-9 -22v-166q0 -13 9 -22t22 -9h58q37 0 63 26t26 63zM416 386q0 -13 9 -22t22 -9h58q37 0 62.5 26t25.5 63v50q0 37 -25.5 63t-62.5 26h-58q-13 0 -22 -9.5t-9 -22.5v-165zM61 31v1371q0 13 9.5 22.5t22.5 9.5
h430q178 0 301.5 -112t123.5 -285q0 -27 -1 -48t-6.5 -54t-14.5 -57.5t-27.5 -52.5t-44 -45.5t-65 -29.5t-89.5 -12q-8 0 -15 -5.5t-7 -15.5t7 -15.5t15 -5.5q50 0 89.5 -12t65 -29.5t44 -45.5t27.5 -52.5t14.5 -57.5t6.5 -54t1 -48q0 -173 -123.5 -285t-301.5 -112h-430
q-13 0 -22.5 9t-9.5 22z" />
    <glyph glyph-name="C" unicode="C" horiz-adv-x="931" 
d="M35 717v6q0 71 0.5 108.5t4.5 107t11.5 109.5t22.5 99.5t37 94.5t55.5 76t77 63.5t103 37.5t131.5 15q94 0 166.5 -24.5t119 -64t78.5 -99t47.5 -120t23.5 -136.5q2 -25 -22 -33l-287 -93q-15 -5 -27 4q-12 8 -14 23q-13 188 -85 188q-16 0 -29 -8t-22 -26.5t-15.5 -36.5
t-10.5 -49.5t-6.5 -54t-3.5 -61t-1 -60v-61.5v-5v-5v-61.5t1 -60t3.5 -61t6.5 -54t10.5 -49.5t15.5 -36.5t22 -26.5t29 -8q72 0 85 188q2 15 14 23q12 9 27 4l287 -94q24 -8 22 -33q-8 -76 -23.5 -136.5t-47.5 -119.5t-78.5 -99t-119.5 -64t-166 -24q-72 0 -131.5 15
t-103 37.5t-77 63.5t-55.5 76t-37 94.5t-22.5 99.5t-11.5 109.5t-4.5 107t-0.5 108.5v6z" />
    <glyph glyph-name="D" unicode="D" horiz-adv-x="985" 
d="M594 717q0 5 0.5 29.5t0 43t-1 50t-3 56t-6 54t-10.5 51t-16 40t-22.5 28.5t-30.5 10h-57q-13 0 -22.5 -9t-9.5 -22v-662q0 -13 9.5 -22t22.5 -9h57q16 0 29.5 10t22.5 29t16 40t11 51t6.5 54t3 56t1 50t0 43t-0.5 29zM61 1402q0 13 9.5 22.5t22.5 9.5h430
q69 -2 126.5 -18.5t99 -39t73.5 -64t53 -76.5t35.5 -94t22 -99t11 -108.5t4 -105t0.5 -106.5v-6v-6q0 -70 -0.5 -106.5t-4 -105t-11 -108.5t-22 -99t-35.5 -94t-53 -76.5t-73.5 -64t-99 -39t-126.5 -18.5h-430q-13 0 -22.5 9.5t-9.5 22.5v1370z" />
    <glyph glyph-name="E" unicode="E" horiz-adv-x="983" 
d="M61 1402q0 13 9.5 22.5t22.5 9.5h824q13 0 22.5 -9.5t9.5 -22.5v-292q0 -13 -9.5 -22t-22.5 -9h-469q-13 0 -22.5 -9t-9.5 -22v-122q0 -13 9.5 -22.5t22.5 -9.5h361q13 0 22.5 -9t9.5 -22v-292q0 -13 -9.5 -22.5t-22.5 -9.5h-361q-13 0 -22.5 -9t-9.5 -22v-122
q0 -13 9.5 -22t22.5 -9h469q13 0 22.5 -9t9.5 -22v-293q0 -13 -9.5 -22t-22.5 -9h-824q-13 0 -22.5 9t-9.5 22v1371z" />
    <glyph glyph-name="F" unicode="F" horiz-adv-x="952" 
d="M61 1402q0 13 9.5 22.5t22.5 9.5h824q13 0 22 -9.5t9 -22.5v-292q0 -13 -9 -22t-22 -9h-470q-13 0 -22 -9t-9 -22v-122q0 -13 9 -22.5t22 -9.5h362q13 0 22 -9t9 -22v-292q0 -13 -9 -22.5t-22 -9.5h-362q-13 0 -22 -9t-9 -22v-477q0 -13 -9 -22t-22 -9h-292
q-13 0 -22.5 9t-9.5 22v1371z" />
    <glyph glyph-name="G" unicode="G" horiz-adv-x="950" 
d="M35 717v6q0 71 0.5 108.5t4.5 107t11.5 109.5t22.5 99.5t37 94.5t55.5 76t77 63.5t103 37.5t131.5 15q93 0 165.5 -24t119 -64t78.5 -99t47.5 -120t23.5 -137q2 -25 -21 -33l-287 -94q-15 -5 -27 4q-12 8 -14 24q-13 187 -85 187q-16 0 -29 -8t-22 -26.5t-15.5 -36.5
t-10.5 -49.5t-6.5 -54t-3.5 -61t-1 -60v-61.5v-5v-5v-61.5t1 -60t3.5 -61t6.5 -54t10.5 -49.5t15.5 -36.5t22 -26.5t29 -8q66 0 82 150q2 14 -8 25q-9 10 -23 10h-20q-13 0 -22 9t-9 22v206q0 13 9 22t22 9h375q13 0 22 -9t9 -22v-306v-3q-7 -79 -21.5 -142.5t-46 -126
t-78 -104.5t-121 -68t-170.5 -26q-72 0 -131.5 15t-103 37.5t-77 63.5t-55.5 76t-37 94.5t-22.5 99.5t-11.5 109.5t-4.5 107t-0.5 108.5v6z" />
    <glyph glyph-name="H" unicode="H" horiz-adv-x="1011" 
d="M61 1402q0 13 9.5 22.5t22.5 9.5h292q13 0 22 -9.5t9 -22.5v-476q0 -13 9 -22.5t22 -9.5h115q13 0 22.5 9.5t9.5 22.5v476q0 13 9 22.5t22 9.5h292q13 0 22 -9.5t9 -22.5v-1371q0 -13 -9 -22t-22 -9h-292q-13 0 -22 9t-9 22v477q0 13 -9.5 22t-22.5 9h-115q-13 0 -22 -9
t-9 -22v-477q0 -13 -9 -22t-22 -9h-292q-13 0 -22.5 9t-9.5 22v1371z" />
    <glyph glyph-name="I" unicode="I" horiz-adv-x="479" 
d="M61 1402q0 13 9.5 22.5t22.5 9.5h292q13 0 22 -9.5t9 -22.5v-1371q0 -13 -9 -22t-22 -9h-292q-13 0 -22.5 9t-9.5 22v1371z" />
    <glyph glyph-name="J" unicode="J" horiz-adv-x="911" 
d="M294 570q16 5 28 -4q11 -7 13 -23q13 -188 85 -188q21 0 37 14t25.5 44t15 59t8 77t3 78t0.5 82v693q0 13 9 22.5t22 9.5h292q13 0 22.5 -9.5t9.5 -22.5v-693q0 -69 -0.5 -107.5t-4.5 -106.5t-11.5 -109.5t-23 -99.5t-37.5 -94t-55.5 -76.5t-77 -63t-103 -37.5
t-131.5 -15q-93 0 -165.5 24t-119 64t-78.5 99t-47.5 119.5t-23.5 136.5q-2 25 21 33z" />
    <glyph glyph-name="K" unicode="K" horiz-adv-x="946" 
d="M61 1402q0 13 9.5 22.5t22.5 9.5h292q13 0 22 -9.5t9 -22.5v-483q0 -21 21 -25q9 -2 17 3t10 14l116 499q5 24 30 24h296q15 0 25 -13t5 -28l-209 -667q-3 -9 0 -18l209 -667q5 -15 -5 -28t-25 -13h-296q-25 0 -30 24l-116 499q-2 9 -10 14t-17 3q-21 -4 -21 -25v-484
q0 -13 -9 -22t-22 -9h-292q-13 0 -22.5 9t-9.5 22v1371z" />
    <glyph glyph-name="L" unicode="L" horiz-adv-x="960" 
d="M61 1402q0 13 9.5 22.5t22.5 9.5h292q13 0 22 -9.5t9 -22.5v-1016q0 -13 9.5 -22t22.5 -9h469q13 0 22.5 -9t9.5 -22v-293q0 -13 -9.5 -22t-22.5 -9h-824q-13 0 -22.5 9t-9.5 22v1371z" />
    <glyph glyph-name="M" unicode="M" horiz-adv-x="1544" 
d="M61 1402q0 13 9.5 22.5t22.5 9.5h560q12 0 21 -9t10 -21l63 -1027q2 -22 24 -22q23 0 25 22l62 1028q1 12 9.5 20.5t21.5 8.5h561q13 0 22 -9t9 -22v-1371q0 -13 -9 -22.5t-22 -9.5h-293q-13 0 -22 9.5t-9 22.5v1025q0 20 -20 22q-8 1 -15 -4.5t-8 -13.5l-130 -1034
q-2 -11 -10.5 -19t-20.5 -8h-302q-12 0 -20.5 8t-10.5 19l-129 1034q-1 8 -8.5 13.5t-15.5 4.5q-20 -2 -20 -22v-1026q0 -13 -9 -22t-22 -9h-292q-13 0 -22.5 9t-9.5 22v1371z" />
    <glyph glyph-name="N" unicode="N" horiz-adv-x="1009" 
d="M61 1402q0 13 9.5 22.5t22.5 9.5h300q25 0 30 -22l128 -503q1 -8 8.5 -12.5t15.5 -2.5q18 3 18 22l1 486q0 13 9 22.5t22 9.5h292q13 0 22 -9.5t9 -22.5v-1371q0 -13 -9 -22t-22 -9h-301q-24 0 -29 22l-128 502q-5 18 -24 15t-19 -21v-487q0 -13 -9 -22t-22 -9h-292
q-13 0 -22.5 9t-9.5 22v1371z" />
    <glyph glyph-name="O" unicode="O" horiz-adv-x="958" 
d="M478 355q17 0 30.5 10t22.5 28.5t16 40t10.5 51t6 54t3 56t1 50t0 43t-0.5 29.5q0 54 -0.5 83t-2.5 79.5t-8 79t-15.5 60t-25.5 46t-37 14.5q-16 0 -29 -8t-22 -26.5t-15.5 -36.5t-10.5 -49.5t-6.5 -54t-3.5 -61t-1 -60v-61.5v-5q0 -5 -0.5 -29t-0.5 -43t0.5 -50t3 -56
t6.5 -54t10.5 -51t15.5 -40.5t22.5 -28.5t30.5 -10zM35 717q0 93 1.5 146t10 139.5t25 138t48.5 114t78.5 97t117.5 58.5t162 24t162.5 -24t117.5 -58.5t78.5 -97t49 -114t25 -138t10 -139.5t1.5 -146t-1.5 -146t-10 -139.5t-25 -138t-49 -114t-78.5 -97t-117.5 -58.5
t-162.5 -24t-162 24t-117.5 58.5t-78.5 97t-48.5 114t-25 138t-10 139.5t-1.5 146z" />
    <glyph glyph-name="P" unicode="P" horiz-adv-x="960" 
d="M505 717q19 0 33.5 5.5t24 12.5t16 21.5t9.5 25t5 29.5t2 29t-0.5 31t-0.5 27t0.5 27t0.5 31t-2 29t-5 29.5t-9.5 25t-16 21.5t-24 12.5t-33.5 5.5h-57q-13 0 -22.5 -9t-9.5 -22v-300q0 -13 9.5 -22t22.5 -9h57zM61 1402q0 13 9.5 22.5t22.5 9.5h412q117 0 205 -43.5
t139 -119.5t75.5 -169.5t24.5 -203.5t-24.5 -203.5t-75.5 -169.5t-139 -119.5t-205 -43.5h-57q-13 0 -22.5 -9t-9.5 -22v-300q0 -13 -9 -22t-22 -9h-292q-13 0 -22.5 9t-9.5 22v1371z" />
    <glyph glyph-name="Q" unicode="Q" horiz-adv-x="960" 
d="M478 355q17 0 30.5 10t22.5 28.5t16 40t10.5 51t6 54t3 56t1 50t0 43t-0.5 29.5q0 54 -0.5 83t-2.5 79.5t-8 79t-15.5 60t-25.5 46t-37 14.5q-16 0 -29 -8t-22 -26.5t-15.5 -36.5t-10.5 -49.5t-6.5 -54t-3.5 -61t-1 -60v-61.5v-5q0 -5 -0.5 -29t-0.5 -43t0.5 -50t3 -56
t6.5 -54t10.5 -51t15.5 -40.5t22.5 -28.5t30.5 -10zM35 717q0 93 1.5 146t10 139.5t25 138t49 114t78.5 97t117.5 58.5t162.5 24q72 0 131 -14.5t102 -36.5t77 -62t55.5 -75.5t37 -94t23.5 -100.5t12 -111t4.5 -110t0.5 -113q0 -100 -2 -159.5t-11.5 -144.5t-32 -150
t-59.5 -116q-11 -16 -1 -34l91 -158q14 -26 -12 -42l-152 -89q-15 -8 -43 12l-221 149q-3 2 -7.5 6.5t-8.5 6.5t-9 2q-67 2 -123 18.5t-97 39.5t-72.5 63t-52.5 76t-35.5 93t-22 99t-11.5 109t-4.5 108t-0.5 111z" />
    <glyph glyph-name="R" unicode="R" 
d="M505 717q19 0 33.5 5.5t24 12.5t16 21.5t9.5 25t5 29.5t2 29t-0.5 31t-0.5 27t0.5 27t0.5 31t-2 29t-5 29.5t-9.5 25t-16 21.5t-24 12.5t-33.5 5.5h-57q-13 0 -22.5 -9t-9.5 -22v-300q0 -13 9.5 -22t22.5 -9h57zM479 340q-7 22 -30 22h-1q-13 0 -22.5 -9t-9.5 -22v-300
q0 -13 -9 -22t-22 -9h-292q-13 0 -22.5 9t-9.5 22v1371q0 13 9.5 22.5t22.5 9.5h412q117 0 205 -43.5t138.5 -119.5t75 -169.5t24.5 -203.5q0 -274 -134 -416q-12 -12 -7 -31l129 -410q5 -15 -5 -28t-25 -13h-298q-22 0 -29 22z" />
    <glyph glyph-name="S" unicode="S" horiz-adv-x="942" 
d="M25 389q-2 24 21 31l295 95q15 5 27 -4q14 -11 14 -25l2 -37v-2q0 -44 25 -68t64 -24t63.5 24.5t24.5 68.5q0 40 -29.5 68.5t-77 47t-104.5 36.5t-114 46t-104.5 67.5t-77 108.5t-29.5 161q0 214 124 332.5t319 118.5q188 0 313.5 -103.5t134.5 -285.5q2 -24 -22 -31
l-294 -95q-15 -5 -27 4q-14 9 -14 24l-2 38v2q0 44 -25 68t-64 24t-63.5 -24.5t-24.5 -68.5q0 -40 29.5 -68.5t77 -47t104.5 -36.5t114 -46t104.5 -67.5t77 -108.5t29.5 -161q0 -214 -124 -332.5t-319 -118.5q-188 0 -313.5 103.5t-134.5 285.5z" />
    <glyph glyph-name="T" unicode="T" horiz-adv-x="909" 
d="M276 1048q0 13 -9 22t-22 9h-203q-13 0 -22.5 9t-9.5 22v292q0 13 9.5 22.5t22.5 9.5h824q13 0 22 -9.5t9 -22.5v-292q0 -13 -9 -22t-22 -9h-204q-13 0 -22 -9t-9 -22v-1016q0 -13 -9 -22.5t-22 -9.5h-292q-13 0 -22.5 9.5t-9.5 22.5v1016z" />
    <glyph glyph-name="U" unicode="U" horiz-adv-x="983" 
d="M47 717v685q0 13 9 22.5t22 9.5h293q13 0 22 -9.5t9 -22.5v-685q0 -5 -0.5 -29.5t0 -43t1 -50t3 -56t6 -54t10.5 -51t16 -40t22.5 -28.5t30.5 -10t30.5 10t22.5 28.5t15.5 40.5t10.5 51t6.5 54t3 56t0.5 50t-0.5 43t-0.5 29v685q0 13 9.5 22.5t22.5 9.5h292q13 0 22 -9.5
t9 -22.5v-685q0 -93 -1.5 -146t-10 -139.5t-25 -138t-48.5 -114t-78.5 -97t-117.5 -58.5t-162 -24t-162.5 24t-117.5 58.5t-78.5 97t-49 114t-25 138t-10 139.5t-1.5 146z" />
    <glyph glyph-name="V" unicode="V" horiz-adv-x="913" 
d="M17 1399q-2 14 7 24q9 11 24 11h287q12 0 21 -9t10 -21l66 -1027q2 -22 24 -22q23 0 25 22l65 1027q1 12 10 21t21 9h288q14 0 23 -11t8 -24l-152 -1371q-2 -12 -10.5 -20t-20.5 -8h-513q-12 0 -20.5 8t-10.5 20z" />
    <glyph glyph-name="W" unicode="W" horiz-adv-x="1447" 
d="M749 1057q-2 22 -24 22t-24 -22l-62 -1028q-1 -12 -10.5 -20.5t-21.5 -8.5h-407q-12 0 -20.5 8t-10.5 20l-152 1371q-2 14 7 24q9 11 24 11h287q12 0 21 -9t10 -21l66 -1027q2 -22 24 -22q23 0 25 22l65 1027q1 12 10 21t21 9h294q12 0 20.5 -9t9.5 -21l66 -1027
q2 -22 24 -22q23 0 25 22l65 1027q1 12 10.5 21t21.5 9h287q14 0 23 -11t8 -24l-152 -1371q-2 -12 -10.5 -20t-20.5 -8h-405q-13 0 -21.5 8.5t-9.5 20.5z" />
    <glyph glyph-name="X" unicode="X" horiz-adv-x="882" 
d="M249 706q4 13 0 21l-237 665q-5 15 4 28q9 14 26 14h302q12 0 21 -8.5t10 -20.5l42 -489q1 -9 7.5 -15.5t16.5 -6.5q22 0 24 22l42 489q1 12 10 20.5t21 8.5h302q17 0 26 -14q9 -13 4 -28l-237 -665q-3 -11 0 -21l237 -664q5 -16 -4 -29t-25 -13h-303q-12 0 -21 8.5
t-10 20.5l-41 489q-1 9 -8.5 15t-16.5 6q-22 0 -24 -21l-42 -489q-1 -12 -10 -20.5t-21 -8.5h-302q-17 0 -26 13q-10 15 -4 29z" />
    <glyph glyph-name="Y" unicode="Y" horiz-adv-x="884" 
d="M266 676q0 4 -2 10q-217 600 -252 707q-5 16 4 28q10 13 26 13h305q12 0 21 -8.5t10 -20.5l41 -489q1 -9 8 -15.5t16 -6.5t16.5 6.5t8.5 15.5l41 489q1 12 10 20.5t21 8.5h303q16 0 25 -14q9 -13 4 -28l-249 -699q-2 -6 -2 -10v-651q0 -13 -9 -22.5t-22 -9.5h-293
q-13 0 -22 9.5t-9 22.5v644z" />
    <glyph glyph-name="Z" unicode="Z" horiz-adv-x="946" 
d="M29 346q0 9 5 17l429 668q10 17 1 32q-10 16 -27 16h-377q-13 0 -22 9t-9 22v292q0 13 9 22.5t22 9.5h825q13 0 22 -9.5t9 -22.5v-314q0 -9 -5 -17l-430 -668q-10 -17 -1 -32q10 -16 27 -16h378q13 0 22 -9t9 -22v-292q0 -13 -9 -22.5t-22 -9.5h-825q-13 0 -22 9.5
t-9 22.5v314z" />
    <glyph glyph-name="bracketleft" unicode="[" horiz-adv-x="600" 
d="M61 1580q0 13 9.5 22t22.5 9h445q13 0 22 -9t9 -22v-292q0 -13 -9 -22.5t-22 -9.5h-96q-11 0 -18.5 -7.5t-7.5 -17.5v-1027q0 -10 8 -18t18 -8h96q13 0 22 -9.5t9 -22.5v-292q0 -13 -9 -22t-22 -9h-445q-13 0 -22.5 9t-9.5 22v1726z" />
    <glyph glyph-name="backslash" unicode="\" horiz-adv-x="751" 
d="M103 1401q-3 12 5 23q8 10 21 10h123q20 0 25 -19l371 -1382q3 -11 -5 -22t-20 -11h-124q-20 0 -25 20z" />
    <glyph glyph-name="bracketright" unicode="]" horiz-adv-x="600" 
d="M183 1231q0 11 -7.5 18.5t-17.5 7.5h-96q-13 0 -22 9t-9 22v292q0 13 9 22t22 9h445q13 0 22 -9t9 -22v-1726q0 -13 -9 -22t-22 -9h-445q-13 0 -22 9t-9 22v292q0 13 9 22.5t22 9.5h96q10 0 17.5 7.5t7.5 18.5v1027z" />
    <glyph glyph-name="asciicircum" unicode="^" horiz-adv-x="700" 
d="M292 1425q4 9 16 9h83q11 0 15 -9l268 -463q4 -8 0 -17t-16 -9h-163q-11 0 -16 9l-114 198q-4 8 -16 8q-11 0 -15 -8l-114 -198q-4 -9 -16 -9h-164q-10 0 -15 9q-4 9 0 17z" />
    <glyph glyph-name="underscore" unicode="_" horiz-adv-x="1097" 
d="M1037 178q11 0 18.5 -8t7.5 -18v-126q0 -10 -7.5 -18t-18.5 -8h-976q-11 0 -18.5 8t-7.5 18v126q0 10 7.5 18t18.5 8h976z" />
    <glyph glyph-name="grave" unicode="`" horiz-adv-x="235" 
d="M38 1341q-7 21 12 31l75 43q13 7 24 1q13 -6 14 -19l35 -217q2 -12 -6 -21t-20 -9h-49q-18 0 -25 18z" />
    <glyph glyph-name="a" unicode="a" 
d="M563 540q0 82 -23 133t-66 51q-42 0 -65.5 -51t-23.5 -133t23.5 -133.5t65.5 -51.5q43 0 66 51.5t23 133.5zM918 31q0 -13 -9.5 -22t-22.5 -9h-292q-13 0 -22 9t-9 22v93q0 12 -11 15t-18 -7q-75 -132 -212 -132q-142 0 -216.5 143t-74.5 397q0 253 74.5 396t216.5 143
q138 0 213 -132q5 -10 17 -7q11 3 11 14v94q0 13 9 22t22 9h293q13 0 22 -9t9 -22v-1017z" />
    <glyph glyph-name="b" unicode="b" 
d="M501 355q42 0 65.5 51.5t23.5 133.5t-23.5 133t-65.5 51q-43 0 -66 -51t-23 -133t23 -133.5t66 -51.5zM57 1402q0 13 9.5 22.5t22.5 9.5h292q13 0 22 -9.5t9 -22.5v-448q0 -11 12 -14t17 7q75 132 212 132q142 0 217 -143t75 -396t-75 -396.5t-217 -143.5
q-137 0 -212 132q-5 11 -18 7q-11 -3 -11 -15v-93q0 -13 -9 -22t-22 -9h-292q-13 0 -22.5 9t-9.5 22v1371z" />
    <glyph glyph-name="c" unicode="c" horiz-adv-x="907" 
d="M27 540q0 109 16.5 195t48 144t71 98t91.5 62t103.5 31t112.5 9q74 0 135 -13.5t118.5 -46.5t100 -96t65.5 -154q3 -12 -2.5 -22.5t-17.5 -14.5l-285 -93q-11 -4 -23 2q-13 7 -16 18q-20 65 -75 65q-40 0 -64 -39.5t-24 -144.5t24 -145t64 -40q55 0 75 65q3 11 16 18
q12 6 23 2l285 -92q27 -9 20 -38q-23 -91 -65.5 -154t-100 -96t-118.5 -46.5t-135 -13.5q-52 0 -97 6.5t-91 22.5t-83 42t-69.5 68.5t-55 97.5t-35 132t-12.5 171z" />
    <glyph glyph-name="d" unicode="d" 
d="M474 355q43 0 66 51.5t23 133.5t-23 133t-66 51q-42 0 -65.5 -51t-23.5 -133t23.5 -133.5t65.5 -51.5zM31 540q0 253 74.5 396t216.5 143q138 0 213 -132q5 -10 17 -7q11 3 11 14v448q0 13 9 22.5t22 9.5h292q13 0 22.5 -9.5t9.5 -22.5v-1371q0 -13 -9.5 -22t-22.5 -9
h-292q-13 0 -22 9t-9 22v93q0 12 -11 15q-12 3 -17 -7q-75 -132 -213 -132q-141 0 -216 143.5t-75 396.5z" />
    <glyph glyph-name="e" unicode="e" horiz-adv-x="923" 
d="M443 652h54q21 0 29 19t-7 34q-19 19 -49 19t-49 -19q-15 -15 -7 -34t29 -19zM27 540q0 109 16.5 195t48 144t71 98t91.5 62t103.5 31t112.5 9q83 0 148.5 -17.5t109.5 -44.5t76 -71t49 -86.5t27 -102t13 -106t3 -109.5q0 -13 -9 -22t-23 -9h-448q-15 0 -24 -11
q-9 -10 -7 -24q12 -121 85 -121q55 0 75 65q5 12 16 18q12 6 23 2l285 -92q27 -9 20 -38q-23 -91 -65.5 -154t-100 -96t-118.5 -46.5t-135 -13.5q-52 0 -97 6.5t-91 22.5t-83 42t-69.5 68.5t-55 97.5t-35 132t-12.5 171z" />
    <glyph glyph-name="f" unicode="f" horiz-adv-x="620" 
d="M104 693q0 13 -9 22t-22 9h-17q-13 0 -22 9t-9 22v293q0 13 9 22t22 9h32q12 0 20.5 7.5t10.5 18.5q55 383 395 399q13 1 22.5 -7t10.5 -21l27 -294q1 -12 -7 -22.5t-20 -11.5q-1 0 -64 -4.5t-90 -9.5q-15 -2 -20.5 -15t3.5 -25.5t31 -13.5q24 -1 123 -1h49q13 0 22 -9
t9 -22v-293q0 -13 -9 -22t-22 -9h-89q-13 0 -22 -9t-9 -22v-662q0 -13 -9 -22t-22 -9h-293q-13 0 -22 9t-9 22v662z" />
    <glyph glyph-name="g" unicode="g" 
d="M562 540q0 83 -22.5 133.5t-65.5 50.5q-42 0 -65.5 -51t-23.5 -133t23.5 -133.5t65.5 -51.5q43 0 65.5 51t22.5 134zM396 -48q17 6 32 -7q17 -16 46 -16q40 0 64.5 39.5t24.5 144.5v11q0 12 -11 15q-12 3 -17 -7q-75 -132 -213 -132q-141 0 -216 143t-75 396
q0 254 74.5 397t216.5 143q138 0 213 -132q5 -10 17 -7q11 3 11 14v94q0 13 9 22t22 9h292q13 0 22.5 -9t9.5 -22v-935q0 -130 -25 -227.5t-65 -156t-99.5 -94.5t-120 -48.5t-134.5 -12.5q-139 0 -241.5 53t-155.5 186q-5 13 1 25q5 11 19 16z" />
    <glyph glyph-name="h" unicode="h" horiz-adv-x="991" 
d="M57 1402q0 13 9 22.5t22 9.5h293q13 0 22 -9t9 -22v-448q0 -12 11 -15q12 -3 17 7q75 132 213 132q142 0 216.5 -143t74.5 -396v-509q0 -13 -9 -22t-22 -9h-292q-13 0 -22 9t-9 22v509q0 82 -23.5 133t-65.5 51q-43 0 -66 -51t-23 -133v-509q0 -13 -9 -22t-22 -9h-292
q-13 0 -22.5 9t-9.5 22v1371z" />
    <glyph glyph-name="i" unicode="i" horiz-adv-x="471" 
d="M57 1327q0 73 52.5 125.5t125.5 52.5t125 -52.5t52 -125.5t-52 -125t-125 -52t-125.5 52t-52.5 125zM57 1048q0 13 9.5 22t22.5 9h292q13 0 22 -9t9 -22v-1017q0 -13 -9 -22t-22 -9h-292q-13 0 -22.5 9t-9.5 22v1017z" />
    <glyph glyph-name="j" unicode="j" horiz-adv-x="471" 
d="M58 1327q0 73 52 125.5t125 52.5t125.5 -52.5t52.5 -125.5t-52.5 -125t-125.5 -52t-125 52t-52 125zM58 1048q0 13 9 22t22 9h293q13 0 22 -9t9 -22v-934q0 -89 -11.5 -163t-32 -128.5t-50.5 -96.5t-64 -69.5t-76.5 -45.5t-85 -26t-91.5 -10q-14 0 -23 9q-10 10 -10 22
v296q0 23 23 30q66 20 66 182v934z" />
    <glyph glyph-name="k" unicode="k" horiz-adv-x="937" 
d="M57 1402q0 13 9 22.5t22 9.5h293q13 0 22 -9.5t9 -22.5v-666q0 -16 15 -19q17 -4 22 11l125 331q8 20 29 20h295q17 0 26 -14t3 -29l-202 -484q-5 -12 0 -25l202 -484q6 -15 -3 -29t-26 -14h-295q-21 0 -29 20l-125 331q-5 15 -22 11q-15 -3 -15 -19v-312q0 -13 -9 -22
t-22 -9h-292q-13 0 -22.5 9t-9.5 22v1371z" />
    <glyph glyph-name="l" unicode="l" horiz-adv-x="471" 
d="M57 1402q0 13 9.5 22.5t22.5 9.5h292q13 0 22 -9.5t9 -22.5v-1371q0 -13 -9 -22t-22 -9h-292q-13 0 -22.5 9t-9.5 22v1371z" />
    <glyph glyph-name="m" unicode="m" horiz-adv-x="1521" 
d="M57 1048q0 13 9.5 22t22.5 9h292q13 0 22 -9t9 -22v-93q0 -12 11 -15q13 -4 18 7q75 132 212 132q178 0 251 -227q3 -10 15 -10q11 0 14 10q71 227 252 227q141 0 216.5 -143t75.5 -396v-509q0 -13 -9 -22t-22 -9h-293q-13 0 -22 9t-9 22v509q0 82 -23.5 133t-65.5 51
q-43 0 -65.5 -50.5t-22.5 -133.5v-509q0 -13 -9.5 -22t-22.5 -9h-292q-13 0 -22 9t-9 22v509q0 82 -23.5 133t-65.5 51q-43 0 -66 -51t-23 -133v-509q0 -13 -9 -22t-22 -9h-292q-13 0 -22.5 9t-9.5 22v1017z" />
    <glyph glyph-name="n" unicode="n" horiz-adv-x="989" 
d="M57 1048q0 13 9 22t22 9h293q13 0 22 -9t9 -22v-93q0 -12 11 -15q12 -3 17 7q75 132 213 132q142 0 216.5 -143t74.5 -396v-509q0 -13 -9 -22t-22 -9h-292q-13 0 -22.5 9t-9.5 22v509q0 82 -23 133t-65 51q-43 0 -66 -51t-23 -133v-509q0 -13 -9 -22t-22 -9h-292
q-13 0 -22.5 9t-9.5 22v1017z" />
    <glyph glyph-name="o" unicode="o" horiz-adv-x="942" 
d="M470 355q89 0 89 185q0 105 -24.5 144.5t-64.5 39.5t-64 -39.5t-24 -144.5t24 -145t64 -40zM27 540q0 109 16.5 195t48 144t71 98t91.5 62t103.5 31t112.5 9q74 0 134.5 -12.5t120 -48.5t99.5 -94.5t65 -156t25 -227.5t-25 -227.5t-65 -156.5t-99.5 -95t-120 -48.5
t-134.5 -12.5q-52 0 -97 6.5t-91 22.5t-83 42t-69.5 68.5t-55 97.5t-35 132t-12.5 171z" />
    <glyph glyph-name="p" unicode="p" 
d="M590 540q0 82 -23.5 133t-65.5 51q-43 0 -66 -51t-23 -133t23 -133.5t66 -51.5q42 0 65.5 51.5t23.5 133.5zM57 1048q0 13 9.5 22t22.5 9h292q13 0 22 -9t9 -22v-93q0 -12 12 -15t17 7q75 132 212 132q142 0 217 -143t75 -396t-75 -396.5t-217 -143.5q-137 0 -212 132
q-5 10 -17 7t-12 -15v-448q0 -13 -9 -22t-22 -9h-292q-13 0 -22.5 9t-9.5 22v1372z" />
    <glyph glyph-name="q" unicode="q" 
d="M385 540q0 -82 23.5 -133.5t65.5 -51.5q43 0 66 51.5t23 133.5t-23 133t-66 51q-42 0 -65.5 -51t-23.5 -133zM31 540q0 253 74.5 396t216.5 143q138 0 213 -132q5 -10 17 -7q11 3 11 14v94q0 13 9 22t22 9h292q13 0 22.5 -9t9.5 -22v-1372q0 -13 -9.5 -22t-22.5 -9h-292
q-13 0 -22 9t-9 22v448q0 12 -11 15q-12 3 -17 -7q-75 -132 -213 -132q-142 0 -216.5 143t-74.5 397z" />
    <glyph glyph-name="r" unicode="r" horiz-adv-x="684" 
d="M57 1049q0 13 9 22t22 9h293q13 0 22 -9t9 -22v-94q0 -11 11 -14q12 -3 17 7q67 119 188 131l1 1q10 0 17.5 -7t8.5 -17l27 -297q1 -13 -8 -24q-9 -10 -23 -10h-150q-43 0 -66 -51t-23 -133v-509q0 -13 -9 -22t-22 -9h-292q-13 0 -22.5 9t-9.5 22v1017z" />
    <glyph glyph-name="s" unicode="s" horiz-adv-x="929" 
d="M345 408q20 7 33 -10q27 -32 69.5 -41t73 0t30.5 24q0 22 -39.5 43t-98.5 37t-127.5 40.5t-127.5 52.5t-98.5 75t-39.5 106q0 164 117 254t325 90q166 0 281.5 -74.5t153.5 -197.5q4 -12 -2 -23.5t-18 -15.5l-291 -95q-23 -8 -36 13t-36 32t-47 11t-46.5 -6t-36.5 -18
t-14 -26q0 -17 29.5 -31.5t77 -27t104.5 -28t114 -39t104 -55t76.5 -81.5t29.5 -113q0 -160 -113 -232t-329 -72q-166 0 -281 74.5t-153 197.5q-4 12 2 23.5t18 15.5z" />
    <glyph glyph-name="t" unicode="t" horiz-adv-x="673" 
d="M110 693q0 13 -9 22t-22 9h-17q-13 0 -22 9t-9 22v293q0 13 9 22t22 9h17q13 0 22 9t9 22v86q0 23 22 30l292 95q16 5 28 -4q13 -10 13 -26v-181q0 -13 9 -22t22 -9h89q13 0 22 -9t9 -22v-293q0 -13 -9 -22.5t-22 -9.5h-89q-13 0 -22.5 -8.5t-9.5 -21.5q-3 -334 86 -339
h64q14 0 23 -10q9 -11 8 -24l-26 -292q-1 -12 -10 -20t-21 -8q-96 0 -170.5 20.5t-124.5 51.5t-85 86t-54 106t-29 131.5t-12.5 142t-2.5 155.5z" />
    <glyph glyph-name="u" unicode="u" horiz-adv-x="989" 
d="M43 540v508q0 13 9 22t22 9h293q13 0 22 -9t9 -22v-508q0 -82 23.5 -133.5t65.5 -51.5q43 0 65.5 51t22.5 134v508q0 13 9.5 22t22.5 9h292q13 0 22 -9t9 -22v-1017q0 -13 -9 -22t-22 -9h-292q-13 0 -22.5 9t-9.5 22v93q0 12 -11 15q-12 3 -17 -7q-75 -132 -213 -132
q-142 0 -216.5 143t-74.5 397z" />
    <glyph glyph-name="v" unicode="v" horiz-adv-x="907" 
d="M15 1043q-2 15 7 25q9 11 24 11h287q12 0 21 -8t10 -20l65 -674q2 -22 24 -22q23 0 25 22l64 673q1 12 10 20.5t21 8.5h288q14 0 23 -11q9 -10 7 -25l-149 -1016q-1 -12 -10 -19.5t-21 -7.5h-516q-12 0 -21 7.5t-10 19.5z" />
    <glyph glyph-name="w" unicode="w" horiz-adv-x="1441" 
d="M15 1043q-2 15 7 25q9 11 24 11h287q12 0 20.5 -8t10.5 -20l65 -674q2 -22 24 -22t24 22l65 674q1 12 10 20t21 8h295q12 0 20.5 -8t10.5 -20l65 -674q2 -22 25 -22q22 0 24 22l64 674q2 12 10.5 20t20.5 8h287q15 0 24 -11q9 -10 7 -25l-150 -1016q-1 -12 -10 -19.5
t-21 -7.5h-406q-12 0 -21 8t-10 20l-62 674q-1 9 -8 15.5t-17 6.5q-22 0 -24 -22l-61 -674q-1 -12 -10 -20t-21 -8h-410q-12 0 -21 7.5t-10 19.5z" />
    <glyph glyph-name="x" unicode="x" horiz-adv-x="872" 
d="M460 341q-2 21 -24 21t-25 -21l-40 -313q-2 -12 -10.5 -20t-20.5 -8h-298q-17 0 -27 15t-2 30l229 481q6 14 0 27l-229 481q-8 15 2 30t27 15h298q12 0 21 -7.5t10 -19.5l40 -314q2 -21 25 -21q20 0 24 21l40 314q1 12 10 19.5t21 7.5h299q16 0 26 -15t2 -30l-228 -481
q-6 -13 0 -27l228 -481q8 -15 -2 -30t-26 -15h-299q-12 0 -21 7.5t-10 19.5z" />
    <glyph glyph-name="y" unicode="y" horiz-adv-x="989" 
d="M575 114v10q0 12 -11 15q-12 3 -17 -7q-75 -132 -213 -132q-142 0 -216.5 143t-74.5 397v508q0 13 9 22t22 9h292q13 0 22.5 -9t9.5 -22v-508q0 -82 23 -133.5t65 -51.5q43 0 66 51.5t23 133.5v508q0 13 9.5 22t22.5 9h292q13 0 22 -9t9 -22v-935q0 -130 -25 -227.5
t-65 -156t-99.5 -94.5t-120 -48.5t-134.5 -12.5q-139 0 -241 53t-155 186q-5 13 1 25t18 16l300 98q17 6 30 -6q18 -17 47 -17q89 0 89 185z" />
    <glyph glyph-name="z" unicode="z" horiz-adv-x="970" 
d="M41 342q0 12 10 22l314 306q15 15 7 34q-8 20 -29 20h-271q-13 0 -22 9t-9 22v293q0 13 9 22t22 9h825q13 0 22 -9t9 -22v-311q0 -13 -9 -22l-315 -306q-15 -15 -7 -35q8 -19 29 -19h271q13 0 22 -9t9 -22v-293q0 -13 -9 -22t-22 -9h-825q-13 0 -22 9t-9 22v311z" />
    <glyph glyph-name="braceleft" unicode="{" horiz-adv-x="677" 
d="M92 578q-50 63 -50 141t50 141q48 60 48 141v384q0 95 67 162t161 67h248q13 0 22 -9.5t9 -22.5v-292q0 -13 -9 -22t-22 -9h-95q-11 0 -18.5 -7.5t-7.5 -18.5v-254q0 -93 -34.5 -142.5t-110.5 -95.5q-13 -8 -13 -22t13 -22q76 -46 110.5 -95t34.5 -142v-254
q0 -10 7.5 -18t18.5 -8h95q13 0 22 -9t9 -22v-293q0 -13 -9 -22t-22 -9h-248q-94 0 -161 66.5t-67 161.5v384q0 81 -48 141z" />
    <glyph glyph-name="verticalbar" unicode="|" horiz-adv-x="301" 
d="M61 1586q0 10 7.5 17.5t18.5 7.5h126q11 0 18.5 -7.5t7.5 -17.5v-1737q0 -11 -7.5 -18.5t-18.5 -7.5h-126q-11 0 -18.5 7.5t-7.5 18.5v1737z" />
    <glyph glyph-name="braceright" unicode="}" horiz-adv-x="679" 
d="M183 458q0 93 34.5 142t111.5 96q12 8 12 22t-12 22q-76 46 -111 95.5t-35 142.5v253q0 11 -7.5 18.5t-17.5 7.5h-96q-13 0 -22 9t-9 22v293q0 13 9 22t22 9h248q94 0 161 -67t67 -161v-385q0 -80 48 -140q50 -63 50 -141.5t-50 -141.5q-48 -60 -48 -140v-384
q0 -95 -67 -162t-161 -67h-248q-13 0 -22 9.5t-9 22.5v292q0 13 9 22t22 9h96q10 0 17.5 7.5t7.5 18.5v254z" />
    <glyph glyph-name="asciitilde" unicode="~" horiz-adv-x="798" 
d="M721 751q20 6 34 -9q14 -16 5 -35q-28 -60 -66.5 -87t-82 -24.5t-92 19t-103.5 38.5t-108 38.5t-113 15.5t-113 -28q-21 -11 -38 6q-16 16 -6 38q27 54 64 84.5t77 37t86 1t92 -22t95 -32.5t94.5 -31.5t91 -17.5t83.5 9z" />
    <glyph glyph-name="nonbreakingspace" unicode="&#xa0;" horiz-adv-x="534" 
 />
    <glyph glyph-name="exclamdown" unicode="&#xa1;" horiz-adv-x="471" 
d="M57 1079q0 73 52 125t126 52q73 0 125 -52t52 -125t-52 -125t-125 -52t-125.5 52t-52.5 125zM57 799q0 13 9.5 22.5t22.5 9.5h292q13 0 22 -9.5t9 -22.5v-945q0 -13 -9 -22t-22 -9h-292q-13 0 -22.5 9t-9.5 22v945z" />
    <glyph glyph-name="cent" unicode="&#xa2;" horiz-adv-x="944" 
d="M43 717q0 133 24.5 232t70.5 158.5t101 92t126 46.5q21 4 21 26v143q0 11 8 18.5t18 7.5h125q11 0 18.5 -7.5t7.5 -18.5v-140q0 -23 22 -26q254 -37 320 -303q3 -12 -2.5 -22.5t-17.5 -14.5l-284 -93q-12 -4 -25 2q-10 5 -15 18q-20 65 -75 65q-40 0 -64.5 -39.5
t-24.5 -144.5q0 -185 89 -185q55 0 75 65q5 14 15 19q13 7 25 2l284 -93q12 -4 17.5 -14.5t2.5 -22.5q-66 -267 -320 -304q-22 -3 -22 -25v-133q0 -10 -7.5 -18t-18.5 -8h-125q-10 0 -18 8t-8 18v137q0 21 -21 25q-71 14 -126 46.5t-101 92t-70.5 158.5t-24.5 232z" />
    <glyph glyph-name="sterling" unicode="&#xa3;" horiz-adv-x="1069" 
d="M130 602q0 11 -8 19t-19 8h-38q-11 0 -18.5 7.5t-7.5 18.5v125q0 10 7.5 18t18.5 8h38q11 0 18.5 8t7.5 18v151q0 214 124.5 332.5t319.5 118.5q188 0 313 -103t134 -285q2 -25 -21 -32l-294 -95q-16 -5 -28 4q-13 10 -13 25l-3 37v2q0 44 -24.5 68t-63.5 24t-64 -24.5
t-25 -68.5v-155q0 -11 8 -18.5t18 -7.5h54q10 0 17.5 -7.5t7.5 -17.5v-126q0 -11 -7.5 -18.5t-17.5 -7.5h-54q-10 0 -18 -8t-8 -18v-210q0 -15 11 -24q11 -10 25 -8q52 5 114.5 0t105.5 -10.5t106 5t128 41.5q15 8 31 -2q15 -9 15 -28v-270q0 -17 -13 -26
q-68 -49 -156.5 -62.5t-176 -3.5t-173 23.5t-173.5 12t-152 -31.5q-15 -8 -31 2q-15 9 -15 27v565z" />
    <glyph glyph-name="currency" unicode="&#xa4;" horiz-adv-x="874" 
d="M560 717q0 51 -36 87.5t-87 36.5t-87.5 -36.5t-36.5 -87.5t36.5 -87t87.5 -36t87 36t36 87zM312 443q-16 8 -29 -5l-109 -109q-8 -7 -19 -7t-18 7l-88 89q-7 8 -7 18t7 18l108 109q13 13 6 29q-27 60 -27 125t27 125q7 16 -6 29l-108 109q-7 8 -7 18t7 18l88 89q7 7 18 7
t19 -7l109 -109q12 -12 29 -5q60 27 125 27t125 -27q16 -8 29 5l108 109q7 7 18 7t19 -7l89 -89q7 -8 7 -18t-7 -18l-109 -109q-13 -13 -5 -29q27 -60 27 -125t-27 -125q-8 -16 5 -29l109 -109q7 -8 7 -18t-7 -18l-89 -89q-8 -7 -18 -7t-18 7l-109 109q-12 12 -29 5
q-60 -27 -125 -27t-125 27z" />
    <glyph glyph-name="yen" unicode="&#xa5;" horiz-adv-x="946" 
d="M297 490q0 10 -7.5 17.5t-18.5 7.5h-100q-11 0 -18.5 7.5t-7.5 18.5v126q0 11 7.5 18.5t18.5 7.5h84q13 0 21 11q8 12 4 23q-192 528 -237 665q-5 16 4 28q10 13 25 13h305q12 0 21.5 -8t10.5 -20l41 -489q1 -9 8 -15.5t16 -6.5t16.5 6.5t8.5 15.5l41 489q1 12 10 20
t21 8h302q17 0 26 -13t4 -28l-237 -665q-5 -12 3 -23t21 -11h85q11 0 18.5 -7.5t7.5 -18.5v-126q0 -11 -7.5 -18.5t-18.5 -7.5h-98q-11 0 -18 -7.5t-7 -17.5v-8q0 -11 7.5 -18.5t17.5 -7.5h98q11 0 18.5 -7.5t7.5 -17.5v-126q0 -11 -7.5 -18.5t-18.5 -7.5h-98
q-10 0 -17.5 -7.5t-7.5 -18.5v-221q0 -13 -9.5 -22.5t-22.5 -9.5h-292q-13 0 -22 9.5t-9 22.5v222q0 10 -7.5 17.5t-18.5 7.5h-100q-11 0 -18.5 7.5t-7.5 18.5v126q0 11 7.5 18.5t18.5 7.5h100q11 0 18.5 7.5t7.5 18.5v7z" />
    <glyph glyph-name="brokenbar" unicode="&#xa6;" horiz-adv-x="296" 
d="M85 806q-11 0 -18.5 8t-7.5 18v754q0 10 7.5 17.5t18.5 7.5h126q11 0 18.5 -7.5t7.5 -17.5v-754q0 -10 -7.5 -18t-18.5 -8h-126zM59 603q0 10 7.5 17.5t18.5 7.5h126q11 0 18.5 -7.5t7.5 -17.5v-754q0 -11 -7.5 -18.5t-18.5 -7.5h-126q-11 0 -18.5 7.5t-7.5 18.5v754z
" />
    <glyph glyph-name="section" unicode="&#xa7;" horiz-adv-x="1046" 
d="M610 689q1 3 1 9l-1 12v2q0 44 -25 68t-64 24q-30 0 -52.5 -15t-31.5 -43q-1 -3 -1 -9l1 -13v-2q0 -44 25 -68t64 -24q65 0 84 59zM152 992q12 17 -1 32q-73 89 -73 234q0 214 124 332.5t319 118.5q188 0 313.5 -103.5t133.5 -285.5q2 -25 -21 -31l-295 -95q-15 -5 -27 4
q-13 10 -13 25l-3 37v2q0 44 -24.5 68t-63.5 24t-64 -24.5t-25 -68.5q0 -21 29 -45.5t74.5 -50t103.5 -56.5t115 -68t108.5 -79.5t85 -97t45 -115.5t-13.5 -139t-89 -163q-12 -17 1 -32q78 -91 78 -239q0 -214 -124.5 -332.5t-319.5 -118.5q-188 0 -313 103.5t-134 285.5
q-2 24 21 31l295 95q15 5 27 -4q14 -11 14 -24l2 -38v-1q0 -44 25 -68.5t64 -24.5t63.5 24.5t24.5 68.5q0 18 -23.5 40t-62.5 44t-88 50t-101.5 57.5t-102 67.5t-91 79t-66.5 94t-30 110t20.5 128.5t82.5 148.5z" />
    <glyph glyph-name="dieresis" unicode="&#xa8;" horiz-adv-x="831" 
d="M216 1079q-73 0 -125 52t-52 125t52 125.5t125 52.5t125.5 -52.5t52.5 -125.5t-52.5 -125t-125.5 -52zM436 1256q0 73 52.5 125.5t125.5 52.5t125 -52.5t52 -125.5t-52 -125t-125 -52q-74 0 -126 52t-52 125z" />
    <glyph glyph-name="copyright" unicode="&#xa9;" horiz-adv-x="1513" 
d="M756 1434q146 0 278.5 -57t228.5 -153t153 -228.5t57 -278.5t-57 -278.5t-153 -228.5t-228.5 -153t-278.5 -57t-278.5 57t-228.5 153t-153 228.5t-57 278.5t57 278.5t153 228.5t228.5 153t278.5 57zM216 717q0 -147 72.5 -271t196.5 -196t271 -72q110 0 209.5 42.5
t172 115t115 172t42.5 209.5t-42.5 209.5t-115 172t-172 115t-209.5 42.5q-147 0 -271 -72t-196.5 -196t-72.5 -271zM758 1133q67 0 115.5 -20.5t76 -58t41.5 -80t20 -98.5q2 -14 -13 -19l-166 -55q-7 -3 -16 3q-8 5 -8 13q-7 109 -49 109q-13 0 -22 -8.5t-14.5 -26.5
t-9 -34.5t-4.5 -46t-1.5 -46.5t-0.5 -48t0.5 -48t1.5 -46.5t4.5 -46t9 -34.5t14.5 -26.5t22 -8.5q42 0 49 109q0 9 8 14t16 2l166 -54q15 -5 13 -20q-6 -56 -20 -98.5t-41.5 -80.5t-76 -58t-115.5 -20q-53 0 -95 14.5t-68.5 34.5t-45.5 57t-28 66t-14 80t-5.5 79t-0.5 81v4
v4q0 53 0.5 81t5.5 79t14 80t28 66t45.5 57t68.5 34.5t95 14.5z" />
    <glyph glyph-name="guillemotleft" unicode="&#xab;" horiz-adv-x="817" 
d="M590 1168q8 13 23 13h145q14 0 22 -13t0 -26l-238 -412q-8 -13 0 -26l238 -412q8 -13 0 -26q-8 -12 -22 -12h-145q-15 0 -23 12l-252 438q-8 13 0 26zM283 1168q8 13 22 13h145q15 0 23 -13t0 -26l-238 -412q-8 -13 0 -26l238 -412q8 -13 0 -26q-7 -12 -23 -12h-145
q-15 0 -22 12l-253 438q-8 13 0 26z" />
    <glyph glyph-name="softhyphen" unicode="&#xad;" horiz-adv-x="0" 
 />
    <glyph glyph-name="registered" unicode="&#xae;" horiz-adv-x="1513" 
d="M39 717q0 146 57 278.5t153 228.5t228.5 153t278.5 57t278.5 -57t228.5 -153t153 -228.5t57 -278.5t-57 -278.5t-153 -228.5t-228.5 -153t-278.5 -57t-278.5 57t-228.5 153t-153 228.5t-57 278.5zM704 735q0 -7 5.5 -12.5t13.5 -5.5h33q12 0 21.5 3.5t15 11t9 14t4.5 19
t1.5 18.5t0 21t-0.5 18t0.5 18t0 21t-1.5 18.5t-4.5 19t-9 14t-15 11t-21.5 3.5h-33q-8 0 -13.5 -5.5t-5.5 -12.5v-174zM498 1115q0 8 5.5 13.5t12.5 5.5h240q68 0 119 -25t80.5 -69.5t43.5 -98.5t14 -118q0 -160 -78 -242q-7 -7 -4 -17l75 -239q2 -7 -3 -16q-5 -8 -14 -8
h-173q-14 0 -17 13l-58 185q-3 12 -18 12q-8 0 -13.5 -5.5t-5.5 -12.5v-174q0 -7 -5 -12.5t-13 -5.5h-170q-8 0 -13 5.5t-5 12.5v796zM756 178q110 0 209.5 42.5t172 115t115 172t42.5 209.5t-42.5 209.5t-115 172t-172 115t-209.5 42.5q-147 0 -271 -72t-196.5 -196
t-72.5 -271t72.5 -271t196.5 -196t271 -72z" />
    <glyph glyph-name="overscore" unicode="&#xaf;" horiz-adv-x="704" 
d="M63 1256q-11 0 -18.5 8t-7.5 18v126q0 10 7.5 18t18.5 8h577q10 0 18 -8t8 -18v-126q0 -10 -8 -18t-18 -8h-577z" />
    <glyph glyph-name="degree" unicode="&#xb0;" horiz-adv-x="710" 
d="M354 989q56 0 95 39.5t39 94.5t-39 94t-95 39t-95 -39t-39 -94t39 -94.5t95 -39.5zM43 1123q0 129 91 220t220 91t220.5 -91t91.5 -220t-91.5 -220.5t-220.5 -91.5t-220 91.5t-91 220.5z" />
    <glyph glyph-name="plusminus" unicode="&#xb1;" horiz-adv-x="874" 
d="M807 366q10 0 17.5 -7.5t7.5 -18.5v-126q0 -11 -7 -18.5t-18 -7.5h-740q-11 0 -18.5 8t-7.5 18v126q0 10 7.5 18t18.5 8h740zM322 761v1h-255q-11 0 -18.5 8t-7.5 18v125q0 11 7.5 18.5t18.5 7.5h255q10 0 18 7.5t8 18.5v255q0 10 8 18t18 8h126q10 0 17.5 -7.5
t7.5 -18.5v-255q0 -11 7.5 -18.5t18.5 -7.5h256q10 0 17.5 -7.5t7.5 -18.5v-126q0 -11 -7.5 -18.5t-17.5 -7.5h-256q-11 0 -18.5 -7.5t-7.5 -17.5v-256q0 -11 -7.5 -18.5t-17.5 -7.5h-126q-10 0 -18 8t-8 18v256q0 10 -7.5 17.5t-18.5 7.5z" />
    <glyph glyph-name="twosuperior" unicode="&#xb2;" horiz-adv-x="575" 
d="M527 679q0 -7 -5 -12t-12 -5h-446q-7 0 -12 5t-5 12v174q0 57 30 103t72.5 75t84.5 54t72 52t30 56q0 24 -13.5 37t-34.5 13t-34 -13.5t-13 -36.5v-1l-2 -20q0 -8 -7 -13q-8 -5 -15 -2l-158 51q-12 3 -12 16q4 98 72 154t169 56q105 0 172 -64t67 -179
q0 -59 -22.5 -106.5t-58.5 -77.5t-71.5 -51.5t-72 -41t-50.5 -33.5q-9 -9 -4 -18q5 -10 16 -10h246q7 0 12 -5t5 -12v-157z" />
    <glyph glyph-name="threesuperior" unicode="&#xb3;" horiz-adv-x="571" 
d="M43 871q0 13 12 18l158 51q8 3 15 -2t7 -13l2 -21v-1q0 -23 13 -36t34 -13t34.5 13t13.5 37q0 25 -13 48.5t-35 23.5h-54q-7 0 -12 5t-5 12v111q0 7 5 12t12 5h54q22 0 35 23.5t13 48.5q0 24 -13.5 37.5t-34.5 13.5t-34 -13.5t-13 -36.5v-1l-2 -20q0 -9 -7 -14
q-8 -5 -15 -2l-158 51q-12 3 -12 17q4 98 72 153.5t169 55.5q108 0 175 -61t64 -182q-1 -53 -41 -92.5t-107 -39.5q-7 0 -7 -11t7 -11q63 0 105.5 -40.5t42.5 -91.5q0 -115 -67 -179t-172 -64q-101 0 -169 55.5t-72 153.5z" />
    <glyph glyph-name="acute" unicode="&#xb4;" horiz-adv-x="235" 
d="M71 1397q1 12 15 19q11 6 24 -1l75 -43q19 -10 12 -31l-60 -173q-7 -18 -25 -18h-49q-13 0 -20 9t-6 21z" />
    <glyph glyph-name="paragraph" unicode="&#xb6;" horiz-adv-x="1869" 
d="M585 1611h1150q14 0 23.5 -9.5t9.5 -22.5v-290q0 -13 -10 -23t-23 -10h-102q-14 0 -23.5 -9.5t-9.5 -22.5v-1370q0 -13 -9 -22t-22 -9h-292q-13 0 -22.5 9t-9.5 22v1370q0 14 -9.5 23t-22.5 9h-112q-14 0 -23.5 -9.5t-9.5 -22.5v-1370q0 -13 -9 -22t-22 -9h-293
q-13 0 -22 9t-9 22v737q0 14 -9.5 23.5t-22.5 9.5h-96q-130 0 -241.5 65t-176.5 176t-65 242q0 138 61 253t172 183t250 68z" />
    <glyph glyph-name="periodcentered" unicode="&#xb7;" horiz-adv-x="434" 
d="M216 895q74 0 126 -52.5t52 -125.5t-52.5 -125t-125.5 -52t-125 52t-52 125t52 125.5t125 52.5z" />
    <glyph glyph-name="cedilla" unicode="&#xb8;" horiz-adv-x="153" 
d="M25 35q0 5 3 6q2 3 6 3l77 -1q8 0 8 -8q2 -34 36 -70t34 -69q0 -57 -32.5 -87.5t-84.5 -30.5q-49 0 -82 27t-35 75q0 6 6 8l77 25q2 1 7 -1q3 -2 3 -6l1 -10v-1q0 -24 23 -24t23 25q0 14 -10.5 27.5t-23 24.5t-24 34t-12.5 53z" />
    <glyph glyph-name="onesuperior" unicode="&#xb9;" horiz-adv-x="370" 
d="M125 1226q0 7 -5 12t-12 5h-52q-9 0 -14 8q-6 9 -1 17l80 157q5 9 15 9h164q7 0 11.5 -5t4.5 -12v-738q0 -7 -4.5 -12t-11.5 -5h-158q-7 0 -12 5t-5 12v547z" />
    <glyph glyph-name="guillemotright" unicode="&#xbb;" horiz-adv-x="817" 
d="M581 704q8 12 0 26l-237 412q-8 13 0 26t22 13h145q14 0 22 -13l253 -438q8 -12 0 -25l-253 -438q-8 -13 -22 -13h-145q-14 0 -22 13t0 25zM274 704q8 12 0 26l-238 412q-8 13 0 26t23 13h145q14 0 22 -13l253 -438q8 -12 0 -25l-253 -438q-8 -13 -22 -13h-145
q-15 0 -23 13t0 25z" />
    <glyph glyph-name="onequarter" unicode="&#xbc;" horiz-adv-x="1456" 
d="M189 1226q0 7 -5 12t-12 5h-53q-9 0 -14 8q-6 9 -1 17l80 157q4 9 15 9h164q7 0 12 -5t5 -12v-738q0 -7 -5 -12t-12 -5h-158q-7 0 -11.5 5t-4.5 12v547zM1094 576q0 9 -8 11q-10 2 -12 -6l-69 -258q-2 -10 2 -15q4 -6 14 -6h57q7 0 11.5 5t4.5 12v257zM1094 141
q0 7 -4.5 12t-11.5 5h-253q-7 0 -12 4.5t-5 11.5v125q0 4 1 6l187 457q6 11 15 11h258q7 0 11.5 -5t4.5 -12v-438q0 -7 5 -11.5t12 -4.5h35q7 0 12 -5t5 -12v-111q0 -7 -5 -12t-12 -5h-35q-7 0 -12 -4.5t-5 -11.5v-124q0 -7 -4.5 -12t-11.5 -5h-158q-7 0 -12 5t-5 12v124z
M741 1415q5 19 25 19h124q13 0 20 -10q8 -10 5 -23l-371 -1381q-5 -20 -25 -20h-124q-12 0 -20 11q-7 9 -4 22z" />
    <glyph glyph-name="onehalf" unicode="&#xbd;" horiz-adv-x="1357" 
d="M189 1226q0 7 -5 12t-12 5h-53q-9 0 -14 8q-6 9 -1 17l80 157q4 9 15 9h164q7 0 12 -5t5 -12v-738q0 -7 -5 -12t-12 -5h-157q-7 0 -12 5t-5 12v547zM1321 17q0 -7 -5 -12t-12 -5h-446q-7 0 -12 5t-5 12v174q0 57 30 103t72.5 75t84.5 54t72 52t30 56q0 24 -13.5 37
t-34.5 13t-34.5 -13t-13.5 -36v-1l-1 -21q0 -7 -7 -12q-8 -6 -15 -3l-158 51q-12 3 -12 17q4 98 72 154t169 56q105 0 172 -64t67 -179q0 -59 -22.5 -106.5t-58.5 -77.5t-71.5 -51.5t-72 -41t-50.5 -33.5q-9 -9 -4 -18q5 -10 16 -10h246q7 0 12 -5t5 -12v-158zM741 1415
q5 19 25 19h124q13 0 20 -10q8 -10 5 -23l-371 -1381q-5 -20 -25 -20h-124q-12 0 -20 11q-7 9 -4 22z" />
    <glyph glyph-name="threequarters" unicode="&#xbe;" horiz-adv-x="1558" 
d="M102 871q0 11 12 18l159 51q7 3 14 -2t7 -13l2 -20v-1q0 -23 13 -36.5t34 -13.5t34.5 13t13.5 37q0 25 -13 49t-35 24h-54q-16 0 -16 16v111q0 7 4.5 12t11.5 5h54q22 0 35 23.5t13 48.5q0 24 -13.5 37t-34.5 13t-34 -13t-13 -36v-1l-2 -21q0 -8 -7 -13t-14 -2l-159 51
q-12 3 -12 17q4 98 72 153.5t169 55.5q108 0 175 -61t64 -182q-1 -53 -41 -92.5t-107 -39.5q-6 0 -6 -11t6 -11q63 0 105.5 -40.5t42.5 -91.5q0 -115 -67 -179t-172 -64q-101 0 -169 55.5t-72 153.5zM1196 576q0 9 -9 11q-10 2 -12 -6l-70 -258q-2 -9 3 -15q4 -6 14 -6h57
q7 0 12 5t5 12v257zM1196 141q0 7 -5 12t-12 5h-253q-7 0 -12 4.5t-5 11.5v125q0 4 1 6l187 457q4 11 16 11h257q7 0 12 -5t5 -12v-438q0 -16 16 -16h36q7 0 11.5 -5t4.5 -12v-111q0 -7 -4.5 -12t-11.5 -5h-36q-16 0 -16 -16v-124q0 -7 -5 -12t-12 -5h-158q-7 0 -11.5 5
t-4.5 12v124zM842 1415q5 19 25 19h124q14 0 21 -10q7 -9 4 -23l-370 -1381q-5 -20 -25 -20h-124q-13 0 -21 11q-7 9 -4 22z" />
    <glyph glyph-name="questiondown" unicode="&#xbf;" horiz-adv-x="1007" 
d="M280 1081q0 73 52 125.5t126 52.5q73 0 125 -52t52 -126q0 -73 -51.5 -125t-125.5 -52q-73 0 -125.5 52t-52.5 125zM12 276q0 69 26 124.5t63.5 95.5t76 80.5t67.5 98.5t34 129q1 12 10 20.5t21 8.5l293 5q14 0 23 -9t9 -23q-4 -95 -33.5 -170t-68 -120t-76.5 -82
t-64 -76.5t-26 -84.5q0 -44 25 -68.5t64 -24.5t64 24t25 68v2l2 37q0 15 13 25q12 9 28 4l294 -95q23 -7 21 -31q-9 -182 -134 -285.5t-313 -103.5q-195 0 -319.5 118.5t-124.5 332.5z" />
    <glyph glyph-name="Agrave" unicode="&#xc0;" horiz-adv-x="913" 
d="M481 1056q-2 22 -25 22q-22 0 -24 -22l-31 -484q0 -14 8 -23q10 -10 23 -10h48q14 0 23 10q8 9 8 23zM377 1695q-7 21 12 31l75 43q13 7 24 1q13 -6 14 -19l35 -217q1 -11 -7 -21q-8 -9 -19 -9h-50q-17 0 -24 18zM896 34q2 -14 -7 -24t-24 -10h-287q-12 0 -21.5 8.5
t-10.5 20.5l-8 126q-1 12 -10 20.5t-21 8.5h-101q-12 0 -21 -8.5t-10 -20.5l-9 -126q-1 -12 -10 -20.5t-21 -8.5h-287q-15 0 -24 10t-7 24l152 1372q1 12 10 19.5t21 7.5h513q12 0 21 -7.5t10 -19.5z" />
    <glyph glyph-name="Aacute" unicode="&#xc1;" horiz-adv-x="913" 
d="M481 1056q-2 22 -25 22q-22 0 -24 -22l-31 -484q0 -12 9 -23q10 -10 22 -10h48q14 0 23 10q10 12 9 23zM524 1726q19 -10 12 -31l-60 -173q-7 -18 -25 -18h-49q-12 0 -20 9t-6 21l34 217q1 12 15 19q11 6 24 -1zM896 34q2 -14 -7 -24t-24 -10h-287q-12 0 -21.5 8.5
t-10.5 20.5l-8 126q-1 12 -10 21t-21 9h-101q-12 0 -21 -9t-10 -21l-9 -126q-1 -12 -10 -20.5t-21 -8.5h-287q-15 0 -24 10t-7 24l152 1372q1 12 10 19.5t21 7.5h513q12 0 21 -7.5t10 -19.5z" />
    <glyph glyph-name="Acircumflex" unicode="&#xc2;" horiz-adv-x="913" 
d="M481 1056q-2 22 -25 22q-22 0 -24 -22l-31 -484q0 -14 8 -23q10 -10 23 -10h48q14 0 23 10q9 11 8 23zM622 1540q5 -13 -3 -24q-9 -12 -21 -12h-81q-23 0 -25 20l-11 126q-2 19 -25 19t-25 -19l-10 -126q-2 -20 -25 -20h-81q-13 0 -22 12q-8 12 -2 24l90 215q7 18 24 18
h50h2h50q18 0 25 -18zM896 34q2 -14 -7 -24t-24 -10h-287q-12 0 -21 8.5t-10 20.5l-9 126q-1 12 -10 21t-21 9h-101q-12 0 -21 -9t-10 -21l-9 -126q-1 -12 -10 -20.5t-21 -8.5h-287q-15 0 -24 10t-7 24l152 1372q1 12 10 19.5t21 7.5h513q12 0 21 -7.5t10 -19.5z" />
    <glyph glyph-name="Atilde" unicode="&#xc3;" horiz-adv-x="913" 
d="M481 1056q-2 22 -25 22q-22 0 -24 -22l-31 -484q-1 -12 8 -23q10 -10 23 -10h48q14 0 23 10q9 11 9 23zM192 1574q-18 -8 -31 5q-14 12 -5 31q26 51 62 77t75 27t84 -7.5t89 -27t90.5 -31.5t87.5 -20t80 6q18 5 29 -8q12 -13 4 -29q-23 -50 -55 -72.5t-68.5 -20.5t-77 16
t-86 32.5t-90 32t-94.5 12.5t-94 -23zM896 34q2 -14 -7 -24t-24 -10h-287q-12 0 -21 8.5t-10 20.5l-9 126q-1 12 -10 21t-21 9h-101q-12 0 -21 -9t-10 -21l-9 -126q-1 -12 -10 -20.5t-21 -8.5h-287q-15 0 -24 10t-7 24l152 1372q1 12 10 19.5t21 7.5h513q12 0 21 -7.5
t10 -19.5z" />
    <glyph glyph-name="Adieresis" unicode="&#xc4;" horiz-adv-x="913" 
d="M481 1056q-2 22 -25 22q-22 0 -24 -22l-31 -484q0 -14 8 -23q10 -10 23 -10h48q14 0 23 10q9 11 9 23zM258 1504q-73 0 -125.5 52.5t-52.5 125.5t52.5 125t125.5 52t125 -52t52 -125t-52 -125.5t-125 -52.5zM478 1682q0 73 52 125t125 52t125.5 -52t52.5 -125
t-52.5 -125.5t-125.5 -52.5t-125 52.5t-52 125.5zM896 34q2 -14 -7 -24t-24 -10h-287q-12 0 -21 8.5t-10 20.5l-9 126q-1 12 -10 20.5t-21 8.5h-101q-12 0 -21 -8.5t-10 -20.5l-9 -126q-1 -12 -10 -20.5t-21 -8.5h-287q-15 0 -24 10t-7 24l151 1372q1 12 10.5 19.5t21.5 7.5
h513q12 0 21 -7.5t10 -19.5z" />
    <glyph glyph-name="Aring" unicode="&#xc5;" horiz-adv-x="913" 
d="M744 1406l152 -1371q2 -15 -7 -25t-24 -10h-287q-12 0 -21 8.5t-10 20.5l-9 126q-1 12 -10 21t-21 9h-101q-12 0 -21 -9t-10 -21l-9 -126q-1 -12 -10 -20.5t-21 -8.5h-287q-15 0 -24 10t-7 25l152 1371q2 12 10.5 20t20.5 8h513q12 0 20.5 -8t10.5 -20zM503 549
q9 11 8 24l-30 483q-1 10 -8 16.5t-17 6.5q-22 0 -24 -23l-31 -483q0 -15 8 -24q10 -10 23 -10h48q14 0 23 10zM456 1505q-70 0 -118.5 48.5t-48.5 118.5q0 69 49 118.5t118 49.5q70 0 119 -49.5t49 -118.5q0 -70 -49 -118.5t-119 -48.5zM456 1757q-35 0 -59.5 -25
t-24.5 -60t24.5 -59.5t59.5 -24.5t60 24.5t25 59.5t-25 60t-60 25z" />
    <glyph glyph-name="AE" unicode="&#xc6;" horiz-adv-x="1402" 
d="M481 539v517q-2 22 -25 22q-22 0 -24 -22l-31 -484q0 -14 8 -23q10 -10 23 -10h49zM200 1433h1137q13 0 22 -9t9 -22v-292q0 -13 -9 -22.5t-22 -9.5h-470q-13 0 -22 -9t-9 -22v-122q0 -13 9 -22t22 -9h362q13 0 22 -9t9 -22v-293q0 -13 -9 -22t-22 -9h-362q-13 0 -22 -9
t-9 -22v-122q0 -13 9 -22t22 -9h470q13 0 22 -9.5t9 -22.5v-292q0 -13 -9 -22t-22 -9h-825q-13 0 -22 9t-9 22v154h-75q-12 0 -21 -9t-10 -21l-9 -126q-1 -12 -10 -20.5t-21 -8.5h-287q-15 0 -24 10t-7 24l152 1372q1 12 10 19.5t21 7.5z" />
    <glyph glyph-name="Ccedilla" unicode="&#xc7;" horiz-adv-x="931" 
d="M35 719v4q0 71 0.5 108.5t4.5 107t11.5 109.5t22.5 99.5t37 95t55.5 76.5t77 63.5t103.5 37.5t132 15q93 0 165.5 -24t119 -64t78.5 -99t47.5 -119.5t23.5 -136.5q2 -25 -21 -33l-288 -94q-15 -5 -27 4q-13 9 -14 24q-13 188 -85 188q-16 0 -29 -8t-22 -26.5t-15.5 -36.5
t-10.5 -49.5t-6.5 -54t-3.5 -61t-1 -60v-61.5v-5v-5v-61.5t1 -60t3.5 -61t6.5 -54t10.5 -49.5t15.5 -36.5t22 -26.5t29 -8q72 0 85 187q2 16 14 24t27 3l288 -93q24 -9 21 -33q-7 -72 -21.5 -130t-43.5 -115t-70 -97t-105.5 -67t-146.5 -33q6 -16 35.5 -48.5t29.5 -64.5
q0 -56 -32.5 -87t-83.5 -31q-50 0 -83 27.5t-35 74.5q0 6 6 8l77 25q2 1 7 -1q4 -2 4 -6v-10q0 -24 23 -24q24 0 24 24q0 16 -13.5 30t-30.5 34.5t-23 48.5q-82 6 -146.5 34.5t-105.5 64.5t-70 100t-43 113t-21.5 133.5t-8.5 131.5t-1 134v5z" />
    <glyph glyph-name="Egrave" unicode="&#xc8;" horiz-adv-x="983" 
d="M426 1695q-7 21 11 31l75 43q14 7 25 1q13 -6 14 -19l35 -217q2 -12 -6 -21t-20 -9h-50q-17 0 -24 18zM61 1402q0 13 9.5 22t22.5 9h824q13 0 22.5 -9t9.5 -22v-292q0 -13 -9.5 -22.5t-22.5 -9.5h-469q-13 0 -22.5 -9t-9.5 -22v-122q0 -13 9.5 -22t22.5 -9h361
q13 0 22.5 -9t9.5 -22v-293q0 -13 -9.5 -22t-22.5 -9h-361q-13 0 -22.5 -9t-9.5 -22v-122q0 -13 9.5 -22t22.5 -9h469q13 0 22.5 -9.5t9.5 -22.5v-292q0 -13 -9.5 -22t-22.5 -9h-824q-13 0 -22.5 9t-9.5 22v1371z" />
    <glyph glyph-name="Eacute" unicode="&#xc9;" horiz-adv-x="983" 
d="M584 1695l-60 -173q-7 -18 -24 -18h-50q-12 0 -19 9t-6 21l34 217q1 12 15 19q11 6 24 -1l75 -43q18 -10 11 -31zM61 1402q0 13 9.5 22t22.5 9h824q13 0 22.5 -9t9.5 -22v-292q0 -13 -9.5 -22.5t-22.5 -9.5h-469q-13 0 -22.5 -9t-9.5 -22v-122q0 -13 9.5 -22t22.5 -9h361
q13 0 22.5 -9t9.5 -22v-293q0 -13 -9.5 -22t-22.5 -9h-361q-13 0 -22.5 -9t-9.5 -22v-122q0 -13 9.5 -22t22.5 -9h469q13 0 22.5 -9.5t9.5 -22.5v-292q0 -13 -9.5 -22t-22.5 -9h-824q-13 0 -22.5 9t-9.5 22v1371z" />
    <glyph glyph-name="Ecircumflex" unicode="&#xca;" horiz-adv-x="983" 
d="M670 1540q5 -13 -1 -24q-9 -12 -22 -12h-81q-23 0 -25 20l-11 126q-2 19 -25 19t-25 -19l-10 -126q-1 -9 -9 -14.5t-17 -5.5h-81q-12 0 -21 12q-8 11 -3 24l90 215q7 18 25 18h50h1h51q17 0 24 -18zM61 1402q0 13 9.5 22t22.5 9h824q13 0 22.5 -9t9.5 -22v-292
q0 -13 -9.5 -22.5t-22.5 -9.5h-469q-13 0 -22.5 -9t-9.5 -22v-122q0 -13 9.5 -22t22.5 -9h361q13 0 22.5 -9t9.5 -22v-293q0 -13 -9.5 -22t-22.5 -9h-361q-13 0 -22.5 -9t-9.5 -22v-122q0 -13 9.5 -22t22.5 -9h469q13 0 22.5 -9.5t9.5 -22.5v-292q0 -13 -9.5 -22t-22.5 -9
h-824q-13 0 -22.5 9t-9.5 22v1371z" />
    <glyph glyph-name="Edieresis" unicode="&#xcb;" horiz-adv-x="983" 
d="M306 1504q-73 0 -125 52.5t-52 125.5t52 125t125 52t125.5 -52t52.5 -125t-52.5 -125.5t-125.5 -52.5zM526 1682q0 73 52.5 125t125.5 52t125 -52t52 -125t-52 -125.5t-125 -52.5t-125.5 52.5t-52.5 125.5zM61 1402q0 13 9.5 22t22.5 9h824q13 0 22.5 -9t9.5 -22v-292
q0 -13 -9.5 -22.5t-22.5 -9.5h-469q-13 0 -22.5 -9t-9.5 -22v-122q0 -13 9.5 -22t22.5 -9h361q13 0 22.5 -9t9.5 -22v-293q0 -13 -9.5 -22t-22.5 -9h-361q-13 0 -22.5 -9t-9.5 -22v-122q0 -13 9.5 -22t22.5 -9h469q13 0 22.5 -9.5t9.5 -22.5v-292q0 -13 -9.5 -22t-22.5 -9
h-824q-13 0 -22.5 9t-9.5 22v1371z" />
    <glyph glyph-name="Igrave" unicode="&#xcc;" horiz-adv-x="479" 
d="M160 1695q-7 21 11 31l76 43q13 7 24 1q13 -6 14 -19l34 -217q2 -13 -5 -21q-8 -9 -20 -9h-50q-18 0 -25 18zM61 1402q0 13 9.5 22t22.5 9h292q13 0 22 -9t9 -22v-1371q0 -13 -9 -22t-22 -9h-292q-13 0 -22.5 9t-9.5 22v1371z" />
    <glyph glyph-name="Iacute" unicode="&#xcd;" horiz-adv-x="479" 
d="M318 1695l-60 -173q-7 -18 -24 -18h-49q-13 0 -20 9t-6 21l34 217q1 13 14 19q11 6 25 -1l75 -43q18 -10 11 -31zM61 1402q0 13 9.5 22t22.5 9h292q13 0 22 -9t9 -22v-1371q0 -13 -9 -22t-22 -9h-292q-13 0 -22.5 9t-9.5 22v1371z" />
    <glyph glyph-name="Icircumflex" unicode="&#xce;" horiz-adv-x="479" 
d="M405 1540q5 -13 -3 -24q-9 -12 -21 -12h-82q-22 0 -24 20l-11 126q-2 19 -25 19t-25 -19l-11 -126q-2 -20 -25 -20h-81q-13 0 -22 12q-7 10 -2 24l90 215q7 18 25 18h49h2h51q18 0 25 -18zM61 1402q0 13 9.5 22t22.5 9h292q13 0 22 -9t9 -22v-1371q0 -13 -9 -22t-22 -9
h-292q-13 0 -22.5 9t-9.5 22v1371z" />
    <glyph glyph-name="Idieresis" unicode="&#xcf;" horiz-adv-x="479" 
d="M40 1504q-73 0 -125 52.5t-52 125.5t52 125t125 52t125.5 -52t52.5 -125t-52.5 -125.5t-125.5 -52.5zM260 1682q0 73 52.5 125t125.5 52t125 -52t52 -125t-52 -125.5t-125 -52.5t-125.5 52.5t-52.5 125.5zM62 1402q0 13 9 22t22 9h292q13 0 22 -9t9 -22v-1371
q0 -13 -9 -22t-22 -9h-292q-13 0 -22 9t-9 22v1371z" />
    <glyph glyph-name="Ntilde" unicode="&#xd1;" horiz-adv-x="1011" 
d="M241 1574q-17 -8 -31 5t-6 31q26 51 62 77t75 27t84.5 -7.5t89.5 -27t90.5 -31.5t87.5 -20t80 6q18 5 29 -8q12 -13 4 -29q-23 -50 -55 -72.5t-68.5 -20.5t-77 16t-86 32.5t-90 32t-94.5 12.5t-94 -23zM61 1402q0 13 9 22t22 9h301q25 0 30 -21l128 -503q1 -8 8.5 -12.5
t15.5 -2.5q18 3 18 22l1 486q0 13 9 22t22 9h292q13 0 22 -9t9 -22v-1371q0 -13 -9 -22t-22 -9h-300q-25 0 -30 22l-128 502q-5 18 -24 15t-19 -22v-486q0 -13 -9 -22t-22 -9h-292q-13 0 -22.5 9t-9.5 22v1371z" />
    <glyph glyph-name="Ograve" unicode="&#xd2;" horiz-adv-x="958" 
d="M478 355q17 0 30.5 10t22.5 28.5t16 40t10.5 51t6 54t3 56t1 50t0 43t-0.5 29.5q0 54 -0.5 83t-2.5 79.5t-8 79t-15.5 59.5t-25.5 45.5t-37 14.5q-16 0 -29 -8t-22 -26t-15.5 -36t-10.5 -49.5t-6.5 -54t-3.5 -61t-1 -60v-61.5v-5q0 -5 -0.5 -29t-0.5 -43t0.5 -50t3 -56
t6.5 -54t10.5 -51t15.5 -40.5t22.5 -28.5t30.5 -10zM399 1695q-7 21 12 31l74 43q13 7 24 1q14 -7 15 -19l34 -217q2 -13 -5 -21q-7 -9 -20 -9h-50q-17 0 -24 18zM35 717q0 81 1 127.5t6 123t17.5 123t32.5 107.5t53 97.5t78 71t110 50.5t145 16q91 0 162.5 -24t117.5 -58
t78.5 -97t49 -114.5t25 -137.5t10 -139t1.5 -146t-1.5 -146t-10 -139.5t-25 -138t-49 -114t-78.5 -97t-117.5 -58.5t-162.5 -24q-72 0 -131 14.5t-102 36.5t-77 62t-55.5 75.5t-37 94t-23.5 100.5t-12 111t-4.5 110t-0.5 113z" />
    <glyph glyph-name="Oacute" unicode="&#xd3;" horiz-adv-x="958" 
d="M478 355q17 0 30.5 10t22.5 28.5t16 40t10.5 51t6 54t3 56t1 50t0 43t-0.5 29.5q0 54 -0.5 83t-2.5 79.5t-8 79t-15.5 59.5t-25.5 45.5t-37 14.5q-16 0 -29 -8t-22 -26t-15.5 -36t-10.5 -49.5t-6.5 -54t-3.5 -61t-1 -60v-61.5v-5q0 -5 -0.5 -29t-0.5 -43t0.5 -50t3 -56
t6.5 -54t10.5 -51t15.5 -40.5t22.5 -28.5t30.5 -10zM546 1726q18 -10 11 -31l-59 -173q-7 -18 -25 -18h-49q-12 0 -20 9t-6 21l34 217q1 12 15 19q11 6 24 -1zM35 717q0 81 1 127.5t6 123t17.5 123t32.5 107.5t53 97.5t78 71t110 50.5t145 16q91 0 162.5 -24t117.5 -58
t78.5 -97t49 -114.5t25 -137.5t10 -139t1.5 -146q0 -92 -1.5 -146t-10 -139.5t-25 -137.5t-49 -114.5t-79 -97t-117.5 -58.5t-162 -24q-72 0 -131 14.5t-102 36.5t-77 62t-55.5 75.5t-37 94t-23.5 100.5t-12 111t-4.5 110t-0.5 113z" />
    <glyph glyph-name="Ocircumflex" unicode="&#xd4;" horiz-adv-x="958" 
d="M478 355q17 0 30.5 10t22.5 28.5t16 40t10.5 51t6 54t3 56t1 50t0 43t-0.5 29.5q0 54 -0.5 83t-2.5 79.5t-8 79t-15.5 59.5t-25.5 45.5t-37 14.5q-16 0 -29 -8t-22 -26t-15.5 -36t-10.5 -49.5t-6.5 -54t-3.5 -61t-1 -60v-61.5v-5q0 -5 -0.5 -29t-0.5 -43t0.5 -50t3 -56
t6.5 -54t10.5 -51t15.5 -40.5t22.5 -28.5t30.5 -10zM644 1540q5 -14 -2 -24q-9 -12 -22 -12h-81q-23 0 -25 20l-11 126q-2 19 -25 19t-25 -19l-10 -126q-2 -20 -25 -20h-82q-12 0 -21 12q-7 10 -2 24l90 215q7 18 24 18h50h1h51q18 0 25 -18zM35 717q0 81 1 127.5t6 123
t17.5 123t32.5 107.5t53 97.5t78 71t110 50.5t145 16q91 0 162.5 -24t117.5 -58t78.5 -97t49 -114.5t25 -137.5t10 -139t1.5 -146q0 -92 -1.5 -146t-10 -139.5t-25 -137.5t-49 -114.5t-79 -97t-117.5 -58.5t-162 -24q-72 0 -131 14.5t-102 36.5t-77 62t-55.5 75.5t-37 94
t-23.5 100.5t-12 111t-4.5 110t-0.5 113z" />
    <glyph glyph-name="Otilde" unicode="&#xd5;" horiz-adv-x="958" 
d="M478 355q17 0 30.5 10t22.5 28.5t16 40t10.5 51t6 54t3 56t1 50t0 43t-0.5 29.5q0 54 -0.5 83t-2.5 79.5t-8 79t-15.5 59.5t-25.5 45.5t-37 14.5q-16 0 -29 -8t-22 -26t-15.5 -36t-10.5 -49.5t-6.5 -54t-3.5 -61t-1 -60v-61.5v-5q0 -5 -0.5 -29t-0.5 -43t0.5 -50t3 -56
t6.5 -54t10.5 -51t15.5 -40.5t22.5 -28.5t30.5 -10zM214 1574q-17 -8 -31 5q-14 12 -5 31q26 51 62 77t75 27t84.5 -7.5t89.5 -27t90.5 -31.5t87.5 -20t80 6q17 5 28 -8q12 -14 5 -29q-27 -58 -66.5 -79.5t-82.5 -11t-94.5 29t-103.5 39.5t-109 22.5t-110 -23.5zM35 717
q0 81 1 127.5t6 123t17.5 123t32.5 107.5t53 97.5t78 71t110 50.5t145 16q91 0 162.5 -24t117.5 -58t78.5 -97t49 -114.5t25 -137.5t10 -139t1.5 -146t-1.5 -146t-10 -139.5t-25 -138t-49 -114t-78.5 -97t-117.5 -58.5t-162.5 -24q-72 0 -131 14.5t-102 36.5t-77 62
t-55.5 75.5t-37 94t-23.5 100.5t-12 111t-4.5 110t-0.5 113z" />
    <glyph glyph-name="Odieresis" unicode="&#xd6;" horiz-adv-x="958" 
d="M478 355q17 0 30.5 10t22.5 28.5t16 40t10.5 51t6 54t3 56t1 50t0 43t-0.5 29.5q0 54 -0.5 83t-2.5 79.5t-8 79t-15.5 59.5t-25.5 45.5t-37 14.5q-16 0 -29 -8t-22 -26t-15.5 -36t-10.5 -49.5t-6.5 -54t-3.5 -61t-1 -60v-61.5v-5q0 -5 -0.5 -29t-0.5 -43t0.5 -50t3 -56
t6.5 -54t10.5 -51t15.5 -40.5t22.5 -28.5t30.5 -10zM280 1504q-73 0 -125.5 52.5t-52.5 125.5t52.5 125t125.5 52t125 -52t52 -125t-52 -125.5t-125 -52.5zM500 1682q0 73 52 125t125 52t125.5 -52t52.5 -125t-52.5 -125.5t-125.5 -52.5t-125 52.5t-52 125.5zM35 717
q0 81 1 127.5t6 123t17.5 123t32.5 107.5t53 97.5t78 71t110 50.5t145 16q91 0 162.5 -24t117.5 -58t78.5 -97t49 -114.5t25 -137.5t10 -139t1.5 -146q0 -92 -1.5 -146t-10 -139.5t-25 -137.5t-49 -114.5t-79 -97t-117.5 -58.5t-162 -24q-72 0 -131 14.5t-102 36.5t-77 62
t-55.5 75.5t-37 94t-23.5 100.5t-12 111t-4.5 110t-0.5 113z" />
    <glyph glyph-name="multiply" unicode="&#xd7;" horiz-adv-x="747" 
d="M229 699q7 7 7 18t-7 19l-180 180q-7 8 -7 19t7 18l88 89q7 8 18 8t19 -8l181 -181q7 -7 18 -7t18 7l181 181q8 8 18 8t18 -8l89 -89q7 -7 7 -18t-7 -19l-180 -180q-7 -8 -7 -19t7 -18l180 -181q7 -8 7 -18t-7 -18l-89 -89q-8 -7 -18 -7t-18 7l-181 180q-7 7 -18 7
t-18 -7l-181 -180q-8 -7 -19 -7t-18 7l-88 89q-7 8 -7 18t7 18z" />
    <glyph glyph-name="Oslash" unicode="&#xd8;" horiz-adv-x="966" 
d="M438 380q19 -25 44 -25q93 0 90 308zM527 1055q-18 23 -44 23q-28 0 -46.5 -25.5t-27.5 -74.5t-12 -95.5t-3 -111.5zM39 717q0 71 0.5 113t5 110.5t12 111t23 100t37.5 93t55.5 75.5t76.5 62t102.5 36.5t130.5 14.5q118 0 205 -38l8 18q4 8 17 14t27 6h162q14 0 21 -5.5
t3 -14.5l-79 -166q28 -51 45.5 -113t24 -139.5t8.5 -133t2 -144.5q0 -92 -1.5 -146t-10 -139.5t-25 -137.5t-49 -114.5t-79 -97t-117.5 -58.5t-162 -24q-120 0 -204 38l-8 -17q-4 -8 -17 -14.5t-27 -6.5h-162q-13 0 -20.5 6.5t-3.5 14.5l79 166q-36 66 -55 164.5t-22 171.5
t-3 194z" />
    <glyph glyph-name="Ugrave" unicode="&#xd9;" horiz-adv-x="983" 
d="M411 1701q-7 21 12 31l75 43q13 7 24 1q14 -7 15 -19l34 -216q1 -12 -6 -21q-8 -10 -20 -10h-49q-18 0 -25 18zM47 717v686q0 13 9.5 22t22.5 9h292q13 0 22 -9t9 -22v-686q0 -5 -0.5 -29.5t0 -43t1 -50t3 -56t6 -54t10.5 -51t16 -40t22.5 -28.5t30.5 -10t30.5 10
t22.5 28.5t16 40t10.5 51t6 54t3 56t1 50t0 43t-0.5 29.5v686q0 13 9 22t22 9h292q13 0 22 -9t9 -22v-686q0 -72 -0.5 -113t-4.5 -110t-12 -111t-23.5 -100.5t-37 -94t-55.5 -75.5t-77 -62t-102 -36.5t-131 -14.5q-91 0 -162.5 24t-117.5 58.5t-78.5 97t-49 114t-25 138
t-10 139.5t-1.5 146z" />
    <glyph glyph-name="Uacute" unicode="&#xda;" horiz-adv-x="983" 
d="M570 1701l-60 -173q-7 -18 -25 -18h-49q-12 0 -20 10q-8 9 -6 21l34 216q1 12 15 19q11 6 24 -1l75 -43q19 -10 12 -31zM47 717v686q0 13 9.5 22t22.5 9h292q13 0 22 -9t9 -22v-686q0 -5 -0.5 -29.5t0 -43t1 -50t3 -56t6 -54t10.5 -51t16 -40t22.5 -28.5t30.5 -10
t30.5 10t22.5 28.5t15.5 40.5t10.5 51t6.5 54t3 56t0.5 50t-0.5 43t-0.5 29v686q0 13 9.5 22t22.5 9h292q13 0 22 -9t9 -22v-686q0 -93 -1.5 -146t-10 -139.5t-25 -138t-48.5 -114t-78.5 -97t-117.5 -58.5t-162 -24t-162.5 24t-117.5 58.5t-78.5 97t-49 114t-25 138
t-10 139.5t-1.5 146z" />
    <glyph glyph-name="Ucircumflex" unicode="&#xdb;" horiz-adv-x="983" 
d="M656 1546q5 -14 -2 -24q-9 -12 -21 -12h-81q-23 0 -25 20l-11 126q-2 19 -25 19t-25 -19l-10 -126q-1 -9 -9 -14.5t-17 -5.5h-81q-12 0 -21 12q-8 11 -3 24l90 216q7 17 25 17h49h2h51q17 0 24 -17zM47 717v686q0 13 9 22t22 9h293q13 0 22 -9t9 -22v-686
q0 -5 -0.5 -29.5t0 -43t1 -50t3 -56t6 -54t10.5 -51t16 -40t22.5 -28.5t30.5 -10q16 0 29.5 10t22.5 28.5t16 40.5t10.5 51t6 53.5t3 56t1 50t0 43t-0.5 29.5v686q0 13 9.5 22t22.5 9h292q13 0 22 -9t9 -22v-686q0 -93 -1.5 -146t-10 -139.5t-25 -138t-48.5 -114t-78.5 -97
t-117.5 -58.5t-162 -24t-162.5 24t-117.5 58.5t-78.5 97t-49 114t-25 138t-10 139.5t-1.5 146z" />
    <glyph glyph-name="Udieresis" unicode="&#xdc;" horiz-adv-x="983" 
d="M292 1510q-73 0 -125 52.5t-52 125.5t52 125t125 52t125 -52t52 -125t-52 -125.5t-125 -52.5zM512 1688q0 73 52 125t125 52t125.5 -52t52.5 -125t-52.5 -125.5t-125.5 -52.5t-125 52.5t-52 125.5zM47 717v686q0 13 9.5 22t22.5 9h292q13 0 22 -9t9 -22v-686
q0 -5 -0.5 -29.5t0 -43t1 -50t3 -56t6 -54t10.5 -51t16 -40t22.5 -28.5t30.5 -10t30.5 10t22.5 28.5t16 40t10.5 51t6 54t3 56t1 50t0 43t-0.5 29.5v686q0 13 9 22t22 9h292q13 0 22 -9t9 -22v-686q0 -72 -0.5 -113t-4.5 -110t-12 -111t-23.5 -100.5t-37 -94t-55.5 -75.5
t-77 -62t-102 -36.5t-131 -14.5q-91 0 -162.5 24t-117.5 58.5t-78.5 97t-49 114t-25 138t-10 139.5t-1.5 146z" />
    <glyph glyph-name="Yacute" unicode="&#xdd;" horiz-adv-x="884" 
d="M521 1701l-60 -173q-7 -18 -24 -18h-49q-12 0 -20 10q-8 9 -6 21l34 216q1 12 15 19q11 6 24 -1l75 -43q18 -10 11 -31zM266 676q0 3 -2 11q-220 609 -252 706q-5 16 4 28q10 13 26 13h305q12 0 21 -8t10 -20l41 -490q1 -9 8 -15t16 -6q23 0 25 21l41 490q1 12 10 20
t21 8h302q17 0 26 -13t4 -29l-249 -699q-2 -8 -2 -10v-651q0 -13 -9 -22t-22 -9h-293q-13 0 -22 9t-9 22v644z" />
    <glyph glyph-name="germandbls" unicode="&#xdf;" horiz-adv-x="974" 
d="M57 1037q0 173 123.5 285t301.5 112h37q178 0 301.5 -112t123.5 -285q0 -40 -2.5 -70.5t-16.5 -76.5t-38.5 -76.5t-74 -53t-117.5 -22.5q-8 0 -14.5 -5.5t-6.5 -15.5t6.5 -15.5t14.5 -5.5q50 0 89.5 -12t65 -29.5t44 -45t28 -52t15 -57.5t6.5 -54t1 -48
q0 -169 -118.5 -280.5t-291.5 -116.5q-12 0 -23 9q-10 10 -10 23v294q0 24 24 31q28 8 46.5 32t18.5 54v50q0 30 -18.5 54t-46.5 32q-24 7 -24 31v212q0 24 24 31q28 8 46.5 32t18.5 54v50q0 37 -26 63t-63 26t-63 -26t-26 -63v-957q0 -14 -9.5 -23.5t-22.5 -9.5h-291
q-13 0 -22.5 9.5t-9.5 22.5v1005z" />
    <glyph glyph-name="agrave" unicode="&#xe0;" 
d="M563 539q0 82 -23 133.5t-66 51.5q-42 0 -65.5 -51.5t-23.5 -133.5t23.5 -133t65.5 -51q43 0 66 51t23 133zM395 1341q-7 21 12 31l75 43q13 7 24 1q13 -6 14 -19l34 -217q2 -12 -6 -21t-19 -9h-50q-18 0 -24 17zM918 31q0 -13 -9.5 -22t-22.5 -9h-292q-13 0 -22 9t-9 22
v93q0 12 -11 15t-18 -7q-75 -132 -212 -132q-142 0 -216.5 143t-74.5 396q0 254 74.5 397t216.5 143q138 0 213 -132q5 -10 17 -8q11 3 11 15v94q0 13 9 22t22 9h293q13 0 22 -9t9 -22v-1017z" />
    <glyph glyph-name="aacute" unicode="&#xe1;" 
d="M563 539q0 82 -23 133.5t-66 51.5q-42 0 -65 -51.5t-23 -133.5t23 -133t65 -51q43 0 66 51t23 133zM918 31q0 -13 -9 -22t-22 -9h-293q-13 0 -22 9t-9 22v93q0 12 -11 15q-12 3 -17 -7q-75 -132 -213 -132q-142 0 -216.5 143t-74.5 396q0 254 74.5 397t216.5 143
q138 0 213 -132q4 -9 17 -7q11 3 11 14v94q0 13 9 22t22 9h293q13 0 22 -9t9 -22v-1017zM542 1372q19 -10 12 -31l-60 -174q-6 -17 -25 -17h-49q-12 0 -20 9t-6 21l34 217q1 12 15 19q11 6 24 -1z" />
    <glyph glyph-name="acircumflex" unicode="&#xe2;" 
d="M563 539q0 82 -23 133.5t-66 51.5q-42 0 -65.5 -51.5t-23.5 -133.5t23.5 -133t65.5 -51q43 0 66 51t23 133zM918 31q0 -13 -9.5 -22t-22.5 -9h-292q-13 0 -22 9t-9 22v93q0 12 -12 15t-17 -7q-75 -132 -212 -132q-141 0 -216 143t-75 396q0 254 74.5 397t216.5 143
q138 0 213 -132q5 -10 17 -7q11 3 11 14v94q0 13 9 22t22 9h293q13 0 22 -9t9 -22v-1017zM640 1186q5 -14 -2 -24q-9 -12 -22 -12h-81q-23 0 -25 19l-11 127q-2 19 -25 19t-25 -19l-10 -127q-2 -19 -25 -19h-81q-13 0 -22 12q-7 10 -2 24l90 215q7 18 24 18h50h1h51
q18 0 25 -18z" />
    <glyph glyph-name="atilde" unicode="&#xe3;" 
d="M563 539q0 82 -23 133.5t-66 51.5q-42 0 -65 -51.5t-23 -133.5t23 -133t65 -51q43 0 66 51t23 133zM918 31q0 -13 -9 -22t-22 -9h-293q-13 0 -22 9t-9 22v93q0 12 -11 15q-12 3 -17 -7q-75 -132 -213 -132q-141 0 -216 143t-75 396q0 254 74.5 397t216.5 143
q138 0 213 -132q5 -10 17 -7q11 3 11 14v94q0 13 9 22t22 9h293q13 0 22 -9t9 -22v-1017zM210 1219q-18 -8 -31 6q-14 12 -5 31q26 51 62 77t75 27t84 -7.5t89 -27t90.5 -31.5t87.5 -20t80 6q18 5 29 -8q12 -14 4 -30q-23 -50 -55 -72.5t-68.5 -20.5t-77 16t-86 32.5t-90 32
t-94.5 12.5t-94 -23z" />
    <glyph glyph-name="adieresis" unicode="&#xe4;" 
d="M275 1150q-73 0 -125 52t-52 125t52 125.5t125 52.5t125.5 -52.5t52.5 -125.5t-52 -125t-126 -52zM563 539q0 82 -23 133.5t-66 51.5q-42 0 -65.5 -51.5t-23.5 -133.5t23.5 -133t65.5 -51q43 0 66 51t23 133zM918 31q0 -13 -9.5 -22t-22.5 -9h-292q-13 0 -22 9t-9 22v93
q0 12 -11 15q-12 3 -17 -7q-75 -132 -213 -132q-141 0 -216 143t-75 396q0 254 74.5 397t216.5 143q138 0 213 -132q5 -10 17 -7q11 3 11 14v94q0 13 9 22t22 9h292q13 0 22.5 -9t9.5 -22v-1017zM496 1327q0 73 52 125.5t125 52.5t125 -52.5t52 -125.5t-52 -125t-125 -52
t-125 52t-52 125z" />
    <glyph glyph-name="aring" unicode="&#xe5;" 
d="M474 1150q-69 0 -118 49.5t-49 118.5q0 70 48.5 118.5t118.5 48.5q69 0 118.5 -49t49.5 -118t-49 -118.5t-119 -49.5zM474 1402q-35 0 -59.5 -24.5t-24.5 -59.5t24.5 -60t59.5 -25t60 25t25 60t-25 59.5t-60 24.5zM886 1079q13 0 22.5 -9t9.5 -22v-1017q0 -13 -9 -22
t-22 -9h-293q-13 0 -22 9t-9 22v94q0 11 -11 14q-12 3 -17 -7q-75 -132 -213 -132q-142 0 -216.5 143t-74.5 397q0 253 74.5 396t216.5 143q138 0 213 -132q5 -10 17 -7q11 3 11 15v93q0 13 9 22t22 9h292zM474 355q43 0 66 51.5t23 133.5t-23 133t-66 51q-42 0 -65 -51
t-23 -133t23 -133.5t65 -51.5z" />
    <glyph glyph-name="ae" unicode="&#xe6;" horiz-adv-x="1460" 
d="M979 652h54q21 0 29 19t-7 34q-19 19 -49 19q-29 0 -48 -19q-16 -16 -8 -34q8 -19 29 -19zM563 539q0 82 -23 133.5t-66 51.5q-42 0 -65 -51.5t-23 -133.5t23 -133t65 -51q43 0 66 51t23 133zM1007 0h-413q-13 0 -22 9t-9 22v93q0 12 -11 15q-12 3 -17 -7
q-75 -132 -213 -132q-141 0 -216 143t-75 396q0 254 74.5 397t216.5 143q138 0 213 -132q5 -10 17 -7q11 3 11 15v93q0 13 9 22t22 9h413q83 0 148.5 -17.5t109.5 -44.5t75.5 -71t49 -86.5t27.5 -102t12.5 -106t2.5 -109.5q0 -12 -9 -22q-10 -10 -22 -10h-449q-14 0 -23 -10
q-9 -11 -8 -24q12 -121 86 -121q54 0 74 65q5 12 16 18q13 6 24 2l284 -93q12 -4 18 -14.5t3 -22.5q-23 -91 -65.5 -154t-100 -96t-118.5 -46.5t-135 -13.5z" />
    <glyph glyph-name="ccedilla" unicode="&#xe7;" horiz-adv-x="907" 
d="M27 539q0 94 12.5 171t35 132t55 97.5t69.5 68.5t83 42t91 22.5t97 6.5q74 0 135 -13.5t118.5 -46.5t100 -96t65.5 -154q7 -29 -20 -38l-284 -92q-11 -4 -24 2q-11 6 -16 18q-20 65 -75 65q-89 0 -89 -185q0 -105 24.5 -144.5t64.5 -39.5q55 0 75 65q5 12 16 18
q13 6 24 2l284 -93q12 -4 17.5 -14.5t2.5 -22.5q-21 -84 -59 -144.5t-89.5 -94.5t-107 -50t-122.5 -20q6 -16 35 -48t29 -64q0 -56 -32.5 -87t-83.5 -31q-49 0 -82 27t-35 75q0 6 5 8l77 25q3 2 8 -1q3 -1 3 -6l1 -10v-1q0 -24 23 -24t23 24q0 16 -13.5 30.5t-30.5 35
t-23 48.5q-66 5 -120.5 22t-105.5 55.5t-85.5 97t-55.5 150.5t-21 212z" />
    <glyph glyph-name="egrave" unicode="&#xe8;" horiz-adv-x="923" 
d="M443 652h54q21 0 29 19t-7 34q-19 19 -49 19t-49 -19q-15 -15 -7 -34t29 -19zM382 1341q-7 21 11 31l76 43q13 7 24 1q13 -6 14 -19l34 -217q1 -12 -6 -21t-19 -9h-50q-18 0 -24 17zM27 539q0 94 12.5 171t35 132t55 97t69.5 68t83 42.5t91 22.5t97 6q83 0 148.5 -17.5
t109.5 -44.5t75.5 -71t49 -86t27.5 -101.5t12.5 -106t2.5 -109.5q0 -13 -9 -22q-10 -10 -22 -10h-449q-14 0 -23 -10q-9 -11 -8 -24q13 -121 86 -121q55 0 75 65q5 13 15 18q13 6 24 2l285 -93q12 -4 17.5 -14.5t2.5 -22.5q-23 -91 -65.5 -154t-100 -96t-118.5 -46.5
t-135 -13.5q-52 0 -97 6t-91 22.5t-83 42.5t-69.5 68t-55 97t-35 132t-12.5 171z" />
    <glyph glyph-name="eacute" unicode="&#xe9;" horiz-adv-x="923" 
d="M443 652h54q21 0 29 19t-7 34q-19 19 -49 19t-49 -19q-15 -15 -7 -34t29 -19zM529 1372q18 -10 11 -31l-60 -174q-6 -17 -24 -17h-50q-12 0 -19 9t-6 21l34 217q1 13 14 19q11 6 24 -1zM27 539q0 94 12.5 171t35 132t55 97t69.5 68t83 42.5t91 22.5t97 6
q83 0 148.5 -17.5t109.5 -44.5t75.5 -71t49 -86t27.5 -101.5t12.5 -106t2.5 -109.5q0 -13 -9 -22q-10 -10 -22 -10h-449q-14 0 -23 -10q-9 -11 -8 -24q12 -121 86 -121q55 0 75 65q3 12 15 18q13 6 24 2l285 -93q12 -4 17.5 -14.5t2.5 -22.5q-23 -91 -65.5 -154t-100 -96
t-118.5 -46.5t-135 -13.5q-52 0 -97 6t-91 22.5t-83 42.5t-69.5 68t-55 97t-35 132t-12.5 171z" />
    <glyph glyph-name="ecircumflex" unicode="&#xea;" horiz-adv-x="923" 
d="M443 652h54q21 0 29 19t-7 34q-19 19 -49 19t-49 -19q-15 -15 -7 -34t29 -19zM627 1186q5 -13 -3 -24q-9 -12 -22 -12h-81q-23 0 -25 19l-10 127q-2 19 -25 19t-25 -19l-11 -127q-2 -19 -25 -19h-81q-12 0 -21 12q-8 11 -3 24l91 215q7 18 24 18h50h1h51q18 0 25 -18z
M27 539q0 94 12.5 171t35 132t55 97.5t69.5 68.5t83 42t91 22.5t97 6.5q83 0 148.5 -17.5t109.5 -44.5t76 -71t49 -86.5t27 -102t13 -106t3 -109.5q0 -10 -10 -22q-10 -10 -22 -10h-449q-14 0 -23 -10q-9 -11 -8 -24q12 -121 86 -121q55 0 75 65q5 13 15 18q13 6 24 2
l285 -93q12 -4 17.5 -14.5t2.5 -22.5q-23 -91 -65.5 -154t-100 -96t-118.5 -46.5t-135 -13.5q-52 0 -97 6t-91 22.5t-83 42.5t-69.5 68t-55 97t-35 132t-12.5 171z" />
    <glyph glyph-name="edieresis" unicode="&#xeb;" horiz-adv-x="923" 
d="M443 652h54q21 0 29 19t-7 34q-19 19 -49 19t-49 -19q-15 -15 -7 -34t29 -19zM262 1150q-73 0 -125 52t-52 125q0 74 52 126t125 52t125.5 -52.5t52.5 -125.5t-52.5 -125t-125.5 -52zM482 1327q0 73 52.5 125.5t125.5 52.5t125 -52.5t52 -125.5t-51.5 -125t-125.5 -52
t-126 52t-52 125zM27 539q0 94 12.5 171t35 132t55 97.5t69.5 68.5t83 42t91 22.5t97 6.5q83 0 148.5 -17.5t109.5 -44.5t76 -71t49 -86.5t27 -102t13 -106t3 -109.5q0 -10 -10 -22q-10 -10 -22 -10h-449q-14 0 -23 -10q-9 -11 -8 -24q12 -121 86 -121q55 0 75 65
q5 13 15 18q13 6 24 2l285 -93q12 -4 17.5 -14.5t2.5 -22.5q-23 -91 -65.5 -154t-100 -96t-118.5 -46.5t-135 -13.5q-52 0 -97 6t-91 22.5t-83 42.5t-69.5 68t-55 97t-35 132t-12.5 171z" />
    <glyph glyph-name="igrave" unicode="&#xec;" horiz-adv-x="471" 
d="M156 1341q-7 21 11 31l75 43q13 7 24 1q14 -7 15 -19l34 -217q1 -12 -6 -21t-20 -9h-49q-19 0 -25 17zM57 1048q0 13 9 22t22 9h293q13 0 22 -9t9 -22v-1017q0 -13 -9 -22t-22 -9h-292q-13 0 -22.5 9t-9.5 22v1017z" />
    <glyph glyph-name="iacute" unicode="&#xed;" horiz-adv-x="471" 
d="M314 1341l-60 -174q-6 -17 -24 -17h-50q-12 0 -20 9q-7 8 -5 21l34 217q1 13 14 19q11 6 24 -1l76 -43q18 -10 11 -31zM57 1048q0 13 9.5 22t22.5 9h292q13 0 22 -9t9 -22v-1017q0 -13 -9 -22t-22 -9h-292q-13 0 -22.5 9t-9.5 22v1017z" />
    <glyph glyph-name="icircumflex" unicode="&#xee;" horiz-adv-x="471" 
d="M400 1186q5 -14 -2 -24q-9 -12 -22 -12h-81q-23 0 -25 19l-10 127q-2 19 -25 19q-24 0 -26 -19l-10 -127q-2 -19 -25 -19h-81q-13 0 -22 12q-7 10 -2 24l90 215q7 18 25 18h49h2h51q17 0 24 -18zM57 1048q0 13 9.5 22t22.5 9h292q13 0 22 -9t9 -22v-1017q0 -13 -9 -22
t-22 -9h-292q-13 0 -22.5 9t-9.5 22v1017z" />
    <glyph glyph-name="idieresis" unicode="&#xef;" horiz-adv-x="471" 
d="M36 1150q-73 0 -125 52t-52 125t52 125.5t125 52.5t125.5 -52.5t52.5 -125.5t-52 -125t-126 -52zM256 1327q0 73 52.5 125.5t125.5 52.5t125 -52.5t52 -125.5t-52 -125t-125 -52q-74 0 -126 52t-52 125zM58 1048q0 13 9 22t22 9h292q13 0 22.5 -9t9.5 -22v-1017
q0 -13 -9.5 -22t-22.5 -9h-292q-13 0 -22 9t-9 22v1017z" />
    <glyph glyph-name="ntilde" unicode="&#xf1;" horiz-adv-x="989" 
d="M237 1219q-18 -8 -31 6q-14 13 -6 31q26 51 62 77t75 27t84.5 -7.5t89.5 -27t90.5 -31.5t87.5 -20t80 6q18 5 29 -8q12 -14 4 -30q-23 -50 -55 -72.5t-68.5 -20.5t-77 16t-86 32.5t-90 32t-94.5 12.5t-94 -23zM57 1048q0 13 9.5 22t22.5 9h292q13 0 22 -9t9 -22v-93
q0 -12 11 -15q12 -3 17 7q75 132 213 132q142 0 217 -143.5t75 -396.5v-508q0 -13 -9.5 -22t-22.5 -9h-292q-13 0 -22 9t-9 22v508q0 82 -23.5 133.5t-65.5 51.5q-43 0 -66 -51.5t-23 -133.5v-508q0 -13 -9 -22t-22 -9h-292q-13 0 -22.5 9t-9.5 22v1017z" />
    <glyph glyph-name="ograve" unicode="&#xf2;" horiz-adv-x="942" 
d="M470 355q89 0 89 185q0 105 -24.5 144.5t-64.5 39.5t-64 -39.5t-24 -144.5t24 -145t64 -40zM391 1341q-7 21 12 31l75 43q13 7 24 1q13 -6 14 -19l34 -217q2 -13 -5 -21q-7 -9 -20 -9h-50q-18 0 -24 17zM27 539q0 94 12.5 171t35 132t55 97.5t69.5 68.5t83 42t91 22.5
t97 6.5q74 0 134.5 -12.5t120 -48.5t99.5 -95t65 -156.5t25 -227.5t-25 -227.5t-65 -156t-99.5 -94.5t-120 -48.5t-134.5 -12.5q-52 0 -97 6t-91 22.5t-83 42.5t-69.5 68t-55 97t-35 132t-12.5 171z" />
    <glyph glyph-name="oacute" unicode="&#xf3;" horiz-adv-x="942" 
d="M470 355q89 0 89 185q0 105 -24.5 144.5t-64.5 39.5t-64 -39.5t-24 -144.5t24 -145t64 -40zM538 1372q19 -11 12 -31l-60 -174q-6 -17 -25 -17h-49q-12 0 -20 9t-6 21l35 217q1 13 14 19q11 6 24 -1zM27 539q0 94 12.5 171t35 132t55 97.5t69.5 68.5t83 42t91 22.5
t97 6.5q74 0 134.5 -12.5t120 -48.5t99.5 -95t65 -156.5t25 -227.5t-25 -227.5t-65 -156t-99.5 -94.5t-120 -48.5t-134.5 -12.5q-52 0 -97 6t-91 22.5t-83 42.5t-69.5 68t-55 97t-35 132t-12.5 171z" />
    <glyph glyph-name="ocircumflex" unicode="&#xf4;" horiz-adv-x="942" 
d="M470 355q89 0 89 185q0 105 -24.5 144.5t-64.5 39.5t-64.5 -39.5t-24.5 -144.5q0 -185 89 -185zM636 1186q5 -12 -2 -24q-9 -12 -22 -12h-81q-23 0 -25 19l-10 127q-2 19 -26 19q-23 0 -25 -19l-10 -127q-2 -19 -25 -19h-81q-13 0 -22 12q-7 10 -2 24l90 215q7 18 24 18
h50h1h51q18 0 25 -18zM27 539q0 94 12.5 171t35 132t55 97.5t69.5 68.5t83 42t91 22.5t97 6.5q74 0 134.5 -12.5t120 -48.5t99.5 -95t65 -156.5t25 -227.5t-25 -227.5t-65 -156t-99.5 -94.5t-120 -48.5t-134.5 -12.5q-52 0 -97 6t-91 22.5t-83 42.5t-69.5 68t-55 97t-35 132
t-12.5 171z" />
    <glyph glyph-name="otilde" unicode="&#xf5;" horiz-adv-x="942" 
d="M470 355q89 0 89 185q0 105 -24.5 144.5t-64.5 39.5t-64.5 -39.5t-24.5 -144.5q0 -185 89 -185zM206 1219q-18 -8 -32 6q-13 13 -5 31q26 51 62 77t75 27t84.5 -7.5t89.5 -27t90.5 -31.5t87.5 -20t80 6q18 5 29 -8q12 -14 4 -30q-23 -50 -55 -72.5t-68.5 -20.5t-77 16
t-86 32.5t-90 32t-94.5 12.5t-94 -23zM27 539q0 94 12.5 171t35 132t55 97.5t69.5 68.5t83 42t91 22.5t97 6.5q74 0 134.5 -12.5t120 -48.5t99.5 -95t65 -156.5t25 -227.5t-25 -227.5t-65 -156t-99.5 -94.5t-120 -48.5t-134.5 -12.5q-52 0 -97 6t-91 22.5t-83 42.5t-69.5 68
t-55 97t-35 132t-12.5 171z" />
    <glyph glyph-name="odieresis" unicode="&#xf6;" horiz-adv-x="942" 
d="M470 355q89 0 89 185q0 105 -24.5 144.5t-64.5 39.5t-64 -39.5t-24 -144.5t24 -145t64 -40zM271 1150q-73 0 -125 52t-52 125t52 125.5t125 52.5t125.5 -52.5t52.5 -125.5t-52 -125t-126 -52zM491 1327q0 73 52.5 125.5t125.5 52.5t125 -52.5t52 -125.5t-52 -125
t-125 -52q-74 0 -126 52t-52 125zM27 539q0 94 12.5 171t35 132t55 97.5t69.5 68.5t83 42t91 22.5t97 6.5q74 0 134.5 -12.5t120 -48.5t99.5 -95t65 -156.5t25 -227.5t-25 -227.5t-65 -156t-99.5 -94.5t-120 -48.5t-134.5 -12.5q-52 0 -97 6t-91 22.5t-83 42.5t-69.5 68
t-55 97t-35 132t-12.5 171z" />
    <glyph glyph-name="divide" unicode="&#xf7;" horiz-adv-x="995" 
d="M102 780q0 10 8 18t18 8h740q10 0 18 -8t8 -18v-125q0 -11 -8 -18.5t-18 -7.5h-740q-10 0 -18 7.5t-8 18.5v125zM321 1106q0 73 52 125t125 52t125.5 -52t52.5 -125t-52.5 -125t-125.5 -52q-74 0 -125.5 51.5t-51.5 125.5zM498 506q74 0 126 -52t52 -126
q0 -73 -52.5 -125t-125.5 -52t-125 52t-52 125q0 74 52 126t125 52z" />
    <glyph glyph-name="oslash" unicode="&#xf8;" horiz-adv-x="954" 
d="M457 357q12 -2 19 -2q85 0 89 165zM495 722q-12 2 -19 2q-84 0 -88 -165zM33 539q0 94 12.5 171t35 132t55 97.5t69.5 68.5t83 42t91 22.5t97 6.5q134 0 225 -44l12 18q7 10 21 18t26 8h143q12 0 15.5 -7.5t-3.5 -18.5l-85 -130q90 -132 90 -384q0 -130 -25 -227.5
t-65 -156t-99.5 -94.5t-120 -48.5t-134.5 -12.5q-133 0 -224 44l-12 -18q-7 -10 -21 -18t-26 -8h-143q-12 0 -16 8t3 18l86 130q-90 132 -90 383z" />
    <glyph glyph-name="ugrave" unicode="&#xf9;" horiz-adv-x="989" 
d="M407 1341q-7 21 12 31l75 43q13 7 24 1q14 -7 15 -19l34 -217q1 -12 -6 -21t-20 -9h-49q-19 0 -25 17zM43 539v509q0 13 9.5 22t22.5 9h292q13 0 22 -9t9 -22v-509q0 -82 23.5 -133t65.5 -51q43 0 65.5 50.5t22.5 133.5v509q0 13 9.5 22t22.5 9h292q13 0 22 -9t9 -22
v-1017q0 -13 -9 -22t-22 -9h-292q-13 0 -22.5 9t-9.5 22v93q0 12 -11 15q-12 3 -17 -7q-75 -132 -213 -132q-142 0 -216.5 143t-74.5 396z" />
    <glyph glyph-name="uacute" unicode="&#xfa;" horiz-adv-x="989" 
d="M566 1341l-60 -174q-6 -17 -24 -17h-50q-12 0 -19 9t-6 21l34 217q1 13 14 19q11 6 24 -1l76 -43q18 -10 11 -31zM43 539v509q0 13 9 22t22 9h293q13 0 22 -9t9 -22v-509q0 -82 23.5 -133t65.5 -51q43 0 65.5 50.5t22.5 133.5v509q0 13 9.5 22t22.5 9h292q13 0 22 -9
t9 -22v-1017q0 -13 -9 -22t-22 -9h-292q-13 0 -22.5 9t-9.5 22v93q0 12 -11 15q-12 3 -17 -7q-75 -132 -212 -132q-142 0 -217 143t-75 396z" />
    <glyph glyph-name="ucircumflex" unicode="&#xfb;" horiz-adv-x="989" 
d="M652 1186q5 -13 -1 -24q-9 -12 -22 -12h-81q-23 0 -25 19l-11 127q-2 19 -25 19t-25 -19l-11 -127q-2 -19 -24 -19h-82q-12 0 -21 12q-8 11 -3 24l91 215q7 18 24 18h49h2h51q17 0 24 -18zM43 539v509q0 13 9 22t22 9h292q13 0 22.5 -9t9.5 -22v-509q0 -82 23 -133
t65 -51q43 0 66 51t23 133v509q0 13 9 22t22 9h293q13 0 22 -9t9 -22v-1017q0 -13 -9 -22t-22 -9h-293q-13 0 -22 9t-9 22v93q0 12 -11 15q-12 3 -17 -7q-75 -132 -213 -132q-142 0 -216.5 143t-74.5 396z" />
    <glyph glyph-name="udieresis" unicode="&#xfc;" horiz-adv-x="989" 
d="M288 1150q-73 0 -125.5 52t-52.5 125t52.5 125.5t125.5 52.5t125 -52.5t52 -125.5t-52 -125t-125 -52zM508 1327q0 73 52 125.5t125 52.5t125.5 -52.5t52.5 -125.5t-52.5 -125t-125.5 -52t-125 52t-52 125zM43 539v509q0 13 9.5 22t22.5 9h292q13 0 22 -9t9 -22v-509
q0 -82 23.5 -133t65.5 -51q43 0 65.5 50.5t22.5 133.5v509q0 13 9.5 22t22.5 9h292q13 0 22 -9t9 -22v-1017q0 -13 -9 -22t-22 -9h-292q-13 0 -22.5 9t-9.5 22v93q0 12 -11 15q-12 3 -17 -7q-75 -132 -213 -132q-142 0 -216.5 143t-74.5 396z" />
    <glyph glyph-name="yacute" unicode="&#xfd;" horiz-adv-x="987" 
d="M565 1341l-60 -174q-6 -17 -24 -17h-50q-11 0 -19 9t-6 21l34 217q1 13 14 19q11 6 24 -1l76 -43q18 -10 11 -31zM575 114v10q0 12 -11 15q-12 3 -17 -7q-75 -132 -213 -132q-142 0 -216.5 143t-74.5 396v509q0 13 9 22t22 9h292q13 0 22.5 -9t9.5 -22v-509
q0 -82 23 -133t65 -51q43 0 66 51t23 133v509q0 13 9 22t22 9h292q13 0 22.5 -9t9.5 -22v-935q0 -130 -25 -227.5t-65 -156t-99.5 -94.5t-120 -48.5t-134.5 -12.5q-139 0 -241 53t-155 186q-5 14 0 25q6 12 19 16l300 98q17 6 30 -6q18 -17 47 -17q89 0 89 185z" />
    <glyph glyph-name="ydieresis" unicode="&#xff;" horiz-adv-x="989" 
d="M288 1150q-74 0 -126 52t-52 125t52.5 125.5t125.5 52.5t125 -52.5t52 -125.5t-51.5 -125t-125.5 -52zM508 1327q0 73 52 125.5t125 52.5t125.5 -52.5t52.5 -125.5t-52.5 -125t-125.5 -52t-125 52t-52 125zM575 114v10q0 12 -11 15q-12 3 -17 -7q-75 -132 -213 -132
q-141 0 -216 143t-75 396v509q0 13 9 22t22 9h293q13 0 22 -9t9 -22v-509q0 -82 23.5 -133t65.5 -51q43 0 65.5 50.5t22.5 133.5v509q0 13 9.5 22t22.5 9h292q13 0 22 -9t9 -22v-935q0 -130 -25 -227.5t-65 -156t-99.5 -94.5t-120 -48.5t-134.5 -12.5q-139 0 -241 53
t-155 186q-5 13 1 25t18 16l300 98q17 6 31 -6q18 -17 46 -17q89 0 89 185z" />
    <glyph glyph-name="Amacron" unicode="&#x100;" horiz-adv-x="913" 
d="M481 1056q-2 22 -24 22q-23 0 -25 -22l-31 -484q-1 -11 9 -23q10 -10 22 -10h49q13 0 22 10q9 11 9 23zM168 1504q-11 0 -18.5 7.5t-7.5 18.5v126q0 10 8 18t18 8h577q11 0 18.5 -8t7.5 -18v-126q0 -10 -7.5 -18t-18.5 -8h-577zM896 34q2 -14 -7 -24t-23 -10h-288
q-12 0 -21 8.5t-10 20.5l-8 126q-1 12 -10.5 20.5t-21.5 8.5h-101q-12 0 -21 -8.5t-10 -20.5l-8 -126q-1 -12 -10.5 -20.5t-21.5 -8.5h-287q-15 0 -24 10t-7 24l152 1372q1 12 10 19.5t21 7.5h513q12 0 21 -7.5t10 -19.5z" />
    <glyph glyph-name="amacron" unicode="&#x101;" 
d="M563 539q0 83 -22.5 134t-65.5 51q-42 0 -65.5 -51.5t-23.5 -133.5t23.5 -133t65.5 -51q43 0 65.5 50.5t22.5 133.5zM918 31q0 -13 -9 -22t-22 -9h-293q-13 0 -22 9t-9 22v93q0 12 -11 15q-12 3 -17 -7q-75 -132 -213 -132q-142 0 -216.5 143t-74.5 396q0 254 74.5 397
t216.5 143q138 0 213 -132q5 -10 17 -7q11 3 11 14v94q0 13 9 22t22 9h293q13 0 22 -9t9 -22v-1017zM186 1150q-10 0 -18 8t-8 18v125q0 11 8 18.5t18 7.5h577q11 0 18.5 -7.5t7.5 -18.5v-125q0 -10 -7.5 -18t-18.5 -8h-577z" />
    <glyph glyph-name="Abreve" unicode="&#x102;" horiz-adv-x="913" 
d="M481 1056q-2 22 -25 22q-22 0 -24 -22l-31 -484q0 -14 8 -23q10 -10 23 -10h48q14 0 23 10q9 11 9 23zM292 1641q-2 13 6 22q7 9 20 9h31q20 0 25 -20q7 -28 30 -46.5t53 -18.5t52.5 18.5t29.5 46.5q5 20 26 20h31q12 0 20 -9q7 -8 5 -22q-11 -59 -57 -97.5t-107 -38.5
t-107.5 38.5t-57.5 97.5zM896 34q2 -14 -7 -24t-24 -10h-287q-12 0 -21 8.5t-10 20.5l-9 126q-1 12 -10 20.5t-21 8.5h-101q-12 0 -21 -8.5t-10 -20.5l-9 -126q-1 -12 -10 -20.5t-21 -8.5h-287q-15 0 -24 10t-7 24l152 1372q1 12 10 19.5t21 7.5h513q12 0 21 -7.5t10 -19.5z
" />
    <glyph glyph-name="abreve" unicode="&#x103;" 
d="M563 539q0 83 -22.5 134t-65.5 51q-42 0 -65.5 -51.5t-23.5 -133.5t23.5 -133t65.5 -51q43 0 65.5 50.5t22.5 133.5zM918 31q0 -13 -9 -22t-22 -9h-293q-13 0 -22 9t-9 22v93q0 12 -11 15q-12 3 -17 -7q-75 -132 -213 -132q-142 0 -216.5 143t-74.5 396q0 254 74.5 397
t216.5 143q138 0 213 -132q5 -10 17 -7q11 3 11 14v94q0 13 9 22t22 9h293q13 0 22 -9t9 -22v-1017zM310 1287q-2 13 5 21q8 10 20 10h32q20 0 25 -20q7 -28 30 -47t53 -19q29 0 52 19t30 47q5 20 25 20h32q12 0 20 -10q7 -8 5 -21q-11 -59 -57 -98t-107 -39t-107.5 39
t-57.5 98z" />
    <glyph glyph-name="Aogonek" unicode="&#x104;" horiz-adv-x="913" 
d="M481 1058q-1 10 -8 16.5t-17 6.5t-17 -6.5t-8 -16.5l-30 -484q-1 -12 8 -23q10 -10 23 -10h48q14 0 23 10q8 9 8 23zM896 36q2 -14 -6 -24q-9 -10 -24 -10h-242q-8 -13 -22.5 -35t-18.5 -29.5t-8.5 -20.5t-4.5 -27q0 -24 24 -24q23 0 23 24v10q0 4 4 6q5 2 7 1l77 -24
q6 -1 6 -9q-2 -47 -35.5 -74t-82.5 -27q-51 0 -83.5 30.5t-32.5 87.5q0 29 9 48t29 44.5t32 45.5v1v1l-8 126q-1 12 -10.5 20.5t-21.5 8.5h-101q-12 0 -21 -8.5t-10 -20.5l-8 -126q-1 -12 -10.5 -20.5t-21.5 -8.5h-287q-15 0 -24 10t-7 24l151 1372q1 12 10 19.5t21 7.5h514
q12 0 21 -7.5t10 -19.5z" />
    <glyph glyph-name="aogonek" unicode="&#x105;" 
d="M563 539q0 82 -23 133.5t-66 51.5q-42 0 -65 -51.5t-23 -133.5t23 -133t65 -51q43 0 66 51t23 133zM563 28v-1v4v93q0 12 -11 15q-12 3 -17 -7q-75 -132 -213 -132q-141 0 -216 143t-75 396q0 254 74.5 397t216.5 143q138 0 213 -132q7 -11 17 -8q11 3 11 15v94
q0 13 9 22t22 9h293q13 0 22 -9t9 -22v-1017q0 -13 -9 -22t-22 -9h-247q-8 -13 -22.5 -35t-18.5 -29.5t-8.5 -20.5t-4.5 -27q0 -24 23 -24q24 0 24 24v10q0 5 4 7q5 2 7 1l77 -25q6 -1 6 -8q-2 -47 -35.5 -74.5t-82.5 -27.5q-51 0 -83.5 31t-32.5 87q0 29 8.5 48.5t29 45
t32.5 45.5z" />
    <glyph glyph-name="Cacute" unicode="&#x106;" horiz-adv-x="931" 
d="M553 1695l-60 -173q-7 -18 -24 -18h-50q-13 0 -20 9t-6 21l35 217q1 13 14 19q12 6 25 -1l75 -43q18 -10 11 -31zM35 717v6q0 71 0.5 108t4.5 106.5t11.5 110t22.5 99.5t37 94t55.5 76.5t77 63.5t103 37t131.5 15q93 0 166 -24t119.5 -64t78.5 -99t47.5 -119.5
t23.5 -136.5q2 -25 -22 -33l-287 -94q-15 -5 -27 4q-13 9 -14 24q-13 187 -85 187q-16 0 -29 -8t-22 -26.5t-15.5 -36.5t-10.5 -49.5t-6.5 -54t-3.5 -61t-1 -60v-61.5v-5v-5v-61.5t1 -60t3.5 -61t6.5 -54t10.5 -49.5t15.5 -36.5t22 -26.5t29 -8q72 0 85 188q1 15 14 24
q12 9 27 4l287 -94q24 -8 22 -33q-8 -76 -23.5 -136.5t-47.5 -119.5t-78.5 -99t-119.5 -64t-166 -24q-72 0 -131.5 15t-103 37.5t-77 63.5t-55.5 76t-37 94.5t-22.5 99.5t-11.5 109.5t-4.5 107t-0.5 108.5v6z" />
    <glyph glyph-name="cacute" unicode="&#x107;" horiz-adv-x="907" 
d="M537 1341l-59 -174q-6 -17 -25 -17h-49q-12 0 -20 9t-6 21l34 217q1 12 15 19q11 6 24 -1l75 -43q18 -10 11 -31zM27 539q0 94 12.5 171t35 132t55 97t69.5 68t83 42.5t91 22.5t97 6q74 0 135 -13.5t118.5 -46.5t100 -96t65.5 -154q3 -12 -2.5 -22.5t-17.5 -14.5
l-285 -93q-11 -4 -24 2q-10 5 -15 19q-20 65 -75 65q-89 0 -89 -185q0 -105 24.5 -144.5t64.5 -39.5q55 0 75 65q5 13 15 18q13 6 24 2l285 -93q12 -4 17.5 -14.5t2.5 -22.5q-23 -91 -65.5 -154t-100 -96t-118.5 -46.5t-135 -13.5q-52 0 -97 6t-91 22.5t-83 42.5t-69.5 68
t-55 97t-35 132t-12.5 171z" />
    <glyph glyph-name="Ccircumflex" unicode="&#x108;" horiz-adv-x="931" 
d="M639 1540q5 -12 -2 -24q-9 -12 -21 -12h-81q-9 0 -17 5.5t-9 14.5l-10 126q-2 19 -25 19t-25 -19l-10 -126q-2 -20 -25 -20h-82q-12 0 -21 12q-8 11 -3 24l90 215q7 18 25 18h50h1h51q17 0 24 -18zM35 717v6q0 71 0.5 108t4.5 106.5t11.5 110t22.5 99.5t37 94t55.5 76.5
t77 63.5t103 37t131.5 15q93 0 166 -24t119.5 -64t78.5 -99t47.5 -119.5t23.5 -136.5q2 -25 -22 -33l-287 -94q-15 -5 -27 4q-13 9 -14 24q-13 187 -85 187q-16 0 -29 -8t-22 -26t-15.5 -36t-10.5 -49.5t-6.5 -54t-3.5 -61t-1 -60v-61.5v-5v-5v-61.5t1 -60t3.5 -61t6.5 -54
t10.5 -49.5t15.5 -36.5t22 -26.5t29 -8q72 0 85 187q1 15 14 24q14 8 27 4l287 -94q25 -9 22 -33q-8 -76 -24 -136.5t-48 -120t-78.5 -99t-119 -63.5t-165.5 -24q-72 0 -131.5 15t-103 37.5t-77 63.5t-55.5 76t-37 94.5t-22.5 99.5t-11.5 109.5t-4.5 107t-0.5 108.5v6z" />
    <glyph glyph-name="ccircumflex" unicode="&#x109;" horiz-adv-x="907" 
d="M624 1186q5 -14 -3 -24q-9 -12 -22 -12h-81q-23 0 -25 19l-10 127q-2 19 -25 19t-25 -19l-11 -127q-2 -19 -25 -19h-81q-13 0 -22 12q-7 10 -2 24l90 215q7 18 25 18h49h2h51q18 0 25 -18zM27 539q0 94 12.5 171t35 132t55 97t69.5 68t83 42.5t91 22.5t97 6
q74 0 135 -13.5t118.5 -46.5t100 -96t65.5 -154q3 -12 -2.5 -22.5t-17.5 -14.5l-285 -93q-11 -4 -24 2q-12 6 -15 19q-20 65 -75 65q-89 0 -89 -185q0 -105 24.5 -144.5t64.5 -39.5q55 0 75 65q5 13 15 18q13 6 24 2l285 -93q12 -4 17.5 -14.5t2.5 -22.5q-23 -91 -65.5 -154
t-100 -96t-118.5 -46.5t-135 -13.5q-52 0 -97 6t-91 22.5t-83 42.5t-69.5 68t-55 97t-35 132t-12.5 171z" />
    <glyph glyph-name="Cdot" unicode="&#x10a;" horiz-adv-x="931" 
d="M474 1504q-73 0 -125.5 52.5t-52.5 125.5t52.5 125t125.5 52t125 -52t52 -125t-52 -125.5t-125 -52.5zM35 717v6q0 71 0.5 108t4.5 106.5t11.5 110t22.5 99.5t37 94t55.5 76.5t77 63.5t103 37t131.5 15q93 0 166 -24t119.5 -64t78.5 -99t47.5 -119.5t23.5 -136.5
q2 -25 -22 -33l-287 -94q-15 -5 -27 4q-14 11 -14 24q-13 187 -85 187q-16 0 -29 -8t-22 -26t-15.5 -36t-10.5 -49.5t-6.5 -54t-3.5 -61t-1 -60v-61.5v-5v-5v-61.5t1 -60t3.5 -61t6.5 -54t10.5 -49.5t15.5 -36.5t22 -26.5t29 -8q72 0 85 187q0 14 14 24q13 8 27 4l287 -94
q24 -8 22 -33q-8 -76 -23.5 -136.5t-47.5 -119.5t-78.5 -99t-119.5 -64t-166 -24q-72 0 -131.5 15t-103 37.5t-77 63.5t-55.5 76t-37 94.5t-22.5 99.5t-11.5 109.5t-4.5 107t-0.5 108.5v6z" />
    <glyph glyph-name="cdot" unicode="&#x10b;" horiz-adv-x="907" 
d="M458 1150q-74 0 -125.5 52t-51.5 125q0 74 52 126t125 52t125.5 -52.5t52.5 -125.5t-52.5 -125t-125.5 -52zM27 539q0 94 12.5 171t35 132t55 97.5t69.5 68.5t83 42t91 22.5t97 6.5q74 0 135 -13.5t118.5 -46.5t100 -96t65.5 -154q7 -29 -20 -38l-285 -92q-11 -4 -23 2
q-13 7 -16 18q-20 65 -75 65q-40 0 -64 -40t-24 -145t24 -144.5t64 -39.5q55 0 75 65q5 12 16 18q12 6 23 2l285 -93q12 -4 17.5 -14.5t2.5 -22.5q-23 -91 -65.5 -154t-100 -96t-118.5 -46.5t-135 -13.5q-52 0 -97 6t-91 22.5t-83 42.5t-69.5 68t-55 97t-35 132t-12.5 171z
" />
    <glyph glyph-name="Ccaron" unicode="&#x10c;" horiz-adv-x="931" 
d="M639 1737l-90 -215q-7 -18 -24 -18h-51h-2h-49q-18 0 -25 18l-90 215q-5 13 3 24q9 12 21 12h81q23 0 25 -19l11 -127q2 -19 25 -19t25 19l10 127q2 19 26 19h81q12 0 21 -12q7 -10 2 -24zM35 717v6q0 71 0.5 108t4.5 106.5t11.5 110t22.5 99.5t37 94t55.5 76.5t77 63.5
t103 37t131.5 15q93 0 166 -24t119.5 -64t78.5 -99t47.5 -119.5t23.5 -136.5q2 -25 -22 -33l-287 -94q-15 -5 -27 4q-13 9 -14 24q-13 187 -85 187q-16 0 -29 -8t-22 -26t-15.5 -36t-10.5 -49.5t-6.5 -54t-3.5 -61t-1 -60v-61.5v-5v-5v-61.5t1 -60t3.5 -61t6.5 -54
t10.5 -49.5t15.5 -36.5t22 -26.5t29 -8q72 0 85 187q1 15 14 24q14 8 27 4l287 -94q24 -8 22 -33q-8 -76 -23.5 -136.5t-47.5 -119.5t-78.5 -99t-119.5 -64t-166 -24q-72 0 -131.5 15t-103 37.5t-77 63.5t-55.5 76t-37 94.5t-22.5 99.5t-11.5 109.5t-4.5 107t-0.5 108.5v6z
" />
    <glyph glyph-name="ccaron" unicode="&#x10d;" horiz-adv-x="907" 
d="M624 1383l-90 -216q-7 -17 -25 -17h-51h-1h-50q-17 0 -24 17l-90 216q-5 14 2 24q9 12 22 12h81q23 0 25 -20l11 -126q2 -19 25 -19t25 19l10 126q2 20 25 20h81q13 0 22 -12q6 -13 2 -24zM27 539q0 94 12.5 171t35 132t55 97t69.5 68t83 42.5t91 22.5t97 6
q74 0 135 -13.5t118.5 -46.5t100 -96t65.5 -154q3 -12 -2.5 -22.5t-17.5 -14.5l-285 -93q-11 -4 -23 2q-11 5 -16 19q-20 65 -75 65q-40 0 -64 -40t-24 -145t24 -144.5t64 -39.5q55 0 75 65q5 12 16 18q12 6 23 2l285 -93q12 -4 17.5 -14.5t2.5 -22.5q-23 -91 -65.5 -154
t-100 -96t-118.5 -46.5t-135 -13.5q-52 0 -97 6t-91 22.5t-83 42.5t-69.5 68t-55 97t-35 132t-12.5 171z" />
    <glyph glyph-name="Emacron" unicode="&#x112;" horiz-adv-x="983" 
d="M216 1504q-10 0 -18 8t-8 18v126q0 10 8 18t18 8h578q10 0 17.5 -7.5t7.5 -18.5v-126q0 -11 -7.5 -18.5t-17.5 -7.5h-578zM61 1402q0 13 9.5 22t22.5 9h824q13 0 22 -9t9 -22v-292q0 -13 -9 -22.5t-22 -9.5h-470q-13 0 -22 -9t-9 -22v-122q0 -13 9 -22t22 -9h362
q13 0 22 -9t9 -22v-293q0 -13 -9 -22t-22 -9h-362q-13 0 -22 -9t-9 -22v-122q0 -13 9 -22t22 -9h470q13 0 22 -9.5t9 -22.5v-292q0 -13 -9 -22t-22 -9h-824q-13 0 -22.5 9t-9.5 22v1371z" />
    <glyph glyph-name="emacron" unicode="&#x113;" horiz-adv-x="923" 
d="M443 652h54q21 0 29 19t-7 34q-19 19 -49 19t-49 -19q-15 -15 -7 -34t29 -19zM173 1150q-11 0 -18.5 8t-7.5 18v125q0 11 7.5 18.5t18.5 7.5h577q10 0 18 -7.5t8 -18.5v-125q0 -10 -8 -18t-18 -8h-577zM27 539q0 94 12.5 171t35 132t55 97t69.5 68t83 42.5t91 22.5t97 6
q83 0 148.5 -17t109.5 -44.5t76 -71.5t49 -86t27 -101.5t13 -106t3 -109.5q0 -13 -9 -22q-10 -10 -23 -10h-448q-15 0 -24 -10t-7 -24q12 -121 85 -121q55 0 75 65q5 12 16 18q12 6 23 2l285 -93q12 -4 17.5 -14.5t2.5 -22.5q-23 -91 -65.5 -154t-100 -96t-118.5 -46.5
t-135 -13.5q-52 0 -97 6t-91 22.5t-83 42.5t-69.5 68t-55 97t-35 132t-12.5 171z" />
    <glyph glyph-name="Ebreve" unicode="&#x114;" horiz-adv-x="983" 
d="M340 1641q-2 13 6 22t20 9h31q20 0 25 -20q7 -28 30 -46.5t53 -18.5t53 18.5t30 46.5q5 20 25 20h31q12 0 20 -9t6 -22q-11 -59 -57.5 -97.5t-107.5 -38.5t-107.5 38.5t-57.5 97.5zM61 1402q0 13 9.5 22t22.5 9h824q13 0 22.5 -9t9.5 -22v-292q0 -13 -9.5 -22.5
t-22.5 -9.5h-469q-13 0 -22.5 -9t-9.5 -22v-122q0 -13 9.5 -22t22.5 -9h361q13 0 22.5 -9t9.5 -22v-293q0 -13 -9.5 -22t-22.5 -9h-361q-13 0 -22.5 -9t-9.5 -22v-122q0 -13 9.5 -22t22.5 -9h469q13 0 22.5 -9.5t9.5 -22.5v-292q0 -13 -9.5 -22t-22.5 -9h-824q-13 0 -22.5 9
t-9.5 22v1371z" />
    <glyph glyph-name="ebreve" unicode="&#x115;" horiz-adv-x="923" 
d="M443 652h54q21 0 29 19t-7 34q-19 19 -49 19t-49 -19q-15 -15 -7 -34t29 -19zM296 1287q-2 12 6 21q8 10 20 10h31q20 0 25 -20q7 -28 30 -47t53 -19t53 19t30 47q5 20 25 20h31q12 0 20 -10q8 -9 6 -21q-11 -59 -57.5 -98t-107.5 -39t-107.5 39t-57.5 98zM27 539
q0 94 12.5 171t35 132t55 97t69.5 68t83 42.5t91 22.5t97 6q83 0 148.5 -17.5t109.5 -44.5t75.5 -71t49 -86t27.5 -101.5t12.5 -106t2.5 -109.5q0 -13 -9 -22q-10 -10 -22 -10h-449q-14 0 -23 -10q-9 -11 -8 -24q13 -121 86 -121q55 0 75 65q5 13 15 18q13 6 24 2l285 -93
q12 -4 17.5 -14.5t2.5 -22.5q-23 -91 -65.5 -154t-100 -96t-118.5 -46.5t-135 -13.5q-52 0 -97 6t-91 22.5t-83 42.5t-69.5 68t-55 97t-35 132t-12.5 171z" />
    <glyph glyph-name="Edot" unicode="&#x116;" horiz-adv-x="983" 
d="M505 1504q-73 0 -125.5 52.5t-52.5 125.5t52.5 125t125.5 52t125 -52t52 -125t-52 -125.5t-125 -52.5zM61 1402q0 13 9.5 22t22.5 9h824q13 0 22.5 -9t9.5 -22v-292q0 -13 -9.5 -22.5t-22.5 -9.5h-469q-13 0 -22.5 -9t-9.5 -22v-122q0 -13 9.5 -22t22.5 -9h361
q13 0 22.5 -9t9.5 -22v-293q0 -13 -9.5 -22t-22.5 -9h-361q-13 0 -22.5 -9t-9.5 -22v-122q0 -13 9.5 -22t22.5 -9h469q13 0 22.5 -9.5t9.5 -22.5v-292q0 -13 -9.5 -22t-22.5 -9h-824q-13 0 -22.5 9t-9.5 22v1371z" />
    <glyph glyph-name="edot" unicode="&#x117;" horiz-adv-x="923" 
d="M443 652h54q21 0 29 19t-7 34q-19 19 -49 19t-49 -19q-15 -15 -7 -34t29 -19zM461 1150q-73 0 -125 52t-52 125t52 125.5t125 52.5t125.5 -52.5t52.5 -125.5t-52.5 -125t-125.5 -52zM27 539q0 94 12.5 171t35 132t55 97.5t69.5 68.5t83 42t91 22.5t97 6.5
q83 0 148.5 -17.5t109.5 -44.5t76 -71t49 -86.5t27 -102t13 -106t3 -109.5q0 -10 -10 -22q-10 -10 -22 -10h-449q-14 0 -23 -10q-9 -11 -8 -24q12 -121 86 -121q55 0 75 65q3 12 15 18q13 6 24 2l285 -93q12 -4 17.5 -14.5t2.5 -22.5q-23 -91 -65.5 -154t-100 -96
t-118.5 -46.5t-135 -13.5q-52 0 -97 6t-91 22.5t-83 42.5t-69.5 68t-55 97t-35 132t-12.5 171z" />
    <glyph glyph-name="Eogonek" unicode="&#x118;" horiz-adv-x="983" 
d="M61 1404q0 13 9 22t22 9h825q13 0 22 -9t9 -22v-292q0 -13 -9 -22.5t-22 -9.5h-470q-13 0 -22 -9t-9 -22v-122q0 -13 9 -22t22 -9h362q13 0 22 -9t9 -22v-293q0 -13 -9 -22t-22 -9h-362q-13 0 -22 -9t-9 -22v-122q0 -13 9 -22t22 -9h470q13 0 22 -9.5t9 -22.5v-292
q0 -13 -9 -22t-22 -9h-56q-8 -12 -19 -29.5t-15.5 -24.5t-10 -18t-7 -20t-1.5 -20q0 -24 23 -24t23 24l1 10q0 4 3 6q4 2 7 1l78 -24q5 -1 5 -9q-2 -47 -35 -74t-82 -27q-51 0 -83.5 31t-32.5 87q0 19 5.5 36t9 24t18.5 26.5t19 24.5h-674q-13 0 -22.5 9t-9.5 22v1371z" />
    <glyph glyph-name="eogonek" unicode="&#x119;" horiz-adv-x="923" 
d="M443 652h54q21 0 29 19t-7 34q-19 19 -49 19t-49 -19q-15 -15 -7 -34t29 -19zM27 539q0 94 12.5 171t35 132t55 97.5t69.5 68.5t83 42t91 22.5t97 6.5q83 0 148.5 -17.5t109.5 -44.5t76 -71t49 -86.5t27 -102t13 -106t3 -109.5q0 -12 -9 -22q-10 -10 -23 -10h-448
q-15 0 -24 -10t-7 -24q13 -121 85 -121q55 0 75 65q5 12 16 18q13 6 24 2l284 -93q12 -4 17.5 -14.5t2.5 -22.5q-22 -88 -62 -149.5t-94.5 -95t-113 -48.5t-128.5 -17q-8 -12 -19 -29.5t-15.5 -24.5t-10 -18t-7 -20t-1.5 -20q0 -24 23 -24t23 24v1l1 10q0 5 3 6q4 2 7 1
l77 -25q6 -2 6 -8q-2 -47 -35 -74.5t-82 -27.5q-52 0 -84.5 30.5t-32.5 87.5q0 20 5.5 37t10.5 25t19 26.5t20 26.5q-64 6 -116 24.5t-101 57.5t-82 97t-53 148.5t-20 207.5z" />
    <glyph glyph-name="Ecaron" unicode="&#x11a;" horiz-adv-x="983" 
d="M671 1737l-90 -215q-7 -18 -25 -18h-51h-1h-50q-18 0 -25 18l-90 215q-5 13 3 24q9 12 21 12h81q24 0 26 -19l10 -127q2 -19 25 -19t25 19l11 127q2 19 25 19h81q13 0 22 -12q7 -12 2 -24zM61 1402q0 13 9.5 22t22.5 9h824q13 0 22.5 -9t9.5 -22v-292q0 -13 -9.5 -22.5
t-22.5 -9.5h-469q-13 0 -22.5 -9t-9.5 -22v-122q0 -13 9.5 -22t22.5 -9h361q13 0 22.5 -9t9.5 -22v-293q0 -13 -9.5 -22t-22.5 -9h-361q-13 0 -22.5 -9t-9.5 -22v-122q0 -13 9.5 -22t22.5 -9h469q13 0 22.5 -9.5t9.5 -22.5v-292q0 -13 -9.5 -22t-22.5 -9h-824q-13 0 -22.5 9
t-9.5 22v1371z" />
    <glyph glyph-name="ecaron" unicode="&#x11b;" horiz-adv-x="923" 
d="M443 652h54q21 0 29 19t-7 34q-19 19 -49 19t-49 -19q-15 -15 -7 -34t29 -19zM624 1407q8 -12 3 -24l-90 -216q-7 -17 -25 -17h-51h-1h-50q-17 0 -24 17l-90 216q-5 14 2 24q9 12 22 12h81q23 0 25 -20l10 -126q2 -19 25 -19t25 19l11 126q2 20 25 20h81q12 0 21 -12z
M27 539q0 94 12.5 171t35 132t55 97t69.5 68t83 42.5t91 22.5t97 6q83 0 148.5 -17.5t109.5 -44.5t75.5 -71t49 -86t27.5 -101.5t12.5 -106t2.5 -109.5q0 -13 -9 -22q-10 -10 -22 -10h-449q-14 0 -23 -10q-9 -11 -8 -24q12 -121 86 -121q55 0 75 65q3 12 15 18q13 6 24 2
l285 -93q12 -4 17.5 -14.5t2.5 -22.5q-23 -91 -65.5 -154t-100 -96t-118.5 -46.5t-135 -13.5q-52 0 -97 6t-91 22.5t-83 42.5t-69.5 68t-55 97t-35 132t-12.5 171z" />
    <glyph glyph-name="Gcircumflex" unicode="&#x11c;" horiz-adv-x="950" 
d="M641 1540q5 -13 -3 -24q-9 -12 -22 -12h-81q-23 0 -25 20l-10 126q-2 19 -25 19t-25 -19l-11 -126q-2 -20 -25 -20h-81q-13 0 -22 12q-7 10 -2 24l90 215q7 18 25 18h49h2h51q18 0 25 -18zM35 717v4q0 71 0.5 108.5t4.5 107t11.5 109.5t22.5 99.5t37 95t55.5 76.5
t77 63.5t103.5 37.5t132 15q93 0 165.5 -24t119 -64t78.5 -99t47.5 -119.5t23.5 -136.5q2 -25 -21 -33l-288 -94q-15 -5 -27 4q-11 9 -13 24q-13 187 -85 187q-21 0 -37 -14.5t-25.5 -45.5t-15.5 -59.5t-8 -79t-2.5 -79.5t-0.5 -83t0.5 -83t2.5 -79.5t8 -79t15.5 -60
t25.5 -46t37 -14.5q65 0 81 150q1 13 -8 24q-9 10 -23 10h-19q-13 0 -22.5 9.5t-9.5 22.5v205q0 13 9.5 22.5t22.5 9.5h374q13 0 22 -9.5t9 -22.5v-306v-3q-7 -79 -21.5 -142.5t-46 -126.5t-78 -104.5t-121 -67.5t-170.5 -26q-72 0 -131.5 15t-103 37.5t-77 63.5t-55.5 76
t-37 94.5t-22.5 99.5t-11.5 109.5t-4.5 107t-0.5 108.5v6z" />
    <glyph glyph-name="gcircumflex" unicode="&#x11d;" 
d="M562 539q0 83 -22.5 134t-65.5 51q-42 0 -65.5 -51.5t-23.5 -133.5t23.5 -133t65.5 -51q43 0 65.5 50.5t22.5 133.5zM639 1186q5 -13 -1 -24q-9 -12 -22 -12h-81q-23 0 -25 19l-11 127q-2 19 -25 19t-25 -19l-10 -127q-2 -19 -25 -19h-82q-12 0 -21 12q-8 11 -3 24
l90 215q7 18 25 18h49h2h51q17 0 24 -18zM396 -48q18 5 32 -7q17 -16 46 -16q40 0 64.5 39.5t24.5 144.5v11q0 12 -11 15q-12 3 -17 -7q-75 -132 -213 -132q-141 0 -216 143t-75 396q0 254 74.5 397t216.5 143q138 0 213 -132q5 -10 17 -7q11 3 11 14v94q0 13 9 22t22 9h292
q13 0 22.5 -9t9.5 -22v-935q0 -130 -25 -227.5t-65 -156t-99.5 -94.5t-120 -48.5t-134.5 -12.5q-139 0 -241.5 53t-155.5 186q-5 13 1 25q5 11 19 16z" />
    <glyph glyph-name="Gbreve" unicode="&#x11e;" horiz-adv-x="950" 
d="M310 1641q-2 14 5 22q7 9 20 9h32q20 0 25 -20q7 -28 30 -46.5t53 -18.5t53 18.5t30 46.5q5 20 25 20h31q12 0 20 -9q7 -8 5 -22q-11 -59 -57 -97.5t-107 -38.5t-107.5 38.5t-57.5 97.5zM35 717v6q0 71 0.5 108t4.5 106.5t11.5 110t22.5 99.5t37 94t55.5 76.5t77 63.5
t103.5 37t132 15q93 0 165.5 -24t119 -64t78.5 -99t47.5 -119.5t23.5 -136.5q2 -25 -21 -33l-288 -94q-15 -5 -27 4q-11 9 -13 24q-13 187 -85 187q-21 0 -37 -14.5t-25.5 -45.5t-15.5 -59.5t-8 -79t-2.5 -79.5t-0.5 -83t0.5 -83t2.5 -79.5t8 -79t15.5 -60t25.5 -46
t37 -14.5q65 0 81 150q1 13 -8 24q-9 10 -23 10h-19q-13 0 -22.5 9.5t-9.5 22.5v205q0 13 9.5 22.5t22.5 9.5h374q13 0 22 -9.5t9 -22.5v-306v-3q-7 -79 -21.5 -142.5t-46 -126.5t-78 -104.5t-121 -67.5t-170.5 -26q-72 0 -131.5 15t-103 37.5t-77 63.5t-55.5 76t-37 94.5
t-22.5 99.5t-11.5 109.5t-4.5 107t-0.5 108.5v6z" />
    <glyph glyph-name="gbreve" unicode="&#x11f;" 
d="M563 539q0 82 -23 133.5t-66 51.5q-42 0 -65 -51.5t-23 -133.5t23 -133t65 -51q43 0 66 51t23 133zM309 1287q-1 12 6 21q8 10 20 10h31q20 0 25 -20q7 -28 30 -47t53 -19t53 19t30 47q5 20 25 20h31q12 0 20 -10q7 -9 6 -21q-11 -59 -57.5 -98t-107.5 -39t-107.5 39
t-57.5 98zM397 -48q18 5 31 -7q17 -16 46 -16q40 0 64.5 39.5t24.5 144.5v11q0 12 -11 15q-12 3 -17 -7q-75 -132 -213 -132q-141 0 -216 143t-75 396q0 254 74.5 397t216.5 143q138 0 213 -132q5 -10 17 -7q11 3 11 14v94q0 13 9 22t22 9h293q13 0 22 -9t9 -22v-935
q0 -130 -25 -227.5t-65 -156t-99.5 -94.5t-120 -48.5t-134.5 -12.5q-139 0 -241 53t-155 186q-5 14 0 25q6 12 19 16z" />
    <glyph glyph-name="Gdot" unicode="&#x120;" horiz-adv-x="950" 
d="M475 1504q-73 0 -125 52.5t-52 125.5t52 125t125 52t125 -52t52 -125t-52 -125.5t-125 -52.5zM35 717v6q0 71 0.5 108t4.5 106.5t11.5 110t22.5 99.5t37 94t55.5 76.5t77 63.5t103 37t131.5 15q93 0 166 -24t119.5 -64t78.5 -99t47.5 -119.5t23.5 -136.5q2 -25 -22 -33
l-287 -94q-15 -5 -27 4q-13 9 -14 24q-13 187 -85 187q-16 0 -29 -8t-22 -26t-15.5 -36t-10.5 -49.5t-6.5 -54t-3.5 -61t-1 -60v-61.5v-5v-5v-61.5t1 -60t3.5 -61t6.5 -54t10.5 -49.5t15.5 -36.5t22 -26.5t29 -8q66 0 82 150q1 13 -8 24q-9 10 -23 10h-19q-13 0 -22.5 9.5
t-9.5 22.5v205q0 13 9.5 22.5t22.5 9.5h374q13 0 22 -9.5t9 -22.5v-306v-3q-7 -79 -21.5 -142.5t-46 -126.5t-78 -104.5t-121 -67.5t-170.5 -26q-72 0 -131.5 15t-103 37.5t-77 63.5t-55.5 76t-37 94.5t-22.5 99.5t-11.5 109.5t-4.5 107t-0.5 108.5v6z" />
    <glyph glyph-name="gdot" unicode="&#x121;" 
d="M563 539q0 82 -23 133.5t-66 51.5q-42 0 -65.5 -51.5t-23.5 -133.5t23.5 -133t65.5 -51q43 0 66 51t23 133zM474 1150q-73 0 -125 52t-52 125t52 125.5t125 52.5t125.5 -52.5t52.5 -125.5t-52 -125t-126 -52zM397 -48q18 5 31 -7q17 -16 46 -16q40 0 64.5 39.5
t24.5 144.5v11q0 12 -11 15q-12 3 -17 -7q-75 -132 -213 -132q-142 0 -216.5 143t-74.5 396q0 254 74.5 397t216.5 143q138 0 213 -132q7 -10 17 -7q11 3 11 14v94q0 13 9 22t22 9h293q13 0 22 -9t9 -22v-935q0 -130 -25 -227.5t-65 -156t-99.5 -94.5t-120 -48.5
t-134.5 -12.5q-139 0 -241 53t-155 186q-5 14 0 25q6 12 19 16z" />
    <glyph glyph-name="Gcedilla" unicode="&#x122;" horiz-adv-x="950" 
d="M297 -247q0 73 52.5 125.5t125.5 52.5t125 -52t52 -125q0 -62 -99 -267q-7 -15 -23 -15h-125q-13 0 -21 12t-2 24l24 54q10 23 -12 34q-44 23 -70.5 65t-26.5 92zM35 719v6q0 71 0.5 108t4.5 106.5t11.5 110t22.5 99.5t37 94t55.5 76.5t77 63.5t103 37t131.5 15
q93 0 166 -24t119.5 -64t78.5 -99t47.5 -119.5t23.5 -136.5q2 -25 -22 -33l-287 -94q-15 -5 -27 4q-13 9 -14 24q-13 188 -85 188q-16 0 -29 -8t-22 -26.5t-15.5 -36.5t-10.5 -49.5t-6.5 -54t-3.5 -61t-1 -60v-61.5v-5v-5v-61.5t1 -60t3.5 -61t6.5 -54t10.5 -49.5
t15.5 -36.5t22 -26.5t29 -8q66 0 82 150q1 13 -8 24q-9 10 -23 10h-19q-13 0 -22.5 9.5t-9.5 22.5v205q0 13 9.5 22.5t22.5 9.5h374q13 0 22 -9.5t9 -22.5v-306v-3q-7 -79 -21.5 -142.5t-46 -126.5t-78 -104.5t-121 -67.5t-170.5 -26q-72 0 -131.5 15t-103 37.5t-77 63.5
t-55.5 76t-37 94.5t-22.5 99.5t-11.5 109.5t-4.5 107t-0.5 108.5v6z" />
    <glyph glyph-name="gcedilla" unicode="&#x123;" 
d="M563 539q0 82 -23 133.5t-66 51.5q-42 0 -65.5 -51.5t-23.5 -133.5t23.5 -133t65.5 -51q43 0 66 51t23 133zM651 1327q0 -73 -51.5 -125t-125.5 -52t-126 52t-52 125q0 62 99 267q7 15 24 15h124q15 0 22 -12q8 -13 2 -25l-24 -53q-4 -10 -0.5 -19.5t12.5 -14.5
q43 -23 69.5 -65.5t26.5 -92.5zM397 -48q17 5 30 -7q17 -16 47 -16q40 0 64.5 39.5t24.5 144.5v11q0 12 -11 15q-12 3 -17 -7q-75 -132 -213 -132q-142 0 -216.5 143t-74.5 396q0 254 74.5 397t216.5 143q138 0 213 -132q5 -10 17 -7q11 3 11 14v94q0 13 9 22t22 9h293
q13 0 22 -9t9 -22v-935q0 -130 -25 -227.5t-65 -156t-99.5 -94.5t-120 -48.5t-134.5 -12.5q-139 0 -241 53t-155 186q-5 14 0 25q6 12 19 16z" />
    <glyph glyph-name="Hcircumflex" unicode="&#x124;" horiz-adv-x="1011" 
d="M670 1540q5 -14 -2 -24q-9 -12 -21 -12h-82q-23 0 -25 20l-10 126q-2 19 -25 19t-25 -19l-11 -126q-2 -20 -25 -20h-81q-12 0 -21 12q-8 11 -3 24l90 215q7 18 25 18h49h2h51q17 0 24 -18zM61 1402q0 13 9.5 22t22.5 9h292q13 0 22 -9t9 -22v-477q0 -13 9.5 -22t22.5 -9
h115q13 0 22 9t9 22v477q0 13 9 22t22 9h292q13 0 22.5 -9t9.5 -22v-1371q0 -13 -9.5 -22t-22.5 -9h-292q-13 0 -22 9t-9 22v477q0 13 -9 22t-22 9h-115q-13 0 -22.5 -9t-9.5 -22v-477q0 -13 -9 -22t-22 -9h-292q-13 0 -22.5 9t-9.5 22v1371z" />
    <glyph glyph-name="hcircumflex" unicode="&#x125;" horiz-adv-x="989" 
d="M667 1541q5 -13 -2 -25q-8 -11 -22 -11h-81q-23 0 -25 19l-11 126q-2 20 -25 20t-25 -20l-10 -126q-2 -19 -25 -19h-82q-13 0 -21 11t-3 25l90 215q7 17 25 17h49h2h51q18 0 25 -17zM57 1403q0 13 9 22t22 9h293q13 0 22 -9t9 -22v-448q0 -12 11 -15q12 -3 17 7
q75 132 213 132q142 0 216.5 -143t74.5 -397v-508q0 -13 -9 -22t-22 -9h-292q-13 0 -22.5 9t-9.5 22v508q0 82 -23 133.5t-65 51.5q-43 0 -66 -51.5t-23 -133.5v-508q0 -13 -9 -22t-22 -9h-292q-13 0 -22.5 9t-9.5 22v1372z" />
    <glyph glyph-name="Hbar" unicode="&#x126;" horiz-adv-x="1142" 
d="M660 1075h-178v-150q0 -13 9.5 -22t22.5 -9h115q13 0 22 9t9 22v150zM128 1402q0 13 9 22t22 9h292q13 0 22 -9t9 -22v-149h178v149q0 13 9 22t22 9h293q13 0 22 -9t9 -22v-150h93q10 0 18 -8t8 -18v-125q0 -11 -8 -18.5t-18 -7.5h-93v-1044q0 -13 -9 -22t-22 -9h-293
q-13 0 -22 9t-9 22v477q0 13 -9 22t-22 9h-115q-13 0 -22.5 -9t-9.5 -22v-477q0 -13 -9 -22t-22 -9h-292q-13 0 -22 9t-9 22v1044h-94q-10 0 -18 7.5t-8 18.5v126q0 11 8 18.5t18 7.5h94v149z" />
    <glyph glyph-name="hbar" unicode="&#x127;" horiz-adv-x="989" 
d="M57 1403q0 13 9 22t22 9h293q13 0 22 -9t9 -22v-58h111q11 0 18.5 -7.5t7.5 -18.5v-125q0 -10 -7.5 -18t-18.5 -8h-111v-213q0 -12 11 -15q12 -3 17 7q75 132 213 132q142 0 216.5 -143t74.5 -397v-508q0 -13 -9 -22t-22 -9h-292q-13 0 -22.5 9t-9.5 22v508
q0 82 -23 133.5t-65 51.5q-43 0 -66 -51.5t-23 -133.5v-507q0 -13 -9 -22.5t-22 -9.5h-292q-13 0 -22.5 9.5t-9.5 22.5v1136h-111q-10 0 -18 8t-8 18v125q0 11 8 18.5t18 7.5h111v58z" />
    <glyph glyph-name="Itilde" unicode="&#x128;" horiz-adv-x="477" 
d="M-26 1574q-19 -8 -32 5t-5 31q26 51 62 77t75 27t84.5 -7.5t89.5 -27t90.5 -31.5t87.5 -20t80 6q18 5 29 -8q12 -13 4 -29q-23 -50 -55 -72.5t-68.5 -20.5t-77 16t-86 32.5t-90 32t-94.5 12.5t-94 -23zM61 1402q0 13 9 22t22 9h292q13 0 22 -9t9 -22v-1371q0 -13 -9 -22
t-22 -9h-292q-13 0 -22 9t-9 22v1371z" />
    <glyph glyph-name="itilde" unicode="&#x129;" horiz-adv-x="468" 
d="M-30 1219q-18 -8 -32 6q-13 13 -5 31q26 51 62 77t75 27t84.5 -7.5t89.5 -27t90.5 -31.5t87.5 -20t80 6q18 5 29 -8q12 -14 4 -30q-23 -50 -55 -72.5t-68.5 -20.5t-77 16t-86 32.5t-90 32t-94.5 12.5t-94 -23zM57 1048q0 13 9 22t22 9h292q13 0 22 -9t9 -22v-1017
q0 -13 -9 -22t-22 -9h-292q-13 0 -22 9t-9 22v1017z" />
    <glyph glyph-name="Imacron" unicode="&#x12a;" horiz-adv-x="479" 
d="M-50 1504q-10 0 -18 8t-8 18v126q0 10 8 18t18 8h577q11 0 18.5 -8t7.5 -18v-126q0 -10 -7.5 -18t-18.5 -8h-577zM61 1402q0 13 9.5 22t22.5 9h292q13 0 22 -9t9 -22v-1371q0 -13 -9 -22t-22 -9h-292q-13 0 -22.5 9t-9.5 22v1371z" />
    <glyph glyph-name="imacron" unicode="&#x12b;" horiz-adv-x="471" 
d="M-54 1150q-10 0 -18 8t-8 18v125q0 11 8 18.5t18 7.5h577q11 0 18.5 -7.5t7.5 -18.5v-125q0 -10 -7.5 -18t-18.5 -8h-577zM57 1048q0 13 9.5 22t22.5 9h292q13 0 22 -9t9 -22v-1017q0 -13 -9 -22t-22 -9h-292q-13 0 -22.5 9t-9.5 22v1017z" />
    <glyph glyph-name="Ibreve" unicode="&#x12c;" horiz-adv-x="479" 
d="M74 1641q-2 13 6 22t20 9h31q20 0 25 -20q7 -28 30 -46.5t53 -18.5t53 18.5t30 46.5q5 20 25 20h31q12 0 20 -9t6 -22q-11 -59 -57.5 -97.5t-107.5 -38.5t-107.5 38.5t-57.5 97.5zM61 1402q0 13 9.5 22t22.5 9h292q13 0 22 -9t9 -22v-1371q0 -13 -9 -22t-22 -9h-292
q-13 0 -22.5 9t-9.5 22v1371z" />
    <glyph glyph-name="ibreve" unicode="&#x12d;" horiz-adv-x="471" 
d="M70 1287q-2 12 6 21q8 10 20 10h31q20 0 25 -20q7 -28 30 -47t53 -19t53 19t30 47q5 20 25 20h31q12 0 20 -10q8 -9 6 -21q-11 -59 -57.5 -98t-107.5 -39t-107.5 39t-57.5 98zM57 1048q0 13 9.5 22t22.5 9h292q13 0 22 -9t9 -22v-1017q0 -13 -9 -22t-22 -9h-292
q-13 0 -22.5 9t-9.5 22v1017z" />
    <glyph glyph-name="Iogonek" unicode="&#x12e;" horiz-adv-x="479" 
d="M61 1404q0 13 9.5 22.5t22.5 9.5h292q13 0 22.5 -9.5t9.5 -22.5v-1371q0 -13 -9.5 -22t-22.5 -9h-116q-8 -12 -19 -29.5t-15.5 -24.5t-10 -18t-7 -20t-1.5 -20q0 -24 23 -24t23 24l1 10q0 4 3 6q4 2 7 1l77 -24q6 -1 6 -9q-2 -47 -35.5 -74t-82.5 -27q-51 0 -83.5 30.5
t-32.5 87.5q0 19 5.5 36t9 24t18.5 26.5t19 24.5h-81q-13 0 -22.5 9t-9.5 22v1371z" />
    <glyph glyph-name="iogonek" unicode="&#x12f;" horiz-adv-x="471" 
d="M57 1327q0 73 52.5 125.5t125.5 52.5t125 -52.5t52 -125.5t-52 -125t-125 -52q-74 0 -126 52t-52 125zM57 1048q0 13 9.5 22t22.5 9h293q13 0 22 -9t9 -22v-1017q0 -13 -9 -22t-22 -9h-117q-8 -13 -22.5 -35t-18.5 -29.5t-8.5 -20.5t-4.5 -27q0 -24 24 -24q23 0 23 24v10
q0 5 4 7t7 1l77 -25q6 -1 6 -8q-2 -47 -35.5 -74.5t-82.5 -27.5q-51 0 -83.5 30.5t-32.5 87.5q0 19 5.5 36t9 24t18.5 26.5t19 24.5h-81q-13 0 -22.5 9t-9.5 22v1017z" />
    <glyph glyph-name="Jcircumflex" unicode="&#x134;" horiz-adv-x="911" 
d="M852 1540q5 -13 -3 -24q-9 -12 -21 -12h-81q-9 0 -17 5.5t-9 14.5l-10 126q-2 19 -25 19t-25 -19l-10 -126q-1 -9 -9 -14.5t-17 -5.5h-81q-12 0 -21 12q-8 11 -3 24l90 215q7 18 25 18h50h1h51q18 0 25 -18zM294 570q13 4 27 -4q13 -9 14 -24q13 -187 85 -187q21 0 37 14
t25.5 44t15 58.5t8 76.5t3 78t0.5 82v694q0 13 9 22t22 9h292q13 0 22.5 -9t9.5 -22v-694q0 -69 -0.5 -107.5t-4.5 -106.5t-11.5 -109t-23 -99.5t-37.5 -94t-55.5 -76t-77 -63t-103 -37.5t-131.5 -15q-93 0 -165.5 24t-119 64t-78.5 99t-47.5 119.5t-23.5 136.5q-2 25 21 33
z" />
    <glyph glyph-name="jcircumflex" unicode="&#x135;" horiz-adv-x="466" 
d="M396 1186q5 -14 -2 -24q-9 -12 -22 -12h-81q-23 0 -25 19l-10 127q-2 19 -25 19t-25 -19l-11 -127q-2 -19 -25 -19h-81q-13 0 -22 12q-7 10 -2 24l90 215q7 18 25 18h49h2h51q17 0 24 -18zM72 1049q0 12 8.5 21t20.5 9h278q12 0 20.5 -9t8.5 -21v-885q0 -117 -21.5 -207
t-56.5 -145.5t-86.5 -91t-105.5 -50t-120 -17.5q-13 0 -21 8q-9 9 -9 22v280q0 23 21 29q63 19 63 172v885z" />
    <glyph glyph-name="Kcedilla" unicode="&#x136;" horiz-adv-x="944" 
d="M322 -247q0 73 52 125.5t125 52.5q74 0 126 -52t52 -125q0 -62 -99 -267q-7 -15 -23 -15h-125q-14 0 -22 12t-2 24l24 54q10 23 -12 34q-44 23 -70 65t-26 92zM61 1404q0 13 9.5 22t22.5 9h292q13 0 22 -9t9 -22v-484q0 -20 21 -24q9 -2 17 3t10 14l116 498q5 24 30 24
h296q16 0 25 -12q10 -13 5 -28l-209 -667q-3 -10 0 -19l209 -667q4 -15 -5 -27q-10 -13 -25 -13h-296q-25 0 -30 24l-116 498q-2 9 -10 14t-17 3t-15 -8.5t-6 -15.5v-484q0 -13 -9 -22t-22 -9h-292q-13 0 -22.5 9t-9.5 22v1371z" />
    <glyph glyph-name="kcedilla" unicode="&#x137;" horiz-adv-x="937" 
d="M316 -248q0 73 52 125t125 52t125 -51.5t52 -125.5q0 -62 -99 -267q-7 -15 -23 -15h-125q-13 0 -21 12q-8 13 -2 25l24 53q10 23 -12 34q-43 23 -69.5 65.5t-26.5 92.5zM57 1403q0 13 9.5 22t22.5 9h292q13 0 22 -9t9 -22v-668q0 -15 15 -18q17 -4 22 10l125 331
q9 21 29 21h295q17 0 26 -14t3 -30l-202 -484q-5 -12 0 -24l202 -484q6 -15 -3 -29t-26 -14h-295q-21 0 -29 20l-125 331q-5 15 -22 11q-15 -3 -15 -19v-312q0 -13 -9 -22t-22 -9h-292q-13 0 -22.5 9t-9.5 22v1372z" />
    <glyph glyph-name="Lacute" unicode="&#x139;" horiz-adv-x="960" 
d="M318 1695l-60 -173q-7 -18 -24 -18h-50q-12 0 -19 9t-6 21l34 217q1 13 14 19q11 6 25 -1l75 -43q18 -10 11 -31zM61 1402q0 13 9.5 22t22.5 9h292q13 0 22 -9t9 -22v-1016q0 -13 9.5 -22t22.5 -9h469q13 0 22.5 -9.5t9.5 -22.5v-292q0 -13 -9.5 -22t-22.5 -9h-824
q-13 0 -22.5 9t-9.5 22v1371z" />
    <glyph glyph-name="lacute" unicode="&#x13a;" horiz-adv-x="471" 
d="M314 1696l-60 -174q-6 -17 -25 -17h-49q-12 0 -20 9t-6 21l35 216q2 14 14 20q11 5 24 -1l75 -44q19 -10 12 -30zM57 1403q0 13 9.5 22t22.5 9h292q13 0 22 -9t9 -22v-1372q0 -13 -9 -22t-22 -9h-292q-13 0 -22.5 9t-9.5 22v1372z" />
    <glyph glyph-name="Lcedilla" unicode="&#x13b;" horiz-adv-x="960" 
d="M327 -247q0 73 52.5 125.5t125.5 52.5t125 -51.5t52 -125.5q0 -62 -99 -267q-7 -15 -23 -15h-125q-15 0 -22 12t-1 24l24 54q10 23 -12 34q-44 23 -70.5 65t-26.5 92zM61 1404q0 13 9.5 22t22.5 9h292q13 0 22 -9t9 -22v-1016q0 -13 9.5 -22t22.5 -9h469q13 0 22.5 -9.5
t9.5 -22.5v-292q0 -13 -9.5 -22t-22.5 -9h-824q-13 0 -22.5 9t-9.5 22v1371z" />
    <glyph glyph-name="lcedilla" unicode="&#x13c;" horiz-adv-x="471" 
d="M57 -248q0 73 52.5 125t125.5 52q74 0 126 -52t52 -125q0 -62 -99 -267q-7 -15 -24 -15h-124q-14 0 -22 12q-8 13 -2 25l24 53q9 23 -12 34q-44 23 -70.5 65.5t-26.5 92.5zM57 1403q0 13 9.5 22t22.5 9h292q13 0 22 -9t9 -22v-1372q0 -13 -9 -22t-22 -9h-292
q-13 0 -22.5 9t-9.5 22v1372z" />
    <glyph glyph-name="Lcaron" unicode="&#x13d;" horiz-adv-x="968" 
d="M594 1256q0 73 52 125t125 52t125.5 -52t52.5 -125q0 -62 -99 -267q-6 -14 -23 -14h-125q-15 0 -22 11q-8 13 -2 25l24 54q10 22 -12 33q-43 23 -69.5 65.5t-26.5 92.5zM61 1402q0 13 9.5 22t22.5 9h292q13 0 22 -9t9 -22v-1016q0 -13 9.5 -22t22.5 -9h469
q13 0 22.5 -9.5t9.5 -22.5v-292q0 -13 -9.5 -22t-22.5 -9h-824q-13 0 -22.5 9t-9.5 22v1371z" />
    <glyph glyph-name="lcaron" unicode="&#x13e;" horiz-adv-x="782" 
d="M507 1256q0 73 52.5 125.5t125.5 52.5t125 -52t52 -125q0 -62 -99 -267q-7 -15 -23 -15h-125q-13 0 -21 12t-2 24l24 54q10 23 -12 34q-44 23 -70.5 65t-26.5 92zM57 1403q0 13 9.5 22t22.5 9h292q13 0 22 -9t9 -22v-1372q0 -13 -9 -22t-22 -9h-292q-13 0 -22.5 9
t-9.5 22v1372z" />
    <glyph glyph-name="Ldot" unicode="&#x13f;" horiz-adv-x="964" 
d="M771 539q-73 0 -125 52.5t-52 125.5t52 125t125 52t125.5 -52t52.5 -125t-52.5 -125.5t-125.5 -52.5zM61 1402q0 13 9.5 22t22.5 9h292q13 0 22 -9t9 -22v-1016q0 -13 9.5 -22t22.5 -9h469q13 0 22.5 -9.5t9.5 -22.5v-292q0 -13 -9.5 -22t-22.5 -9h-824q-13 0 -22.5 9
t-9.5 22v1371z" />
    <glyph glyph-name="ldot" unicode="&#x140;" horiz-adv-x="862" 
d="M685 539q-73 0 -125.5 52.5t-52.5 125.5t52.5 125t125.5 52t125 -52t52 -125t-52 -125.5t-125 -52.5zM57 1403q0 13 9.5 22t22.5 9h292q13 0 22 -9t9 -22v-1372q0 -13 -9 -22t-22 -9h-292q-13 0 -22.5 9t-9.5 22v1372z" />
    <glyph glyph-name="Lslash" unicode="&#x141;" horiz-adv-x="1040" 
d="M141 1404q0 13 9.5 22t22.5 9h292q13 0 22 -9t9 -22v-549l111 30q10 3 18 -2.5t8 -16.5v-126q0 -10 -7.5 -20t-18.5 -13l-111 -29v-290q0 -13 9 -22t22 -9h470q13 0 22 -9.5t9 -22.5v-292q0 -13 -9 -22t-22 -9h-825q-13 0 -22 9t-9 22v549l-111 -30q-10 -3 -18 2.5
t-8 16.5v126q0 10 7.5 20t18.5 13l111 30v644z" />
    <glyph glyph-name="lslash" unicode="&#x142;" horiz-adv-x="643" 
d="M143 1403q0 13 9.5 22t22.5 9h292q13 0 22 -9t9 -22v-550l112 30q10 3 17.5 -2.5t7.5 -16.5v-126q0 -10 -7 -19.5t-18 -12.5l-112 -30v-645q0 -13 -9 -22t-22 -9h-292q-13 0 -22.5 9t-9.5 22v550l-111 -30q-10 -3 -18 2.5t-8 16.5v125q0 11 7.5 20.5t18.5 12.5l111 30
v645z" />
    <glyph glyph-name="Nacute" unicode="&#x143;" horiz-adv-x="1009" 
d="M584 1695l-60 -173q-7 -18 -24 -18h-50q-12 0 -20 9q-7 8 -5 21l34 217q1 13 14 19q11 6 24 -1l76 -43q18 -10 11 -31zM61 1402q0 13 9 22t22 9h301q25 0 30 -21l128 -503q5 -18 24 -15q18 3 18 22l1 486q0 13 9 22t22 9h292q13 0 22 -9t9 -22v-1371q0 -13 -9 -22t-22 -9
h-301q-24 0 -29 22l-128 502q-5 18 -24 15t-19 -22v-486q0 -13 -9 -22t-22 -9h-292q-13 0 -22.5 9t-9.5 22v1371z" />
    <glyph glyph-name="nacute" unicode="&#x144;" horiz-adv-x="987" 
d="M580 1341l-60 -174q-6 -17 -24 -17h-50q-12 0 -19 9t-6 21l34 217q1 13 14 19q11 6 25 -1l75 -43q18 -10 11 -31zM57 1048q0 13 9 22t22 9h293q13 0 22 -9t9 -22v-93q0 -12 11 -15q12 -3 17 7q75 132 213 132q142 0 216.5 -143t74.5 -397v-508q0 -13 -9 -22t-22 -9h-292
q-13 0 -22.5 9t-9.5 22v508q0 82 -23 133.5t-65 51.5q-43 0 -66 -51.5t-23 -133.5v-508q0 -13 -9 -22t-22 -9h-292q-13 0 -22.5 9t-9.5 22v1017z" />
    <glyph glyph-name="Ncedilla" unicode="&#x145;" horiz-adv-x="1009" 
d="M328 -247q0 73 52 125.5t125 52.5t125 -51.5t52 -125.5q0 -62 -99 -267q-7 -15 -23 -15h-125q-13 0 -21 12t-2 24l24 54q10 23 -12 34q-44 23 -70 65t-26 92zM61 1404q0 13 9 22t22 9h301q25 0 30 -21l128 -503q5 -18 24 -15q18 3 18 22v486q0 13 9.5 22t22.5 9h292
q13 0 22 -9t9 -22v-1371q0 -13 -9 -22t-22 -9h-301q-24 0 -29 22l-128 502q-5 18 -24 15t-19 -22v-486q0 -13 -9 -22t-22 -9h-292q-13 0 -22.5 9t-9.5 22v1371z" />
    <glyph glyph-name="ncedilla" unicode="&#x146;" horiz-adv-x="989" 
d="M324 -248q0 73 52 125t125 52t125 -51.5t52 -125.5q0 -62 -99 -267q-7 -15 -23 -15h-124q-14 0 -22 12q-8 13 -2 25l24 53q10 23 -12 34q-43 23 -69.5 65.5t-26.5 92.5zM57 1048q0 13 9 22t22 9h293q13 0 22 -9t9 -22v-93q0 -12 11 -15q12 -3 17 7q75 132 213 132
q142 0 216.5 -143t74.5 -397v-508q0 -13 -9 -22t-22 -9h-292q-13 0 -22.5 9t-9.5 22v508q0 82 -23 133.5t-65 51.5q-43 0 -66 -51.5t-23 -133.5v-508q0 -13 -9 -22t-22 -9h-292q-13 0 -22.5 9t-9.5 22v1017z" />
    <glyph glyph-name="Ncaron" unicode="&#x147;" horiz-adv-x="1011" 
d="M670 1737l-90 -215q-7 -18 -24 -18h-51h-2h-49q-18 0 -25 18l-90 215q-5 14 2 24q9 12 22 12h81q23 0 25 -19l10 -127q2 -19 26 -19q22 0 24 19l11 127q2 19 25 19h81q13 0 22 -12q7 -10 2 -24zM61 1402q0 13 9.5 22t22.5 9h301q24 0 29 -21l128 -503q1 -8 8.5 -12.5
t15.5 -2.5q19 3 19 22v486q0 13 9 22t22 9h292q13 0 22 -9t9 -22v-1371q0 -13 -9 -22t-22 -9h-300q-25 0 -30 22l-128 502q-5 18 -24 15t-19 -22v-486q0 -13 -9 -22t-22 -9h-292q-13 0 -22.5 9t-9.5 22v1371z" />
    <glyph glyph-name="ncaron" unicode="&#x148;" horiz-adv-x="989" 
d="M666 1383l-90 -216q-7 -17 -24 -17h-52h-1h-49q-18 0 -25 17l-90 216q-5 14 2 24q9 12 22 12h81q23 0 25 -20l10 -126q2 -19 25 -19t25 19l11 126q2 20 25 20h81q12 0 21 -12q8 -11 3 -24zM57 1048q0 13 9 22t22 9h293q13 0 22 -9t9 -22v-93q0 -12 11 -15q12 -3 17 7
q75 132 213 132q142 0 217 -143.5t75 -396.5v-508q0 -13 -9.5 -22t-22.5 -9h-292q-13 0 -22 9t-9 22v508q0 82 -23.5 133.5t-65.5 51.5q-43 0 -66 -51.5t-23 -133.5v-508q0 -13 -9 -22t-22 -9h-292q-13 0 -22.5 9t-9.5 22v1017z" />
    <glyph glyph-name="Omacron" unicode="&#x14c;" horiz-adv-x="958" 
d="M478 355q17 0 30.5 10t22.5 28.5t16 40t10.5 51t6 54t3 56t1 50t0 43t-0.5 29.5q0 54 -0.5 83t-2.5 79.5t-8 79t-15.5 59.5t-25.5 45.5t-37 14.5q-16 0 -29 -8t-22 -26t-15.5 -36t-10.5 -49.5t-6.5 -54t-3.5 -61t-1 -60v-61.5v-5q0 -5 -0.5 -29t-0.5 -43t0.5 -50t3 -56
t6.5 -54t10.5 -51t15.5 -40.5t22.5 -28.5t30.5 -10zM190 1504q-10 0 -18 8t-8 18v126q0 10 8 18t18 8h577q11 0 18.5 -8t7.5 -18v-126q0 -10 -7.5 -18t-18.5 -8h-577zM35 717q0 71 0.5 113t5 110.5t12 111t23 100t37.5 93t55.5 75.5t76.5 62t102.5 36.5t130.5 14.5
q91 0 162.5 -24t117.5 -58t78.5 -97t49 -114.5t25 -137.5t10 -139t1.5 -146t-1.5 -146t-10 -139.5t-25 -138t-49 -114t-78.5 -97t-117.5 -58.5t-162.5 -24q-72 0 -131 14.5t-102 36.5t-77 62t-55.5 75.5t-37 94t-23.5 100.5t-12 111t-4.5 110t-0.5 113z" />
    <glyph glyph-name="omacron" unicode="&#x14d;" horiz-adv-x="942" 
d="M470 355q89 0 89 185q0 105 -24.5 144.5t-64.5 39.5t-64 -39.5t-24 -144.5t24 -145t64 -40zM182 1150q-10 0 -18 8t-8 18v125q0 11 8 18.5t18 7.5h577q11 0 18.5 -7.5t7.5 -18.5v-125q0 -10 -7.5 -18t-18.5 -8h-577zM27 539q0 94 12.5 171t35 132t55 97.5t69.5 68.5
t83 42t91 22.5t97 6.5q74 0 134.5 -12.5t120 -48.5t99.5 -95t65 -156.5t25 -227.5t-25 -227.5t-65 -156t-99.5 -94.5t-120 -48.5t-134.5 -12.5q-52 0 -97 6t-91 22.5t-83 42.5t-69.5 68t-55 97t-35 132t-12.5 171z" />
    <glyph glyph-name="Obreve" unicode="&#x14e;" horiz-adv-x="958" 
d="M478 355q17 0 30.5 10t22.5 28.5t16 40t10.5 51t6 54t3 56t1 50t0 43t-0.5 29.5q0 54 -0.5 83t-2.5 79.5t-8 79t-15.5 59.5t-25.5 45.5t-37 14.5q-16 0 -29 -8t-22 -26t-15.5 -36t-10.5 -49.5t-6.5 -54t-3.5 -61t-1 -60v-61.5v-5q0 -5 -0.5 -29t-0.5 -43t0.5 -50t3 -56
t6.5 -54t10.5 -51t15.5 -40.5t22.5 -28.5t30.5 -10zM314 1641q-2 14 5 22q7 9 20 9h31q20 0 25 -20q7 -28 30 -46.5t53 -18.5t53 18.5t30 46.5q5 20 25 20h32q12 0 19 -9q8 -9 6 -22q-11 -59 -57.5 -97.5t-107.5 -38.5t-107 38.5t-57 97.5zM35 717q0 71 0.5 113t5 110.5
t12 111t23 100t37.5 93t55.5 75.5t76.5 62t102.5 36.5t130.5 14.5q91 0 162.5 -24t117.5 -58t78.5 -97t49 -114.5t25 -137.5t10 -139t1.5 -146q0 -92 -1.5 -146t-10 -139.5t-25 -137.5t-49 -114.5t-79 -97t-117.5 -58.5t-162 -24q-72 0 -131 14.5t-102 36.5t-77 62
t-55.5 75.5t-37 94t-23.5 100.5t-12 111t-4.5 110t-0.5 113z" />
    <glyph glyph-name="obreve" unicode="&#x14f;" horiz-adv-x="942" 
d="M470 355q89 0 89 185q0 105 -24.5 144.5t-64.5 39.5t-64 -39.5t-24 -144.5t24 -145t64 -40zM306 1287q-2 13 5 21q8 10 20 10h31q21 0 26 -20q7 -28 30 -47t52 -19q30 0 53 19t30 47q5 20 25 20h32q12 0 20 -10q7 -8 5 -21q-11 -59 -57.5 -98t-107.5 -39t-107 39t-57 98z
M27 539q0 94 12.5 171t35 132t55 97.5t69.5 68.5t83 42t91 22.5t97 6.5q74 0 134.5 -12.5t120 -48.5t99.5 -95t65 -156.5t25 -227.5t-25 -227.5t-65 -156t-99.5 -94.5t-120 -48.5t-134.5 -12.5q-52 0 -97 6t-91 22.5t-83 42.5t-69.5 68t-55 97t-35 132t-12.5 171z" />
    <glyph glyph-name="Ohungarumlaut" unicode="&#x150;" horiz-adv-x="958" 
d="M478 355q17 0 30.5 10t22.5 28.5t16 40t10.5 51t6 54t3 56t1 50t0 43t-0.5 29.5q0 54 -0.5 83t-2.5 79.5t-8 79t-15.5 59.5t-25.5 45.5t-37 14.5q-16 0 -29 -8t-22 -26t-15.5 -36t-10.5 -49.5t-6.5 -54t-3.5 -61t-1 -60v-61.5v-5q0 -5 -0.5 -29t-0.5 -43t0.5 -50t3 -56
t6.5 -54t10.5 -51t15.5 -40.5t22.5 -28.5t30.5 -10zM519 1751q1 13 14 19q11 6 24 -1l76 -43q18 -10 11 -31l-60 -173q-5 -18 -24 -18h-50q-12 0 -19 9t-6 21zM346 1751q1 13 14 19q11 6 24 -1l75 -43q19 -10 12 -31l-60 -173q-5 -18 -24 -18h-50q-11 0 -19 9t-6 21zM35 717
q0 71 0.5 113t5 110.5t12 111t23 100t37.5 93t55.5 75.5t76.5 62t102.5 36.5t130.5 14.5q91 0 162.5 -24t117.5 -58t78.5 -97t49 -114.5t25 -137.5t10 -139t1.5 -146t-1.5 -146t-10 -139.5t-25 -138t-49 -114t-78.5 -97t-117.5 -58.5t-162.5 -24q-72 0 -131 14.5t-102 36.5
t-77 62t-55.5 75.5t-37 94t-23.5 100.5t-12 111t-4.5 110t-0.5 113z" />
    <glyph glyph-name="ohungarumlaut" unicode="&#x151;" horiz-adv-x="942" 
d="M470 355q89 0 89 185q0 105 -24.5 144.5t-64.5 39.5t-64.5 -39.5t-24.5 -144.5q0 -185 89 -185zM511 1397q1 13 14 19q11 6 24 -1l75 -43q19 -10 12 -31l-60 -174q-6 -17 -25 -17h-49q-12 0 -20 9t-6 21zM338 1397q1 13 14 19q11 6 24 -1l76 -43q18 -10 11 -31l-60 -174
q-6 -17 -24 -17h-50q-13 0 -20 9q-7 8 -5 21zM27 539q0 94 12.5 171t35 132t55 97.5t69.5 68.5t83 42t91 22.5t97 6.5q74 0 134.5 -12.5t120 -48.5t99.5 -95t65 -156.5t25 -227.5t-25 -227.5t-65 -156t-99.5 -94.5t-120 -48.5t-134.5 -12.5q-52 0 -97 6t-91 22.5t-83 42.5
t-69.5 68t-55 97t-35 132t-12.5 171z" />
    <glyph glyph-name="OE" unicode="&#x152;" horiz-adv-x="1488" 
d="M567 600v124q0 52 -0.5 82t-3 78t-8 77t-15 59t-25.5 44t-37 14q-16 0 -29 -8t-22 -26.5t-15.5 -36.5t-10.5 -49.5t-6.5 -54t-3.5 -61t-1 -60v-61.5v-5q0 -5 -0.5 -29t-0.5 -43t0.5 -50t3 -56t6.5 -54t10.5 -51t15.5 -40.5t22.5 -28.5t30.5 -10q82 0 89 246zM35 717
q0 71 0.5 113t5 110.5t12 111t23 100t37.5 93t55.5 75.5t76.5 62t102.5 36.5t130.5 14.5h945q13 0 22 -9t9 -22v-292q0 -13 -9 -22.5t-22 -9.5h-470q-13 0 -22 -9t-9 -22v-122q0 -13 9 -22t22 -9h362q13 0 22 -9t9 -22v-293q0 -13 -9 -22t-22 -9h-362q-13 0 -22 -9t-9 -22
v-122q0 -13 9 -22t22 -9h470q13 0 22 -9.5t9 -22.5v-292q0 -13 -9 -22t-22 -9h-945q-91 0 -162 24t-117.5 58.5t-78.5 97t-48.5 114t-25 138t-10 139.5t-1.5 146z" />
    <glyph glyph-name="oe" unicode="&#x153;" horiz-adv-x="1456" 
d="M470 355q89 0 89 185q0 105 -24.5 144.5t-64.5 39.5t-64 -39.5t-24 -144.5t24 -145t64 -40zM976 652h53q21 0 29 19t-7 34q-19 19 -49 19q-29 0 -48 -19q-15 -15 -7 -34t29 -19zM27 539q0 94 12.5 171t35 132t55 97t69.5 68t83 42.5t91 22.5t97 6q167 0 266 -68
q99 68 266 68q83 0 148.5 -17t109.5 -44.5t76 -71.5t49 -86t27 -101.5t13 -106t3 -109.5q0 -13 -9 -22q-10 -10 -23 -10h-448q-15 0 -24 -10t-7 -24q12 -121 85 -121q55 0 75 65q5 12 16 18q13 6 24 2l284 -93q12 -4 17.5 -14.5t2.5 -22.5q-23 -91 -65.5 -154t-100 -96
t-118.5 -46.5t-135 -13.5q-167 0 -266 68q-99 -68 -266 -68q-52 0 -97 6t-91 22.5t-83 42.5t-69.5 68t-55 97t-35 132t-12.5 171z" />
    <glyph glyph-name="Racute" unicode="&#x154;" 
d="M505 717q19 0 33.5 5.5t24 12.5t16 21.5t9.5 25t5 29.5t2 29t-0.5 31t-0.5 27t0.5 27t0.5 31t-2 29t-5 29.5t-9.5 25t-16 21.5t-24 12.5t-33.5 5.5h-57q-13 0 -22 -9t-9 -22v-299q0 -13 9 -22.5t22 -9.5h57zM573 1732q18 -10 11 -31l-60 -173q-7 -18 -24 -18h-50
q-11 0 -19 10q-7 9 -6 21l34 216q1 13 14 19q11 6 24 -1zM479 341q-7 22 -30 22h-2q-13 0 -22 -9.5t-9 -22.5v-299q0 -13 -9 -22t-22 -9h-292q-13 0 -22.5 9t-9.5 22v1371q0 13 9.5 22t22.5 9h412q117 0 205 -43.5t139 -119.5t75.5 -169.5t24.5 -203.5q0 -271 -135 -415
q-12 -12 -7 -31l129 -411q5 -15 -5 -28q-9 -12 -25 -12h-297q-23 0 -30 22z" />
    <glyph glyph-name="racute" unicode="&#x155;" horiz-adv-x="694" 
d="M449 1341l-60 -174q-6 -17 -24 -17h-50q-13 0 -20 9t-6 21l35 217q1 13 14 19q11 6 24 -1l75 -43q19 -10 12 -31zM57 1048q0 13 9 22t22 9h293q13 0 22 -9t9 -22v-94q0 -12 11 -15q12 -3 17 7q67 119 188 131l1 2q10 0 17.5 -7t8.5 -17l27 -297q1 -13 -8 -24
q-9 -10 -23 -10h-150q-43 0 -66 -51.5t-23 -133.5v-508q0 -13 -9 -22t-22 -9h-292q-13 0 -22.5 9t-9.5 22v1017z" />
    <glyph glyph-name="Rcedilla" unicode="&#x156;" 
d="M505 713q19 0 33.5 5.5t24 12.5t16 21.5t9.5 25t5 29.5t2 29t-0.5 31t-0.5 27t0.5 27t0.5 31t-2 29t-5 29.5t-9.5 25t-16 21.5t-24 12.5t-33.5 5.5h-57q-13 0 -22.5 -9t-9.5 -22v-300q0 -13 9.5 -22t22.5 -9h57zM328 -247q0 73 52 125.5t125 52.5t125 -51.5t52 -125.5
q0 -62 -99 -267q-7 -15 -23 -15h-125q-13 0 -21 12t-2 24l24 54q10 23 -12 34q-44 23 -70 65t-26 92zM479 337q-6 21 -30 21h-1q-13 0 -22.5 -9t-9.5 -22v-299q0 -13 -9 -22t-22 -9h-292q-13 0 -22.5 9t-9.5 22v1371q0 13 9.5 22t22.5 9h412q117 0 205 -43.5t139 -119.5
t75.5 -169.5t24.5 -203.5q0 -271 -135 -415q-12 -12 -7 -31l129 -411q5 -15 -5 -28q-9 -12 -25 -12h-297q-24 0 -30 21z" />
    <glyph glyph-name="rcedilla" unicode="&#x157;" horiz-adv-x="684" 
d="M57 -243q0 73 52.5 125.5t125.5 52.5t125 -52.5t52 -125.5q0 -62 -99 -267q-7 -15 -23 -15h-125q-13 0 -21 12q-9 12 -2 25l24 54q10 22 -12 33q-44 23 -70.5 65.5t-26.5 92.5zM57 1048q0 13 9.5 22t22.5 9h292q13 0 22 -9t9 -22v-94q0 -12 11 -15q12 -3 17 7
q67 119 188 131l1 2q10 0 17.5 -7t8.5 -17l27 -297q1 -13 -8 -24q-9 -10 -23 -10h-150q-43 0 -66 -51.5t-23 -133.5v-508q0 -13 -9 -22t-22 -9h-292q-13 0 -22.5 9t-9.5 22v1017z" />
    <glyph glyph-name="Rcaron" unicode="&#x158;" 
d="M505 717q19 0 33.5 5.5t24 12.5t16 21.5t9.5 25t5 29.5t2 29t-0.5 31t-0.5 27t0.5 27t0.5 31t-2 29t-5 29.5t-9.5 25t-16 21.5t-24 12.5t-33.5 5.5h-58q-13 0 -22 -9t-9 -22v-299q0 -13 9 -22.5t22 -9.5h58zM669 1767q7 -9 1 -24l-90 -215q-7 -18 -24 -18h-51h-1h-50
q-17 0 -24 18l-90 215q-5 14 2 24q9 12 22 12h81q23 0 25 -19l10 -126q2 -19 25 -19t25 19l11 126q2 19 25 19h81q13 0 22 -12zM479 341q-7 22 -30 22h-2q-13 0 -22 -9.5t-9 -22.5v-299q0 -13 -9 -22t-22 -9h-292q-13 0 -22.5 9t-9.5 22v1371q0 13 9.5 22t22.5 9h412
q117 0 205 -43.5t139 -119.5t75.5 -169.5t24.5 -203.5q0 -271 -135 -415q-12 -12 -7 -31l129 -411q5 -15 -5 -28q-9 -12 -25 -12h-297q-23 0 -30 22z" />
    <glyph glyph-name="rcaron" unicode="&#x159;" horiz-adv-x="684" 
d="M535 1383l-90 -216q-7 -17 -24 -17h-51h-2h-49q-18 0 -25 17l-90 216q-5 13 3 24q9 12 21 12h81q9 0 17 -5.5t9 -14.5l10 -126q2 -19 25 -19t25 19l11 126q2 20 25 20h81q13 0 22 -12q6 -11 1 -24zM57 1048q0 13 9.5 22t22.5 9h292q13 0 22 -9t9 -22v-94q0 -12 11 -15
q12 -3 17 7q67 119 188 131l1 2q10 0 17.5 -7t8.5 -17l27 -297q1 -13 -8 -24q-9 -10 -23 -10h-150q-43 0 -66 -51.5t-23 -133.5v-508q0 -13 -9 -22t-22 -9h-292q-13 0 -22.5 9t-9.5 22v1017z" />
    <glyph glyph-name="Sacute" unicode="&#x15a;" horiz-adv-x="942" 
d="M550 1701l-60 -173q-7 -18 -25 -18h-49q-12 0 -20 10q-8 9 -6 21l34 216q1 12 15 19q11 6 24 -1l75 -43q19 -10 12 -31zM25 389q0 25 21 31l295 95q15 5 27 -4q14 -9 14 -24l2 -38v-2q0 -44 25 -68t64 -24t63.5 24.5t24.5 68.5q0 40 -29.5 68.5t-77 47t-104.5 37
t-114 46.5t-104.5 67.5t-77 108.5t-29.5 161q0 214 124 332t319 118q188 0 313.5 -103t134.5 -285q2 -25 -22 -32l-294 -94q-15 -5 -27 4q-14 10 -14 24l-2 38v1q0 44 -25 68t-64 24t-63.5 -24.5t-24.5 -68.5q0 -40 29.5 -68.5t77 -47t104.5 -36.5t114 -46t104.5 -67.5
t77 -108.5t29.5 -161q0 -214 -124 -332.5t-319 -118.5q-188 0 -313.5 103.5t-134.5 285.5z" />
    <glyph glyph-name="sacute" unicode="&#x15b;" horiz-adv-x="929" 
d="M542 1341l-59 -174q-6 -17 -25 -17h-50q-12 0 -19 9t-6 21l34 217q1 12 15 19q11 6 24 -1l75 -43q18 -10 11 -31zM345 408q20 7 33 -10q27 -32 69.5 -41t73 0t30.5 24q0 22 -39.5 43t-98.5 37t-127.5 40.5t-127.5 52.5t-98.5 75t-39.5 106q0 164 117 254t325 90
q166 0 281.5 -74.5t153.5 -197.5q4 -12 -2 -23.5t-18 -15.5l-290 -95q-24 -8 -37 13t-36 32t-47 11t-46.5 -6t-36.5 -18t-14 -26q0 -17 29.5 -31.5t77 -27t104.5 -28t114 -39t104 -55t76.5 -81.5t29.5 -113q0 -160 -113 -232t-329 -72q-165 0 -280.5 75t-153.5 198
q-4 12 2 23t18 15z" />
    <glyph glyph-name="Scircumflex" unicode="&#x15c;" horiz-adv-x="942" 
d="M636 1546q5 -12 -2 -24q-9 -12 -22 -12h-81q-23 0 -25 20l-10 126q-2 19 -25 19t-25 -19l-11 -126q-2 -20 -25 -20h-81q-13 0 -22 12q-7 10 -2 24l90 216q7 17 24 17h50h1h51q17 0 24 -17zM25 389q-2 24 22 31l294 95q15 5 27 -4q14 -9 14 -24l2 -38v-2q0 -44 25 -68
t64 -24t63.5 24.5t24.5 68.5q0 40 -29.5 68.5t-77 47t-104.5 37t-114 46.5t-104.5 67.5t-77 108.5t-29.5 161q0 214 124 332t319 118q188 0 313.5 -103t134.5 -285q2 -25 -22 -32l-294 -94q-15 -5 -27 4q-14 10 -14 24l-2 38v1q0 44 -25 68t-64 24t-64 -24.5t-25 -68.5
q0 -40 29.5 -68.5t77 -47t105 -36.5t114.5 -46t104.5 -67.5t77 -108.5t29.5 -161q0 -214 -124.5 -332.5t-319.5 -118.5q-188 0 -313 103.5t-134 285.5z" />
    <glyph glyph-name="scircumflex" unicode="&#x15d;" horiz-adv-x="929" 
d="M629 1186q5 -12 -2 -24q-9 -12 -22 -12h-81q-23 0 -25 19l-11 127q-2 19 -25 19t-25 -19l-10 -127q-2 -19 -25 -19h-82q-12 0 -21 12q-8 11 -3 24l91 215q7 18 24 18h49h2h51q17 0 24 -18zM345 408q20 7 33 -10q27 -32 69.5 -41t73 0t30.5 24q0 22 -39.5 43t-98.5 37
t-127.5 40.5t-127.5 52.5t-98.5 75t-39.5 106q0 164 117 254t325 90q165 0 281 -75t154 -198q4 -12 -2 -23.5t-18 -15.5l-290 -95q-23 -8 -37 14q-13 21 -36 32t-47 11t-46.5 -6t-36.5 -18t-14 -26q0 -17 29.5 -31.5t77 -27t104.5 -28t114 -39t104 -55t76.5 -81.5t29.5 -113
q0 -160 -113 -232t-329 -72q-166 0 -281 74.5t-153 197.5q-4 12 2 23.5t18 15.5z" />
    <glyph glyph-name="Scedilla" unicode="&#x15e;" horiz-adv-x="942" 
d="M25 385q-2 24 22 31l294 95q15 5 27 -4q14 -9 14 -24l2 -38v-2q0 -44 25 -68t64 -24t63.5 24.5t24.5 68.5q0 40 -29.5 68.5t-77 47t-104.5 36.5t-114 46t-104.5 67.5t-77 108.5t-29.5 161q0 214 124 332.5t319 118.5q188 0 313.5 -103.5t134.5 -285.5q0 -25 -22 -31
l-294 -95q-15 -5 -27 4q-14 11 -14 24l-2 38v2q0 44 -25 68t-64 24t-64 -24.5t-25 -68.5q0 -40 29.5 -68.5t77 -47t105 -36.5t114.5 -46t104.5 -67.5t77 -108.5t29.5 -161q0 -199 -108 -315.5t-283 -132.5q5 -12 33.5 -44.5t28.5 -63.5q0 -56 -32.5 -87t-83.5 -31
q-50 0 -82.5 27t-34.5 74q0 7 5 9l78 24q3 1 7 -1q3 -2 3 -6l1 -10q0 -24 23 -24t23 24q0 18 -28.5 47t-36.5 61q-172 12 -284 114t-120 273z" />
    <glyph glyph-name="scedilla" unicode="&#x15f;" horiz-adv-x="929" 
d="M344 408q19 6 34 -10q27 -32 69.5 -41t73 0t30.5 24q0 22 -39.5 43t-98.5 37t-127.5 40.5t-127.5 52.5t-98.5 75t-39.5 106q0 164 117 254t325 90q166 0 281.5 -74.5t153.5 -197.5q4 -12 -2 -23.5t-18 -15.5l-291 -95q-23 -8 -36 13t-36 32t-47 11t-46.5 -6t-36.5 -18
t-14 -26q0 -17 29.5 -31.5t77 -27t104.5 -28t114 -39t104 -55t76.5 -81.5t29.5 -113q0 -150 -99.5 -222.5t-290.5 -80.5q6 -16 35.5 -48t29.5 -64q0 -56 -33 -87t-84 -31q-49 0 -82 27t-35 75q0 7 6 8l77 25q3 1 7 -1q3 -1 3 -6l1 -10v-1q0 -24 23 -24t23 24q0 16 -13.5 30
t-30 35t-22.5 48q-149 10 -252.5 83.5t-139.5 187.5q-4 12 2.5 23.5t18.5 15.5z" />
    <glyph glyph-name="Scaron" unicode="&#x160;" horiz-adv-x="942" 
d="M636 1743l-90 -215q-7 -18 -25 -18h-51h-1h-50q-17 0 -24 18l-90 215q-5 14 2 24q9 12 22 12h81q23 0 25 -19l11 -126q2 -19 25 -19t25 19l10 126q2 19 25 19h81q13 0 22 -12q7 -12 2 -24zM25 389q-2 24 22 31l294 95q15 5 27 -4q14 -9 14 -24l2 -38v-2q0 -44 25 -68
t64 -24t63.5 24.5t24.5 68.5q0 40 -29.5 68.5t-77 47t-104.5 37t-114 46.5t-104.5 67.5t-77 108.5t-29.5 161q0 214 124 332t319 118q188 0 313.5 -103t134.5 -285q2 -25 -22 -32l-294 -94q-15 -5 -27 4q-14 10 -14 24l-2 38v1q0 44 -25 68t-64 24t-63.5 -24.5t-24.5 -68.5
q0 -40 29.5 -68.5t77 -47t104.5 -36.5t114 -46t104.5 -67.5t77 -108.5t29.5 -161q0 -214 -124 -332.5t-319 -118.5q-188 0 -313.5 103.5t-134.5 285.5z" />
    <glyph glyph-name="scaron" unicode="&#x161;" horiz-adv-x="929" 
d="M629 1383l-91 -216q-7 -17 -24 -17h-51h-2h-49q-18 0 -25 17l-90 216q-5 13 3 24q9 12 21 12h81q23 0 25 -20l11 -126q2 -19 25 -19t25 19l11 126q2 20 25 20h81q13 0 22 -12q6 -13 2 -24zM345 408q20 6 33 -10q27 -32 69.5 -41t73 0t30.5 24q0 22 -39.5 43t-98.5 37
t-127.5 40.5t-127.5 52.5t-98.5 75t-39.5 106q0 164 117 254t325 90q165 0 281 -75t154 -198q4 -12 -2 -23.5t-18 -15.5l-291 -95q-22 -8 -36 14q-13 21 -36 32t-47 11t-46.5 -6t-36.5 -18t-14 -26q0 -17 29.5 -31.5t77 -27t104.5 -28t114 -39t104 -55t76.5 -81.5t29.5 -113
q0 -160 -113 -232t-329 -72q-166 0 -281 74.5t-153 197.5q-4 12 2 23.5t18 15.5z" />
    <glyph glyph-name="Tcedilla" unicode="&#x162;" horiz-adv-x="909" 
d="M276 1044q0 13 -9 22t-22 9h-203q-13 0 -22.5 9.5t-9.5 22.5v292q0 13 9.5 22t22.5 9h824q13 0 22 -9t9 -22v-293q0 -13 -9 -22t-22 -9h-203q-13 0 -22.5 -9t-9.5 -22v-1017q0 -13 -9 -22t-22 -9h-91q7 -14 23.5 -31t27.5 -34.5t11 -40.5q0 -56 -33 -87t-84 -31
q-49 0 -82 27t-35 75q0 6 6 8l77 25q2 1 7 -1q3 -2 3 -6l1 -10q0 -24 23 -24t23 24q0 18 -28.5 47t-36.5 59h-105q-13 0 -22 9.5t-9 22.5v1016z" />
    <glyph glyph-name="tcedilla" unicode="&#x163;" horiz-adv-x="659" 
d="M96 693q0 13 -9 22t-22 9h-17q-13 0 -22.5 9t-9.5 22v293q0 13 9.5 22t22.5 9h17q13 0 22 9t9 22v86q0 24 21 30l293 95q16 5 28 -4q13 -9 13 -26v-181q0 -13 9 -22t22 -9h89q13 0 22 -9t9 -22v-293q0 -13 -9 -22t-22 -9h-89q-13 0 -22.5 -9t-9.5 -22q-3 -333 86 -338h64
q14 0 23 -11q10 -12 9 -23l-27 -293q-1 -12 -10 -20t-21 -8q-113 0 -203 29v-1q2 -34 36 -70t34 -69q0 -56 -32.5 -87t-83.5 -31q-50 0 -83 27.5t-35 74.5q0 6 6 8l77 25q3 2 8 -1q3 -1 3 -6v-10v-1q0 -24 24 -24q23 0 23 24q0 17 -16.5 33.5t-34 42t-19.5 64.5q-1 15 -1 46
q-36 24 -64 57.5t-47 69t-32 83.5t-20.5 90.5t-11.5 101.5t-5 105t-1 112z" />
    <glyph glyph-name="Tcaron" unicode="&#x164;" horiz-adv-x="909" 
d="M620 1743l-91 -215q-7 -18 -24 -18h-51h-1h-50q-17 0 -24 18l-90 215q-5 14 2 24q9 12 22 12h81q23 0 25 -19l10 -126q2 -19 25 -19t25 19l11 126q2 19 25 19h81q13 0 22 -12q7 -13 2 -24zM277 1048q0 13 -9.5 22t-22.5 9h-203q-13 0 -22.5 9.5t-9.5 22.5v292
q0 13 9.5 22t22.5 9h824q13 0 22 -9t9 -22v-293q0 -13 -9 -22t-22 -9h-203q-13 0 -22.5 -9t-9.5 -22v-1016q0 -13 -9 -22.5t-22 -9.5h-292q-13 0 -22 9.5t-9 22.5v1016z" />
    <glyph glyph-name="tcaron" unicode="&#x165;" horiz-adv-x="757" 
d="M96 693q0 13 -9 22t-22 9h-17q-13 0 -22.5 9t-9.5 22v293q0 13 9.5 22t22.5 9h17q13 0 22 9t9 22v86q0 24 21 30l293 95q16 5 28 -4q13 -10 13 -26v-181q0 -13 9 -22t22 -9h89q9 0 18 -7q0 3 2 5l24 54q9 23 -12 33q-43 23 -69.5 65.5t-26.5 92.5q0 73 52 125.5t125 52.5
t125.5 -52.5t52.5 -125.5q0 -62 -99 -267q-7 -15 -24 -15h-124q-5 0 -13 4v-289q0 -13 -9 -22t-22 -9h-90q-13 0 -22 -9t-9 -22q-3 -333 86 -338h64q14 0 23 -11t8 -23l-27 -293q-1 -12 -10 -20t-21 -8q-96 0 -170.5 20.5t-124 51.5t-84.5 86t-54 106t-29 131.5t-12.5 142
t-2.5 155.5z" />
    <glyph glyph-name="Tbar" unicode="&#x166;" horiz-adv-x="909" 
d="M276 1048q0 13 -9 22t-22 9h-203q-13 0 -22.5 9.5t-9.5 22.5v292q0 13 9.5 22t22.5 9h824q13 0 22 -9t9 -22v-293q0 -13 -9 -22t-22 -9h-203q-13 0 -22.5 -9t-9.5 -22v-242h111q10 0 18 -8t8 -18v-125q0 -11 -8 -18.5t-18 -7.5h-111v-597q0 -13 -9 -22t-22 -9h-292
q-13 0 -22.5 9t-9.5 22v597h-111q-11 0 -18.5 7.5t-7.5 18.5v125q0 10 7.5 18t18.5 8h111v242z" />
    <glyph glyph-name="tbar" unicode="&#x167;" horiz-adv-x="692" 
d="M111 693q0 13 -9 22t-22 9h-17q-13 0 -22.5 9t-9.5 22v293q0 13 9.5 22t22.5 9h17q13 0 22 9t9 22v86q0 23 22 30l292 95q16 5 28 -4q13 -10 13 -26v-181q0 -13 9 -22t22 -9h89q13 0 22 -9t9 -22v-293q0 -13 -9 -22t-22 -9h-90q-13 0 -22 -9t-9 -22v-59h162q11 0 18.5 -8
t7.5 -18v-126q0 -10 -7.5 -18t-18.5 -8h-147q21 -98 71 -101h64q14 0 23 -10q9 -11 8 -24l-26 -292q-1 -12 -10 -20.5t-21 -8.5q-104 0 -183 23t-129.5 62t-84.5 99t-50 124.5t-23 148.5h-69q-10 0 -17.5 7.5t-7.5 18.5v125q0 11 7.5 18.5t17.5 7.5h61v59z" />
    <glyph glyph-name="Utilde" unicode="&#x168;" horiz-adv-x="983" 
d="M227 1580q-17 -8 -32 5q-14 12 -5 32q26 51 62 77t75 27t84.5 -8t89.5 -27.5t90.5 -31.5t87.5 -20t80 6q18 5 29 -7q12 -14 4 -30q-23 -50 -55 -72.5t-68.5 -20.5t-77 16t-86 32.5t-90 32t-94.5 12.5t-94 -23zM47 717h1v686q0 13 9 22t22 9h292q13 0 22 -9t9 -22v-686
q0 -5 -0.5 -29.5t0 -43t1 -50t3 -56t6 -54t10.5 -51t16 -40t22.5 -28.5t30.5 -10t30.5 10t22.5 28.5t16 40t10.5 51t6 54t3 56t1 50t0 43t-0.5 29.5v686q0 13 9 22t22 9h292q13 0 22 -9t9 -22v-686q0 -72 -0.5 -113t-4.5 -110t-12 -111t-23.5 -100.5t-37 -94t-55.5 -75.5
t-77 -62t-102 -36.5t-131 -14.5q-91 0 -162.5 24t-117.5 58.5t-78.5 97t-49 114t-25 138t-10 139.5t-1.5 146z" />
    <glyph glyph-name="utilde" unicode="&#x169;" horiz-adv-x="989" 
d="M223 1219q-18 -8 -32 6q-13 13 -5 31q26 51 62 77t75 27t84.5 -7.5t89.5 -27t90.5 -31.5t87.5 -20t80 6q18 5 29 -8q12 -14 4 -30q-23 -50 -55 -72.5t-68.5 -20.5t-77 16t-86 32.5t-90 32t-94.5 12.5t-94 -23zM43 539v509q0 13 9 22t22 9h293q13 0 22 -9t9 -22v-509
q0 -82 23.5 -133t65.5 -51q43 0 65.5 50.5t22.5 133.5v509q0 13 9.5 22t22.5 9h292q13 0 22 -9t9 -22v-1017q0 -13 -9 -22t-22 -9h-292q-13 0 -22.5 9t-9.5 22v93q0 12 -11 15q-12 3 -17 -7q-75 -132 -212 -132q-142 0 -217 143t-75 396z" />
    <glyph glyph-name="Umacron" unicode="&#x16a;" horiz-adv-x="983" 
d="M202 1510q-10 0 -18 8t-8 18v126q0 10 8 18t18 8h577q11 0 18.5 -8t7.5 -18v-126q0 -10 -7.5 -18t-18.5 -8h-577zM47 717v686q0 13 9.5 22t22.5 9h292q13 0 22 -9t9 -22v-686q0 -5 -0.5 -29.5t0 -43t1 -50t3 -56t6 -54t10.5 -51t16 -40t22.5 -28.5t30.5 -10t30.5 10
t22.5 28.5t16 40t10.5 51t6 54t3 56t1 50t0 43t-0.5 29.5v686q0 13 9 22t22 9h292q13 0 22 -9t9 -22v-686q0 -93 -1.5 -146t-10 -139.5t-25 -138t-48.5 -114t-78.5 -97t-117.5 -58.5t-162 -24t-162.5 24t-117.5 58.5t-78.5 97t-49 114t-25 138t-10 139.5t-1.5 146z" />
    <glyph glyph-name="umacron" unicode="&#x16b;" horiz-adv-x="989" 
d="M198 1150q-10 0 -18 8t-8 18v125q0 11 8 18.5t18 7.5h577q11 0 18.5 -7.5t7.5 -18.5v-125q0 -10 -7.5 -18t-18.5 -8h-577zM43 539v509q0 13 9 22t22 9h292q13 0 22.5 -9t9.5 -22v-509q0 -82 23 -133t65 -51q43 0 66 51t23 133v509q0 13 9.5 22t22.5 9h292q13 0 22 -9
t9 -22v-1017q0 -13 -9 -22t-22 -9h-292q-13 0 -22.5 9t-9.5 22v93q0 12 -11 15q-12 3 -17 -7q-75 -132 -213 -132q-142 0 -216.5 143t-74.5 396z" />
    <glyph glyph-name="Ubreve" unicode="&#x16c;" horiz-adv-x="983" 
d="M326 1648q-2 12 6 21t20 9h31q20 0 25 -20q7 -28 30 -46.5t53 -18.5t52.5 18.5t29.5 46.5q5 20 26 20h31q12 0 20 -9q7 -8 5 -21q-11 -59 -57 -98t-107 -39t-107.5 39t-57.5 98zM47 717v686q0 13 9 22t22 9h293q13 0 22 -9t9 -22v-686q0 -5 -0.5 -29.5t0 -43t1 -50t3 -56
t6 -54t10.5 -51t16 -40t22.5 -28.5t30.5 -10q16 0 29.5 10t22.5 29t16 40t11 51t6.5 54t3 56t1 50t0 43t-0.5 29v686q0 13 9 22t22 9h292q13 0 22 -9t9 -22v-686q0 -93 -1.5 -146t-10 -139.5t-25 -138t-48.5 -114t-78.5 -97t-117.5 -58.5t-162 -24t-162 24t-117.5 58.5
t-79 97t-49 114.5t-25 137.5t-10 139.5t-1.5 146z" />
    <glyph glyph-name="ubreve" unicode="&#x16d;" horiz-adv-x="989" 
d="M322 1287q-2 13 5 21q8 10 20 10h32q20 0 25 -20q7 -28 30 -47t52 -19q30 0 53 19t30 47q5 20 25 20h32q12 0 20 -10q7 -8 5 -21q-11 -59 -57 -98t-107 -39t-107.5 39t-57.5 98zM43 539v509q0 13 9.5 22t22.5 9h292q13 0 22 -9t9 -22v-509q0 -82 23.5 -133t65.5 -51
q43 0 65.5 50.5t22.5 133.5v509q0 13 9.5 22t22.5 9h292q13 0 22 -9t9 -22v-1017q0 -13 -9 -22t-22 -9h-292q-13 0 -22.5 9t-9.5 22v93q0 12 -11 15q-12 3 -17 -7q-75 -132 -212 -132q-142 0 -217 143t-75 396z" />
    <glyph glyph-name="Uring" unicode="&#x16e;" horiz-adv-x="983" 
d="M903 1434q13 0 22 -9.5t9 -22.5v-685q0 -72 -0.5 -113t-4.5 -110t-12 -111t-23.5 -100.5t-37 -94t-55.5 -75.5t-77 -62t-102 -36.5t-131 -14.5q-91 0 -162.5 24t-117.5 58.5t-78.5 97t-49 114t-25 138t-10 139.5t-1.5 146v685q0 13 9 22.5t22 9.5h293q13 0 22 -9.5
t9 -22.5v-685q0 -5 -0.5 -29t-0.5 -43t0.5 -50t3 -56t6.5 -54t10.5 -51t15.5 -40.5t22.5 -28.5t30.5 -10t30.5 10t22.5 28.5t16 40t10.5 51t6 54t3 56t1 50t0 43t-0.5 29.5v685q0 13 9.5 22.5t22.5 9.5h292zM491 1510q-70 0 -119 49t-49 119q0 69 49 118t119 49t118.5 -49
t48.5 -118q0 -70 -48.5 -119t-118.5 -49zM491 1762q-35 0 -60 -24.5t-25 -59.5t25 -60t60 -25t59.5 25t24.5 60t-24.5 59.5t-59.5 24.5z" />
    <glyph glyph-name="uring" unicode="&#x16f;" horiz-adv-x="989" 
d="M899 1079q13 0 22 -9t9 -22v-1017q0 -13 -9 -22t-22 -9h-292q-13 0 -22.5 9t-9.5 22v94q0 11 -11 14q-12 3 -17 -7q-75 -132 -213 -132q-141 0 -216 143.5t-75 396.5v508q0 13 9 22t22 9h292q13 0 22.5 -9t9.5 -22v-508q0 -82 23.5 -133.5t65.5 -51.5q43 0 65.5 51
t22.5 134v508q0 13 9.5 22t22.5 9h292zM487 1150q-70 0 -119 49t-49 118q0 70 49 119t119 49t118.5 -49t48.5 -119q0 -69 -48.5 -118t-118.5 -49zM487 1402q-35 0 -60 -25t-25 -60t25 -59.5t60 -24.5t59.5 24.5t24.5 59.5t-24.5 60t-59.5 25z" />
    <glyph glyph-name="Uhungarumlaut" unicode="&#x170;" horiz-adv-x="983" 
d="M531 1757q1 12 15 19q11 6 24 -1l75 -43q18 -10 11 -31l-59 -173q-7 -18 -25 -18h-50q-11 0 -19 10q-7 9 -6 21zM358 1757q1 13 14 19q11 6 24 -1l76 -43q18 -10 11 -31l-60 -173q-7 -18 -24 -18h-50q-12 0 -20 10q-7 8 -5 21zM47 717v686q0 13 9.5 22t22.5 9h292
q13 0 22 -9t9 -22v-686q0 -5 -0.5 -29.5t0 -43t1 -50t3 -56t6 -54t10.5 -51t16 -40t22.5 -28.5t30.5 -10t30.5 10t22.5 28.5t15.5 40.5t10.5 51t6.5 54t3 56t0.5 50t-0.5 43t-0.5 29v686q0 13 9.5 22t22.5 9h292q13 0 22 -9t9 -22v-686q0 -93 -1.5 -146t-10 -139.5t-25 -138
t-48.5 -114t-78.5 -97t-117.5 -58.5t-162 -24t-162.5 24t-117.5 58.5t-78.5 97t-49 114t-25 138t-10 139.5t-1.5 146z" />
    <glyph glyph-name="uhungarumlaut" unicode="&#x171;" horiz-adv-x="989" 
d="M527 1397q1 13 14 19q11 6 24 -1l75 -43q19 -10 12 -31l-60 -174q-5 -17 -24 -17h-50q-12 0 -19 9t-6 21zM354 1397q1 12 15 19q11 6 24 -1l75 -43q18 -10 11 -31l-59 -174q-6 -17 -25 -17h-50q-11 0 -19 9t-6 21zM43 539v509q0 13 9 22t22 9h293q13 0 22 -9t9 -22v-509
q0 -82 23.5 -133t65.5 -51q43 0 65.5 50.5t22.5 133.5v509q0 13 9.5 22t22.5 9h292q13 0 22 -9t9 -22v-1017q0 -13 -9 -22t-22 -9h-292q-13 0 -22.5 9t-9.5 22v93q0 12 -11 15q-12 3 -17 -7q-75 -132 -213 -132q-142 0 -216.5 143t-74.5 396z" />
    <glyph glyph-name="Uogonek" unicode="&#x172;" horiz-adv-x="983" 
d="M47 713h1v686q0 13 9 22t22 9h292q13 0 22.5 -9t9.5 -22v-686q0 -5 -0.5 -29t-0.5 -43t0.5 -50t3 -56t6.5 -54t10.5 -51t15.5 -40.5t22.5 -28.5t30.5 -10t30.5 10t22.5 28.5t16 40t10.5 51t6 54t3 56t1 50t0 43t-0.5 29.5v686q0 13 9 22t22 9h292q13 0 22.5 -9t9.5 -22
v-685q0 -90 -1.5 -142.5t-9.5 -137t-23.5 -135.5t-46 -113.5t-73.5 -98t-110 -61.5t-153 -29q-7 -11 -18 -27.5t-15 -23.5t-9.5 -17.5t-7 -19t-1.5 -19.5q0 -24 23 -24q24 0 24 24v1v10q0 4 4 6t7 1l77 -25q5 -1 5 -8q-2 -47 -35 -74.5t-82 -27.5q-51 0 -83.5 31t-32.5 87
q0 15 1.5 27t8.5 25t9.5 17t15.5 21t15 19q-78 8 -138.5 36.5t-99.5 64.5t-66.5 98t-41.5 111.5t-21.5 132t-8.5 132.5t-1 138z" />
    <glyph glyph-name="uogonek" unicode="&#x173;" horiz-adv-x="989" 
d="M43 539h1v509q0 13 9 22t22 9h292q13 0 22.5 -9t9.5 -22v-509q0 -82 23 -133t65 -51q43 0 66 51t23 133v509q0 13 9 22t22 9h292q13 0 22.5 -9t9.5 -22v-1017q0 -13 -9.5 -22t-22.5 -9h-247q-8 -12 -19 -29.5t-15.5 -24.5t-10 -18t-7 -20t-1.5 -20q0 -25 23 -25t23 25
l1 10q0 6 3 7q5 2 7 1l78 -25q5 -2 5 -8q-2 -47 -35 -74.5t-82 -27.5q-52 0 -84.5 30.5t-32.5 87.5q0 29 9 48t29 44.5t32 45.5l1 1v1q-1 1 -1 2v93q0 12 -11 15q-12 3 -17 -7q-75 -132 -212 -132q-142 0 -217 143t-75 396z" />
    <glyph glyph-name="Wcircumflex" unicode="&#x174;" horiz-adv-x="1449" 
d="M890 1546q5 -12 -2 -24q-9 -12 -22 -12h-81q-23 0 -25 20l-10 126q-2 19 -26 19q-23 0 -25 -19l-10 -126q-2 -20 -25 -20h-81q-13 0 -22 12q-7 10 -2 24l90 216q7 17 24 17h50h1h51q18 0 25 -17zM750 1058q-2 21 -25 21q-22 0 -24 -21l-62 -1028q-1 -12 -10 -20.5
t-22 -8.5h-407q-12 0 -21 7.5t-10 19.5l-152 1372q-2 14 7 24t24 10h287q12 0 21 -8.5t10 -20.5l66 -1027q2 -22 25 -22q22 0 24 22l65 1027q1 12 10.5 20.5t21.5 8.5h293q12 0 21 -8.5t10 -20.5l66 -1027q2 -22 24 -22t24 22l66 1027q1 12 10 20.5t21 8.5h288q14 0 23 -10
q9 -11 8 -24l-152 -1372q-1 -12 -10 -19.5t-21 -7.5h-405q-12 0 -21 8.5t-10 20.5z" />
    <glyph glyph-name="wcircumflex" unicode="&#x175;" horiz-adv-x="1441" 
d="M886 1186q5 -12 -2 -24q-9 -12 -21 -12h-81q-24 0 -26 19l-10 127q-2 19 -25 19t-25 -19l-10 -127q-2 -19 -26 -19h-81q-12 0 -21 12q-8 11 -3 24l90 215q7 18 25 18h49h2h51q17 0 24 -18zM15 1043q-2 15 8 25q9 11 23 11h288q12 0 21 -8t10 -20l64 -674q2 -22 25 -22
q22 0 24 22l65 674q1 12 10 20t21 8h295q12 0 21 -8t10 -20l64 -674q2 -22 25 -22q22 0 24 22l64 674q1 12 10.5 20t21.5 8h287q14 0 23 -11q10 -11 8 -25l-150 -1016q-1 -12 -10 -19.5t-21 -7.5h-407q-12 0 -21 8.5t-10 20.5l-62 673q-2 22 -24 22t-24 -22l-62 -674
q-1 -12 -10 -20t-21 -8h-410q-12 0 -21 7.5t-10 19.5z" />
    <glyph glyph-name="Ycircumflex" unicode="&#x176;" horiz-adv-x="884" 
d="M608 1546q5 -13 -1 -24q-9 -12 -22 -12h-81q-23 0 -25 20l-10 126q-2 19 -26 19q-23 0 -25 -19l-10 -126q-2 -20 -25 -20h-82q-12 0 -21 12q-8 11 -3 24l90 216q7 17 25 17h49h2h51q17 0 24 -17zM266 676q0 7 -2 11q-220 609 -252 706q-5 16 4 28q10 13 26 13h305
q12 0 21 -8t10 -20l41 -490q1 -9 8 -15t16 -6q23 0 25 21l41 490q1 12 10 20t21 8h303q17 0 26 -13t4 -29l-250 -699q-2 -8 -2 -10v-651q0 -13 -9 -22t-22 -9h-292q-13 0 -22.5 9t-9.5 22v644z" />
    <glyph glyph-name="ycircumflex" unicode="&#x177;" horiz-adv-x="987" 
d="M652 1186q5 -12 -2 -24q-9 -12 -21 -12h-82q-23 0 -25 19l-10 127q-2 19 -25 19t-25 -19l-11 -127q-2 -19 -25 -19h-81q-13 0 -22 12q-7 10 -2 24l90 215q7 18 24 18h50h1h51q18 0 25 -18zM575 114v10q0 12 -11 15q-12 3 -17 -7q-75 -132 -213 -132q-142 0 -216.5 143
t-74.5 396v509q0 13 9 22t22 9h292q13 0 22.5 -9t9.5 -22v-509q0 -82 23 -133t65 -51q43 0 66 51t23 133v509q0 13 9 22t22 9h292q13 0 22.5 -9t9.5 -22v-935q0 -130 -25 -227.5t-65 -156t-99.5 -94.5t-120 -48.5t-134.5 -12.5q-139 0 -241 53t-155 186q-5 14 0 25
q6 12 19 16l300 98q17 6 30 -6q18 -17 47 -17q89 0 89 185z" />
    <glyph glyph-name="Ydieresis" unicode="&#x178;" horiz-adv-x="884" 
d="M243 1510q-73 0 -125 52.5t-52 125.5t52 125t125 52t125.5 -52t52.5 -125t-52.5 -125.5t-125.5 -52.5zM463 1688q0 73 52.5 125t125.5 52t125 -52t52 -125t-52 -125.5t-125 -52.5t-125.5 52.5t-52.5 125.5zM266 676q0 3 -2 11q-220 609 -252 706q-5 16 4 28q10 13 26 13
h305q12 0 21 -8t10 -20l41 -490q2 -21 24 -21q23 0 25 21l41 490q1 12 10 20t21 8h302q17 0 26 -13t4 -29l-250 -699q-1 -4 -1 -10v-651q0 -13 -9.5 -22t-22.5 -9h-292q-13 0 -22 9t-9 22v644z" />
    <glyph glyph-name="Zacute" unicode="&#x179;" horiz-adv-x="946" 
d="M551 1701l-60 -173q-7 -18 -24 -18h-50q-11 0 -19 10q-8 9 -6 21l34 216q1 13 14 19q11 6 24 -1l75 -43q19 -10 12 -31zM29 346q0 11 5 17l430 668q10 17 1 32q-10 16 -28 16h-377q-13 0 -22 9.5t-9 22.5v292q0 13 9 22t22 9h825q13 0 22 -9t9 -22v-314q0 -9 -5 -17
l-430 -668q-10 -17 -1 -32q8 -17 27 -17h378q13 0 22 -9t9 -22v-292q0 -13 -9 -22.5t-22 -9.5h-825q-13 0 -22 9.5t-9 22.5v314z" />
    <glyph glyph-name="zacute" unicode="&#x17a;" horiz-adv-x="970" 
d="M564 1341l-60 -174q-6 -17 -24 -17h-50q-12 0 -19 9t-6 21l34 217q1 12 15 19q11 6 24 -1l75 -43q18 -10 11 -31zM41 342q0 12 10 22l314 306q15 15 7 35q-8 19 -29 19h-271q-13 0 -22 9t-9 22v293q0 13 9 22t22 9h825q13 0 22 -9t9 -22v-311q0 -13 -9 -22l-315 -306
q-15 -15 -7 -34q8 -20 29 -20h271q13 0 22 -9t9 -22v-293q0 -13 -9 -22t-22 -9h-825q-13 0 -22 9t-9 22v311z" />
    <glyph glyph-name="Zdot" unicode="&#x17b;" horiz-adv-x="946" 
d="M295 1688q0 73 52 125t125 52t125.5 -52t52.5 -125t-52.5 -125.5t-125.5 -52.5t-125 52.5t-52 125.5zM29 346q0 9 5 17l429 668q11 18 2 32q-8 16 -28 16h-377q-13 0 -22 9.5t-9 22.5v292q0 13 9 22t22 9h825q13 0 22 -9t9 -22v-314q0 -9 -5 -17l-430 -668
q-10 -17 -1 -32q8 -17 27 -17h378q13 0 22 -9t9 -22v-292q0 -13 -9 -22.5t-22 -9.5h-825q-13 0 -22 9.5t-9 22.5v314z" />
    <glyph glyph-name="zdot" unicode="&#x17c;" horiz-adv-x="970" 
d="M307 1327q0 73 52.5 125.5t125.5 52.5t125 -52.5t52 -125.5t-52 -125t-125 -52t-125.5 52t-52.5 125zM41 342q0 12 10 22l314 306q15 15 7 35q-8 19 -29 19h-271q-13 0 -22 9t-9 22v293q0 13 9 22t22 9h825q13 0 22 -9t9 -22v-311q0 -13 -9 -22l-315 -306q-15 -15 -7 -34
q8 -20 29 -20h271q13 0 22 -9t9 -22v-293q0 -13 -9 -22t-22 -9h-825q-13 0 -22 9t-9 22v311z" />
    <glyph glyph-name="Zcaron" unicode="&#x17d;" horiz-adv-x="946" 
d="M638 1743l-90 -215q-7 -18 -25 -18h-51h-1h-50q-17 0 -24 18l-90 215q-5 14 2 24q9 12 21 12h82q23 0 25 -19l10 -126q2 -19 25 -19t25 19l11 126q2 19 25 19h81q13 0 22 -12q7 -12 2 -24zM29 346q0 10 4 17l430 668q10 17 1 32q-8 16 -27 16h-377q-13 0 -22 9.5t-9 22.5
v292q0 13 9 22t22 9h825q13 0 22 -9t9 -22v-314q0 -9 -5 -17l-430 -668q-10 -17 -1 -32q10 -17 27 -17h378q13 0 22 -9t9 -22v-292q0 -13 -9 -22.5t-22 -9.5h-825q-13 0 -22 9.5t-9 22.5v314z" />
    <glyph glyph-name="zcaron" unicode="&#x17e;" horiz-adv-x="970" 
d="M650 1383l-90 -216q-7 -17 -24 -17h-52h-1h-50q-17 0 -24 17l-90 216q-5 14 2 24q9 12 22 12h81q23 0 25 -20l10 -126q2 -19 25 -19t25 19l11 126q2 20 25 20h81q13 0 22 -12q7 -11 2 -24zM41 342q0 12 10 22l314 306q15 15 7 35q-8 19 -29 19h-271q-13 0 -22 9t-9 22
v293q0 13 9 22t22 9h825q13 0 22 -9t9 -22v-311q0 -13 -9 -22l-315 -306q-15 -15 -7 -34q8 -20 29 -20h271q13 0 22 -9t9 -22v-293q0 -13 -9 -22t-22 -9h-825q-13 0 -22 9t-9 22v311z" />
    <glyph glyph-name="arrowheadupmod" unicode="&#x2c4;" horiz-adv-x="696" 
d="M288 953q8 13 23 13h74q14 0 22 -13l258 -446q8 -13 0 -26t-23 -13h-145q-14 0 -22 13l-105 182q-8 13 -23 13q-14 0 -22 -13l-105 -182q-8 -13 -22 -13h-145q-15 0 -23 13t0 26z" />
    <glyph glyph-name="arrowheaddownmod" unicode="&#x2c5;" horiz-adv-x="692" 
d="M28 928q-7 11 0 25q8 13 22 13h145q15 0 23 -13l105 -181q9 -14 22 -14q14 0 23 14l105 181q8 13 22 13h145q15 0 23 -13t0 -25l-258 -447q-8 -13 -23 -13h-74q-14 0 -22 13z" />
    <glyph glyph-name="breve" unicode="&#x2d8;" horiz-adv-x="397" 
d="M33 1403q-2 13 6 22q7 9 20 9h31q20 0 25 -20q7 -28 30 -46.5t53 -18.5t53 18.5t30 46.5q5 20 25 20h31q13 0 20 -9q8 -9 6 -22q-11 -59 -57.5 -97.5t-107.5 -38.5t-107.5 38.5t-57.5 97.5z" />
    <glyph glyph-name="dotaccent" unicode="&#x2d9;" horiz-adv-x="434" 
d="M216 1434q73 0 125.5 -52.5t52.5 -125.5t-52.5 -125t-125.5 -52q-74 0 -125.5 51.5t-51.5 125.5q0 73 52 125.5t125 52.5z" />
    <glyph glyph-name="ring" unicode="&#x2da;" horiz-adv-x="413" 
d="M206 1435q70 0 119 -49t49 -119q0 -69 -49 -118t-119 -49q-69 0 -118 48.5t-49 118.5t49 119t118 49zM206 1183q35 0 60 24.5t25 59.5t-25 60t-60 25t-59.5 -25t-24.5 -60t24.5 -59.5t59.5 -24.5z" />
    <glyph glyph-name="ogonek" unicode="&#x2db;" horiz-adv-x="165" 
d="M48 35q4 8 8 8l77 1q4 0 6 -2q3 -6 2 -7q-14 -24 -30 -49t-23 -35.5t-12 -25t-5 -29.5q0 -25 23 -25t23 24v1l1 10q0 4 3 6q5 2 8 1l77 -25q5 -1 5 -8q-2 -47 -35 -74.5t-82 -27.5q-52 0 -84.5 30.5t-32.5 87.5q0 29 9 48.5t29.5 45t32.5 45.5z" />
    <glyph glyph-name="ilde" unicode="&#x2dc;" horiz-adv-x="677" 
d="M74 1161q-17 -8 -31 5q-14 12 -5 31q26 51 62 77t75 27t84 -7.5t89 -27t90.5 -31.5t87.5 -20t80 6q18 5 29 -8q12 -14 4 -30q-23 -50 -55 -72.5t-68.5 -20t-77 16t-86 32.5t-90 32.5t-94.5 12.5t-94 -23z" />
    <glyph glyph-name="hungarumlaut" unicode="&#x2dd;" horiz-adv-x="409" 
d="M244 1397q1 12 15 19q11 6 24 -1l75 -43q19 -10 12 -31l-60 -173q-7 -18 -25 -18h-49q-12 0 -20 9t-6 21zM71 1397q1 12 15 19q11 6 24 -1l75 -43q18 -10 11 -31l-59 -173q-5 -18 -25 -18h-49q-13 0 -20 9t-6 21z" />
    <glyph glyph-name="thousandcyrillic" unicode="&#x482;" horiz-adv-x="878" 
d="M340 679l33 121q3 10 -2.5 19.5t-16.5 12.5l-249 66q-11 3 -16 12.5t-2 19.5l32 121q3 11 12.5 16.5t19.5 2.5l249 -67q10 -3 19.5 2t12.5 16l106 394q5 19 25 19h124q13 0 20 -10q7 -9 4 -23l-113 -424q-3 -10 2 -19.5t16 -12.5l249 -66q11 -3 16.5 -12.5t2.5 -19.5
l-33 -122q-3 -11 -12.5 -16t-19.5 -2l-249 67q-10 3 -19.5 -2t-12.5 -16l-32 -122q-3 -10 2 -19t16 -12l249 -67q11 -3 16.5 -12.5t2.5 -19.5l-33 -121q-3 -11 -12 -16.5t-19 -2.5l-250 67q-10 3 -19.5 -2t-12.5 -16l-105 -394q-5 -19 -25 -19h-124q-13 0 -20 10
q-8 10 -5 23l114 424q5 25 -19 32l-249 67q-11 3 -16 12.5t-2 19.5l32 121q3 11 12.5 16t19.5 2l249 -67q10 -3 19.5 2.5t12.5 16.5z" />
    <glyph glyph-name="dagger" unicode="&#x2020;" horiz-adv-x="1232" 
d="M528 1231q0 10 -7.5 17.5t-18.5 7.5h-374q-10 0 -18 8t-8 18v126q0 10 8 18t18 8h374q10 0 18 8t8 18v125q0 11 7.5 18.5t17.5 7.5h126q11 0 18.5 -7.5t7.5 -18.5v-125q0 -10 7.5 -18t18.5 -8h373q10 0 18 -8t8 -18v-126q0 -10 -8 -18t-18 -8h-373q-11 0 -18.5 -7.5
t-7.5 -17.5v-1382q0 -11 -7.5 -18.5t-18.5 -7.5h-126q-10 0 -17.5 7.5t-7.5 18.5v1382z" />
    <glyph glyph-name="daggerdbl" unicode="&#x2021;" horiz-adv-x="1232" 
d="M528 1231q0 10 -7.5 17.5t-18.5 7.5h-374q-10 0 -18 8t-8 18v126q0 10 8 18t18 8h374q10 0 18 8t8 18v125q0 11 7.5 18.5t17.5 7.5h126q11 0 18.5 -7.5t7.5 -18.5v-125q0 -10 7.5 -18t18.5 -8h373q10 0 18 -8t8 -18v-126q0 -10 -8 -18t-18 -8h-373q-11 0 -18.5 -7.5
t-7.5 -17.5v-1027q0 -10 7.5 -18t18.5 -8h373q10 0 18 -8t8 -18v-126q0 -10 -8 -18t-18 -8h-373q-11 0 -18.5 -7.5t-7.5 -17.5v-126q0 -11 -7.5 -18.5t-18.5 -7.5h-126q-10 0 -17.5 7.5t-7.5 18.5v126q0 10 -7.5 17.5t-18.5 7.5h-374q-10 0 -18 8t-8 18v126q0 10 8 18t18 8
h374q10 0 18 8t8 18v1027z" />
    <glyph glyph-name="bullet" unicode="&#x2022;" horiz-adv-x="606" 
d="M302 978q108 0 184.5 -76.5t76.5 -184.5t-76.5 -184.5t-184.5 -76.5t-184.5 76.5t-76.5 184.5t76.5 184.5t184.5 76.5z" />
    <glyph glyph-name="ellipsis" unicode="&#x2026;" horiz-adv-x="1499" 
d="M749 355q73 0 125 -52t52 -125t-52 -125.5t-125 -52.5t-125.5 52.5t-52.5 125.5t52.5 125t125.5 52zM1281 355q73 0 125 -52t52 -125t-52 -125.5t-125 -52.5t-125.5 52.5t-52.5 125.5t52 125t126 52zM216 355q73 0 125.5 -52t52.5 -125t-52.5 -125.5t-125.5 -52.5
t-125 52.5t-52 125.5t52 125t125 52z" />
    <glyph glyph-name="perthousand" unicode="&#x2030;" horiz-adv-x="2140" 
d="M333 931q61 0 61 128t-61 128q-62 0 -62 -128t62 -128zM1012 1425q4 9 16 9h137q10 0 15 -9q5 -8 0 -17l-749 -1398q-5 -10 -15 -10h-137q-11 0 -16 9t0 18zM1049 375q0 -128 62 -128q61 0 61 128t-61 128q-62 0 -62 -128zM1111 750q65 0 116 -15.5t96.5 -54.5t70.5 -116
t25 -189t-25 -189t-70.5 -116t-96.5 -54.5t-116 -15.5t-116 15.5t-96.5 54.5t-70.5 116t-25 189t25 189t70.5 116t96.5 54.5t116 15.5zM1808 247q61 0 61 128t-61 128q-62 0 -62 -128t62 -128zM1808 750q65 0 116 -15.5t96.5 -54.5t70.5 -116t25 -189t-25 -189t-70.5 -116
t-96.5 -54.5t-116 -15.5t-116 15.5t-96.5 54.5t-70.5 116t-25 189t25 189t70.5 116t96.5 54.5t116 15.5zM25 1059q0 112 25 189t70.5 116t96.5 54.5t116 15.5t116 -15.5t96.5 -54.5t70.5 -116t25 -189t-25 -189t-70.5 -115.5t-96 -54t-116.5 -15.5t-116.5 15.5t-96 54
t-70.5 115.5t-25 189z" />
    <glyph glyph-name="exclamdbl" unicode="&#x203c;" horiz-adv-x="958" 
d="M237 355q73 0 125 -52t52 -125q0 -74 -52 -126t-125 -52t-125.5 52.5t-52.5 125.5t52.5 125t125.5 52zM60 1403q0 13 9 22t22 9h292q13 0 22 -9t9 -22v-946q0 -13 -9 -22t-22 -9h-292q-13 0 -22 9t-9 22v946zM897 178q0 -73 -52.5 -125.5t-125.5 -52.5t-125 52.5
t-52 125.5q0 74 52 125.5t125 51.5t125.5 -52t52.5 -125zM542 1403q0 13 9 22t22 9h293q13 0 22 -9t9 -22v-946q0 -13 -9 -22t-22 -9h-293q-13 0 -22 9t-9 22v946z" />
    <glyph glyph-name="zerosuperior" unicode="&#x2070;" horiz-adv-x="577" 
d="M288 853q9 0 16 5.5t12 15.5t9 21.5t6 27.5t3 29t1.5 30t0.5 27v23.5v15.5q0 29 -0.5 44.5t-1.5 43t-4 43t-8 32t-13.5 24.5t-20.5 8t-20.5 -8t-13.5 -24.5t-8 -32t-4 -43t-1.5 -43t-0.5 -44.5v-15.5v-23.5t0.5 -27t1.5 -30t3 -29t6 -27.5t9 -21.5t12 -15.5t16 -5.5z
M49 1048q0 38 0.5 61t2.5 59.5t6.5 59.5t12.5 54t20 50.5t30 41t41.5 33t55.5 19.5t70 8t70 -8t55.5 -19.5t41.5 -33t30 -41t20 -50.5t12.5 -54t6.5 -59.5t2.5 -59.5t0.5 -61t-0.5 -61t-2.5 -59.5t-6.5 -59.5t-12.5 -54t-20 -50.5t-30 -41t-41.5 -33t-55.5 -19.5t-70 -8
t-70 8t-55.5 19.5t-41.5 33t-30 41t-20 50.5t-12.5 54t-6.5 59.5t-2.5 59.5t-0.5 61z" />
    <glyph glyph-name="foursuperior" unicode="&#x2074;" horiz-adv-x="630" 
d="M328 1238q0 7 -9 11q-10 2 -12 -6l-69 -258q-2 -9 3 -15q5 -7 13 -7h57q7 0 12 5t5 12v258zM328 802q0 7 -5 12t-12 5h-253q-7 0 -12 5t-5 12v124q0 4 1 6l187 458q3 10 16 10h257q7 0 12 -5t5 -12v-437q0 -7 5 -12t12 -5h35q7 0 12 -5t5 -12v-111q0 -7 -5 -11.5
t-12 -4.5h-35q-7 0 -12 -5t-5 -12v-124q0 -7 -5 -12t-12 -5h-158q-7 0 -11.5 5t-4.5 12v124z" />
    <glyph glyph-name="fivesuperior" unicode="&#x2075;" horiz-adv-x="575" 
d="M49 871q0 12 11 17l159 51q8 3 15 -2t7 -13l1 -20v-1q0 -23 13.5 -36.5t34.5 -13.5t34.5 13t13.5 37q0 25 -13 49t-35 24h-220q-7 0 -12 5t-5 12v424q0 7 5 12t12 5h394q7 0 12 -5t5 -12v-157q0 -7 -5 -12t-12 -5h-203q-7 0 -12 -5t-5 -12v-89q0 -7 5 -12t12 -5
q49 -1 86 -5.5t73 -18.5t58.5 -37t36.5 -62t14 -92q0 -115 -67 -179t-172 -64q-101 0 -169 55.5t-72 153.5z" />
    <glyph glyph-name="sixsuperior" unicode="&#x2076;" horiz-adv-x="569" 
d="M288 853q21 0 34.5 13t13.5 37q0 26 -6.5 42t-21 22.5t-27 7.5t-35.5 1q-6 0 -12 -6q-4 -4 -4 -12q8 -105 58 -105zM370 1434q14 0 17 -14l36 -157q2 -8 -3 -14q-5 -7 -13 -7q-124 -7 -159 -100q-3 -8 2 -16q4 -7 13 -7q48 -1 84 -5.5t71.5 -18.5t58 -37t36.5 -62t14 -92
q0 -115 -67 -178.5t-172 -63.5q-129 0 -196 126q-62 118 -43 280q20 169 117 272q84 89 204 94z" />
    <glyph glyph-name="sevensuperior" unicode="&#x2077;" horiz-adv-x="552" 
d="M303 1204q3 7 -2 15q-4 7 -14 7h-235q-7 0 -12 5t-5 12v157q0 7 5 12t12 5h442q7 0 11.5 -5t4.5 -12v-171q0 -4 -1 -6l-197 -550q-3 -11 -15 -11h-165q-9 0 -13 7q-5 7 -2 15z" />
    <glyph glyph-name="eightsuperior" unicode="&#x2078;" horiz-adv-x="577" 
d="M289 1120q24 0 39 31t5.5 61.5t-44.5 30.5t-44.5 -30.5t5.5 -61.5t39 -31zM289 853q35 0 44.5 30.5t-5.5 61.5t-39 31t-39 -31t-5.5 -61.5t44.5 -30.5zM198 1037q7 0 7 11t-7 11q-98 0 -135 78q-34 71 1 155q37 89 128 125q44 17 97 17q128 0 197 -93q55 -74 42 -159
q-13 -83 -84 -111q-29 -12 -65 -12q-6 0 -6 -11t6 -11q97 0 134 -78q33 -71 -2 -155q-36 -89 -126 -125q-44 -17 -96 -17q-126 0 -195 93q-55 75 -43 159q12 83 83 112q29 11 64 11z" />
    <glyph glyph-name="ninesuperior" unicode="&#x2079;" horiz-adv-x="569" 
d="M322 1120q7 0 12 5q4 4 4 13q-6 104 -58 104q-21 0 -34.5 -13t-13.5 -37q0 -26 6.5 -42t21 -22t26.5 -7t36 -1zM146 833q-1 7 3 13q5 7 12 7q124 7 159 100q3 9 -1 16t-14 7q-48 1 -84 5.5t-71.5 18.5t-58 37t-36.5 62t-14 92q0 115 67 178.5t172 63.5q129 0 196 -126
q62 -118 43 -280q-20 -169 -117 -271q-84 -89 -204 -94q-14 0 -17 13z" />
    <glyph glyph-name="colonmonetary" unicode="&#x20a1;" 
d="M53 717q0 74 0.5 109.5t4 107t11 112t23 99.5t37 97t56 76t78.5 63q14 9 14 23v182q0 10 7.5 17.5t17.5 7.5h126q11 0 18.5 -7.5t7.5 -17.5v-126q0 -11 8 -19q7 -7 18 -7h17h7q11 0 18 7q8 8 8 19v126q0 10 7.5 17.5t18.5 7.5h125q11 0 18.5 -7.5t7.5 -17.5v-178
q0 -15 14 -23q179 -94 210 -395q2 -25 -22 -33l-287 -93q-15 -5 -27 4q-12 8 -14 23q-13 188 -85 188q-16 0 -29 -8t-22 -26.5t-15.5 -36.5t-10.5 -49.5t-6.5 -54t-3.5 -61t-1 -60v-61.5v-5v-5v-61.5t1 -60t3.5 -61t6.5 -54t10.5 -49.5t15.5 -36.5t22 -26.5t29 -8
q72 0 85 188q2 15 14 23q12 9 27 4l287 -94q24 -8 22 -33q-31 -300 -210 -395q-14 -8 -14 -22v-177q0 -11 -7.5 -18.5t-18.5 -7.5h-125q-10 0 -18 7.5t-8 18.5v125q0 11 -8 19q-7 7 -18 7h-7h-17q-11 0 -18 -7q-8 -8 -8 -18v-126q0 -11 -8 -18.5t-18 -7.5h-126
q-10 0 -17.5 7.5t-7.5 18.5v182q0 13 -14 22q-44 25 -78.5 63t-56 76t-37 97t-23 99.5t-11 112t-4 107t-0.5 109.5z" />
    <glyph glyph-name="lira" unicode="&#x20a4;" horiz-adv-x="1073" 
d="M135 484q0 11 -7.5 18.5t-17.5 8.5h-39q-11 0 -18.5 7.5t-7.5 18.5v125q0 10 7.5 18t18.5 8h32q13 0 23 10t10 23q0 11 -8 18.5t-18 7.5h-39q-11 0 -18.5 7.5t-7.5 18.5v126q0 10 7.5 17.5t18.5 7.5h39q10 0 18 8t8 18v33q0 214 124 332.5t319 118.5q188 0 313.5 -103
t134.5 -285q2 -25 -22 -32l-294 -95q-15 -5 -27 4q-14 10 -14 25l-2 37v2q0 44 -25 68t-64 24t-64 -24.5t-25 -68.5v-37q0 -10 7.5 -17.5t18.5 -7.5h54q10 0 18 -8t8 -18v-126q0 -10 -8 -18t-18 -8h-47q-14 0 -23.5 -9.5t-9.5 -22.5v-1q0 -11 8 -18.5t18 -7.5h53
q11 0 18.5 -7.5t7.5 -18.5v-125q0 -10 -7.5 -18t-18.5 -8h-53q-10 0 -18 -8t-8 -18v-92q0 -15 11 -24t25 -8q52 5 114.5 0t105.5 -10.5t106 5t128 41.5q15 8 31 -2t16 -27v-271q0 -17 -14 -26q-68 -49 -156.5 -62.5t-176 -3.5t-173 23.5t-173.5 12t-152 -31.5q-16 -8 -32 2
q-15 9 -15 28v446z" />
    <glyph glyph-name="uni20a6" unicode="&#x20a6;" horiz-adv-x="1253" 
d="M605 426q-7 25 -31 25h-4q-13 0 -22.5 -9.5t-9.5 -23.5v-386q0 -13 -9 -22.5t-22 -9.5h-293q-13 0 -22 9.5t-9 22.5v386q0 14 -9.5 23.5t-23.5 9.5h-72q-14 0 -23.5 9.5t-9.5 23.5v112q0 13 9.5 22.5t23.5 9.5h72q14 0 23.5 10t9.5 23v112q0 13 -9.5 23t-23.5 10h-72
q-14 0 -23.5 9.5t-9.5 22.5v113q0 13 9.5 22.5t23.5 9.5h72q14 0 23.5 9.5t9.5 23.5v387q0 13 9 22t22 9h301q25 0 30 -22l103 -404q7 -25 31 -25h4q13 0 22.5 9.5t9.5 23.5v387q0 13 9.5 22t22.5 9h292q13 0 22 -9t9 -22v-387q0 -14 9.5 -23.5t22.5 -9.5h73q13 0 22.5 -9.5
t9.5 -22.5v-113q0 -14 -9.5 -23t-22.5 -9h-73q-13 0 -22.5 -9.5t-9.5 -23.5v-112q0 -14 9.5 -23.5t22.5 -9.5h73q13 0 22.5 -9t9.5 -23v-112q0 -14 -9.5 -23.5t-22.5 -9.5h-73q-13 0 -22.5 -9.5t-9.5 -23.5v-386q0 -13 -9 -22.5t-22 -9.5h-301q-25 0 -30 22z" />
    <glyph glyph-name="won" unicode="&#x20a9;" horiz-adv-x="1683" 
d="M1067 659q1 -13 10.5 -22t22.5 -9h20q13 0 22 9t10 22l7 112q2 14 -8 25q-9 10 -24 10h-34q-15 0 -24 -10t-9 -25zM1082 422l3 -44q2 -23 24 -23q10 0 17 6.5t8 16.5l2 39q1 13 -8 24q0 1 -1 1t-2 1q-13 12 -29 4q-15 -9 -14 -25zM532 659q1 -13 10 -22t22 -9h20
q13 0 22.5 9t10.5 22l7 112q0 15 -9 25t-24 10h-34q-14 0 -23 -10t-9 -25zM804 639q9 -11 24 -11h31q15 0 24 11q10 12 9 24l-7 112q-1 13 -10.5 22t-22.5 9h-18q-13 0 -22 -9t-10 -22l-7 -112q0 -13 9 -24zM550 378q2 -23 24 -23q10 0 17 6.5t8 16.5l2 38q0 14 -9 25l-2 2
q-13 12 -29 4t-14 -25zM870 1013l-3 44q-2 22 -24 22q-23 0 -25 -22l-2 -39q0 -14 9 -24l1 -2q13 -11 29 -5q17 8 15 26zM243 422q-1 13 -10.5 21t-22.5 8h-134q-14 0 -23.5 9.5t-9.5 23.5v112q0 13 9.5 22.5t23.5 9.5h107q15 0 24 11t8 26l-12 112q-2 12 -10.5 20.5
t-21.5 8.5h-95q-14 0 -23.5 9.5t-9.5 22.5v113q0 13 9.5 22.5t23.5 9.5h68q15 0 24 11t8 25l-42 380q-2 14 8 25q9 10 23 10h288q12 0 21 -8.5t10 -20.5l25 -391q1 -13 10.5 -22t22.5 -9h65q13 0 22 9t10 22l25 391q1 12 10 20.5t21 8.5h293q12 0 21.5 -8.5t10.5 -20.5
l24 -391q1 -13 10.5 -22t22.5 -9h65q13 0 22 9t10 22l25 391q1 12 10.5 20.5t21.5 8.5h287q14 0 23 -10q10 -11 8 -25l-42 -380q-1 -14 8 -25t25 -11h67q14 0 23.5 -9.5t9.5 -22.5v-113q0 -13 -9.5 -22.5t-23.5 -9.5h-94q-13 0 -22 -8.5t-11 -20.5l-12 -112q-1 -15 8 -26
t24 -11h107q14 0 23.5 -9.5t9.5 -22.5v-113q0 -13 -9.5 -22.5t-23.5 -9.5h-134q-13 0 -21.5 -8.5t-10.5 -20.5l-44 -394q-2 -12 -10.5 -20t-20.5 -8h-405q-12 0 -21 9t-10 21l-24 390q-1 13 -10 22t-22 9h-61q-13 0 -22.5 -9t-10.5 -22l-24 -390q-1 -12 -9.5 -21t-21.5 -9
h-408q-12 0 -20.5 8t-10.5 20z" />
    <glyph glyph-name="Euro" unicode="&#x20ac;" horiz-adv-x="1071" 
d="M157 428q-1 10 -8 16.5t-17 6.5h-65q-11 0 -18.5 7.5t-7.5 17.5v126q0 10 7.5 18t18.5 8h53q12 0 19 7q8 8 8 19v63v62q0 11 -8 19q-7 7 -19 7h-53q-11 0 -18.5 7.5t-7.5 18.5v126q0 11 7.5 18.5t18.5 7.5h65q10 0 17 6.5t8 16.5q9 73 25 132.5t48.5 116t79 94.5t118 61
t162.5 23q93 0 165.5 -24t119 -64t78.5 -99t47.5 -119.5t23.5 -136.5q2 -25 -21 -33l-287 -94q-16 -5 -28 4q-11 7 -13 24q-13 188 -85 188q-43 0 -64 -62q-4 -11 4 -23q8 -11 21 -11h13q10 0 18 -7.5t8 -18.5v-126q0 -11 -8 -18.5t-18 -7.5h-37q-11 0 -18 -7.5t-7 -17.5
q0 -11 -0.5 -32t-0.5 -31t0.5 -31t0.5 -32t7.5 -18.5t17.5 -7.5h37q10 0 18 -8t8 -18v-125q0 -11 -8 -18.5t-18 -7.5h-13q-13 0 -21 -11q-8 -12 -4 -23q22 -62 64 -62q72 0 85 188q2 16 13 23q12 9 28 4l287 -93q23 -8 21 -33q-8 -76 -23.5 -137t-47.5 -120t-78.5 -98.5
t-119 -64t-165.5 -24.5q-91 0 -162.5 23t-118 61.5t-79 95t-48.5 116t-25 132.5z" />
    <glyph glyph-name="uni2117" unicode="&#x2117;" horiz-adv-x="1513" 
d="M756 178q110 0 209.5 42.5t172 115t115 172t42.5 209.5t-42.5 209.5t-115 172t-172 115t-209.5 42.5q-147 0 -271 -72t-196.5 -196t-72.5 -271t72.5 -271t196.5 -196t271 -72zM704 735q0 -7 5 -12.5t13 -5.5h34q12 0 21.5 3.5t15 11t9 14t4.5 19t1.5 18.5t0 21t-0.5 18
t0.5 18t0 21t-1.5 18.5t-4.5 19t-9 14t-15 11t-21.5 3.5h-34q-8 0 -13 -5.5t-5 -12.5v-174zM498 1115q0 8 5.5 13.5t12.5 5.5h240q68 0 119 -25.5t80.5 -70t43.5 -98.5t14 -118t-14 -118t-43.5 -98.5t-80.5 -69.5t-119 -25h-34q-8 0 -13 -5.5t-5 -12.5v-174q0 -7 -5 -12.5
t-13 -5.5h-170q-8 0 -13 5.5t-5 12.5v796zM39 717q0 146 57 278.5t153 228.5t228.5 153t278.5 57t278.5 -57t228.5 -153t153 -228.5t57 -278.5t-57 -278.5t-153 -228.5t-228.5 -153t-278.5 -57t-278.5 57t-228.5 153t-153 228.5t-57 278.5z" />
    <glyph glyph-name="trademark" unicode="&#x2122;" horiz-adv-x="1413" 
d="M594 1417q0 7 5 12t12 5h301q7 0 12 -4.5t5 -11.5l34 -553q0 -12 13 -12t13 12l34 553q0 7 5 11.5t12 4.5h302q7 0 11.5 -5t4.5 -12v-738q0 -7 -4.5 -12t-11.5 -5h-158q-7 0 -12 5t-5 12v552q0 12 -11 12q-10 0 -12 -10l-70 -557q-2 -14 -17 -14h-162q-15 0 -17 14
l-69 557q-2 10 -13 10t-11 -12v-552q0 -7 -5 -12t-12 -5h-157q-7 0 -12 5t-5 12v738zM178 1226q0 7 -5 12t-12 5h-109q-7 0 -12 5t-5 12v157q0 7 5 12t12 5h444q7 0 12 -5t5 -12v-157q0 -7 -5 -12t-12 -5h-110q-7 0 -12 -5t-5 -12v-547q0 -7 -5 -12t-12 -5h-157q-7 0 -12 5
t-5 12v547z" />
    <glyph glyph-name="N.alt1" unicode="&#xf000;" horiz-adv-x="1097" 
d="M949 31q0 -13 -9.5 -22t-22.5 -9h-301q-24 0 -29 22l-128 503q-6 18 -24 15q-19 -3 -19 -22v-487q0 -13 -9 -22t-22 -9h-292q-13 0 -22.5 9t-9.5 22v1372q0 13 9.5 22t22.5 9h300q25 0 30 -22l128 -503q5 -18 24 -15t19 22v387q0 12 10 22l99 100q9 9 22 9h348
q20 0 28 -18q8 -17 -4 -34l-141 -205q-7 -11 -7 -20v-1126z" />
    <glyph glyph-name="C.alt1" unicode="&#xf001;" horiz-adv-x="921" 
d="M25 717q0 112 2 170v2q11 94 52 98q46 4 72.5 25.5t34 53.5t12.5 72t5 80.5t14 79.5t38.5 69t78.5 48.5t134 18.5q93 0 165.5 -24t119 -63.5t78.5 -99t47.5 -120t23.5 -136.5q2 -25 -21 -33l-287 -94q-14 -4 -27 4q-14 10 -14 23q-13 188 -85 188q-16 0 -29 -8t-22 -26.5
t-15.5 -36.5t-10.5 -49.5t-6.5 -54t-3.5 -61t-1 -60v-61.5v-5v-5v-61.5t1 -60t3.5 -61t6.5 -54t10.5 -49.5t15.5 -36.5t22 -26.5t29 -8q72 0 85 188q0 13 14 24q12 7 27 3l287 -94q23 -8 21 -33q-8 -76 -23.5 -136.5t-47.5 -119.5t-78.5 -99t-119 -64t-165.5 -24
q-72 0 -131.5 15t-103 37.5t-77 63.5t-55.5 76t-37 94.5t-22.5 99.5t-11.5 109.5t-4.5 107t-0.5 108.5v6z" />
    <glyph glyph-name="O.alt1" unicode="&#xf002;" horiz-adv-x="958" 
d="M568 717v5v61.5t-1 60t-3.5 61t-6.5 54t-10.5 49.5t-15.5 36.5t-22 26.5t-29 8q-21 0 -37 -14.5t-25.5 -46t-15.5 -60t-8 -79t-2.5 -79.5t-0.5 -83q0 -5 -0.5 -29.5t0 -43t1 -50t3 -56t6 -54t10.5 -51t16 -40t22.5 -28.5t30.5 -10t30.5 10t22.5 28.5t15.5 40.5t10.5 51
t6.5 54t3 56t0.5 50t-0.5 43t-0.5 29zM36 717q0 9 -0.5 36t-0.5 47.5t0.5 49.5t4.5 50.5t9.5 42t16.5 32t25 12.5q46 4 72.5 25.5t34.5 53.5t12.5 72t5 80.5t14 79.5t38 69t78.5 48.5t134 18.5q72 0 131 -14.5t102 -36.5t77 -62t55.5 -75.5t37 -94t23.5 -100.5t12 -111
t4.5 -110t0.5 -113t-0.5 -113t-4.5 -110t-12 -111t-23.5 -100.5t-37 -94t-55.5 -75.5t-77 -62t-102 -36.5t-131 -14.5q-91 0 -162.5 24t-117.5 58.5t-78.5 97t-49 114t-25 138t-10 139.5t-1.5 146z" />
    <glyph glyph-name="O.alt2" unicode="&#xf003;" horiz-adv-x="958" 
d="M567 717v5v61.5t-1 60t-3.5 61t-6.5 54t-10.5 49.5t-15.5 36.5t-22 26.5t-29 8q-21 0 -37 -14.5t-25.5 -46t-15.5 -60t-8 -79t-2.5 -79.5t-0.5 -83q0 -5 -0.5 -29.5t0 -43t1 -50t3 -56t6 -54t10.5 -51t16 -40t22.5 -28.5t30.5 -10q16 0 29.5 10t22.5 28.5t16 40.5
t10.5 51t6 53.5t3 56t1 50t0 43t-0.5 29.5zM35 717q0 93 1.5 146t10 139.5t25 138t49 114t78.5 97t117.5 58.5t162.5 24q71 0 121.5 -14.5t77.5 -39.5t42 -57t19.5 -68.5t6 -72.5t5.5 -69.5t14 -60.5t35.5 -44.5t66.5 -20.5q14 -1 25 -12.5t16.5 -32t9.5 -42t4.5 -50.5
t0.5 -49.5t-0.5 -47.5t-0.5 -36q0 -92 -1.5 -146t-10 -139.5t-25 -137.5t-49 -114.5t-79 -97t-117.5 -58.5t-162 -24q-72 0 -131 14.5t-102 36.5t-77 62t-55.5 75.5t-37 94t-23.5 100.5t-12 111t-4.5 110t-0.5 113z" />
    <glyph glyph-name="Q.alt1" unicode="&#xf004;" horiz-adv-x="960" 
d="M478 355q17 0 30.5 10t22.5 28.5t16 40t10.5 51t6 54t3 56t1 50t0 43t-0.5 29.5q0 54 -0.5 83t-2.5 79.5t-8 79t-15.5 60t-25.5 46t-37 14.5q-16 0 -29 -8t-22 -26.5t-15.5 -36.5t-10.5 -49.5t-6.5 -54t-3.5 -61t-1 -60v-61.5v-5q0 -5 -0.5 -29t-0.5 -43t0.5 -50t3 -56
t6.5 -54t10.5 -51t15.5 -40.5t22.5 -28.5t30.5 -10zM35 717q0 115 3 174v2q11 92 52 95q46 4 72.5 25.5t34.5 53t12.5 71.5t5 81t14 79.5t38 68.5t78.5 48.5t134 18.5q72 0 131 -14.5t102 -36.5t77 -62t55.5 -75.5t37 -94t23.5 -100.5t12 -111t4.5 -110t0.5 -113
q0 -100 -2 -159.5t-11.5 -144t-32 -149.5t-59.5 -116q-11 -16 -1 -34l91 -158q6 -11 2.5 -23.5t-14.5 -19.5l-152 -88q-15 -9 -43 11l-221 149q-3 2 -8 6.5t-9 7t-9 2.5q-67 2 -123 18.5t-96.5 39.5t-72.5 63t-52.5 75.5t-35 93t-22 99t-11.5 109t-4.5 108t-0.5 110.5z" />
    <glyph glyph-name="Q.alt2" unicode="&#xf005;" horiz-adv-x="958" 
d="M567 717q0 54 -0.5 83t-2.5 79.5t-8 79t-15.5 60t-25.5 46t-37 14.5q-16 0 -29 -8t-22 -26.5t-15.5 -36.5t-10.5 -49.5t-6.5 -54t-3.5 -61t-1 -60v-61.5v-5q0 -5 -0.5 -29t-0.5 -43t0.5 -50t3 -56t6.5 -54t10.5 -51t15.5 -40.5t22.5 -28.5t30.5 -10t30.5 10t22.5 28.5
t16 40t10.5 51t6 54t3 56t1 50t0 43t-0.5 29.5zM35 717q0 72 0.5 113t4.5 110t12 111t23.5 100.5t37 94t55.5 75.5t77 62t102 36.5t131 14.5q47 0 84.5 -6t64 -18.5t46 -25.5t32 -35t20.5 -39.5t12 -45t5.5 -45.5t3.5 -47.5t3 -44.5q0 -3 2 -7q13 -32 19 -74q0 -4 4 -10
q27 -42 93 -48q14 -1 25 -12.5t16.5 -32t9.5 -42t4.5 -51t0.5 -50t-0.5 -47.5t-0.5 -36q0 -100 -2 -159.5t-11.5 -143.5t-32 -149.5t-59.5 -116.5q-12 -16 -2 -34l91 -158q7 -11 3.5 -23.5t-14.5 -19.5l-153 -88q-14 -9 -42 11l-221 149q-9 6 -16 11t-13 5q-85 3 -151.5 29
t-110 61.5t-74 98t-45.5 113.5t-23 135t-9.5 136.5t-1.5 142.5z" />
    <glyph glyph-name="La.dlig" unicode="&#xf006;" horiz-adv-x="1476" 
d="M973 1079q-43 0 -67 -41.5t-24 -90.5t24 -90.5t67 -41.5t67 41.5t24 90.5t-24 90.5t-67 41.5zM1093 461q-13 0 -22 8.5t-9 21.5v94q0 11 -12 14t-17 -7q-75 -132 -212 -132q-72 0 -130.5 42t-94.5 110.5t-55.5 156t-19.5 178.5t19.5 178.5t55.5 156t94.5 110.5t130.5 42
q137 0 212 -132q5 -10 17 -7t12 14v94q0 13 9 22t22 9h292q13 0 22.5 -9t9.5 -22v-911q0 -13 -9.5 -22t-22.5 -9h-292zM1416 32q0 -13 -9 -22.5t-22 -9.5h-1292q-13 0 -22.5 9t-9.5 22v1371q0 13 9.5 22.5t22.5 9.5h292q13 0 22 -9.5t9 -22.5v-1016q0 -13 9.5 -22t22.5 -9
h937q13 0 22 -9t9 -22v-292z" />
    <glyph glyph-name="Le.dlig" unicode="&#xf007;" horiz-adv-x="1441" 
d="M938 1007h54q21 0 29 19q8 20 -7 35q-18 18 -49 18t-49 -18q-15 -15 -7 -35q8 -19 29 -19zM506 919q0 235 124.5 375t334.5 140q406 0 410 -512q0 -13 -9 -22q-10 -10 -22 -10h-449q-14 0 -23 -10q-9 -11 -8 -24q4 -46 27.5 -66t69.5 -20q19 0 29 2t21.5 14t19.5 37
q5 14 15 19q4 2 24 2l284 -10q12 0 18 -12t3 -25q-18 -72 -54.5 -131t-79.5 -96t-94 -62t-97 -35.5t-89 -10.5q-31 0 -57.5 1.5t-76 11t-88.5 26t-85 51t-76.5 81t-51 120.5t-20.5 166zM61 1402q0 13 9.5 22.5t22.5 9.5h292q13 0 22 -9.5t9 -22.5v-1016q0 -13 9 -22t22 -9
h938q13 0 22 -9t9 -22v-293q0 -13 -9 -22t-22 -9h-1292q-13 0 -22.5 9t-9.5 22v1371z" />
    <glyph glyph-name="Lo.dlig" unicode="&#xf008;" horiz-adv-x="1443" 
d="M969 815q32 0 53 27t25.5 66t-1.5 78t-28 66t-53 27q-32 0 -55 -27t-28.5 -66t-1 -78t28.5 -66t60 -27zM504 919q0 121 38 221t101.5 163.5t144 98t167.5 34.5q71 0 133.5 -17.5t118.5 -57.5t96.5 -99t64 -147t23.5 -196q0 -217 -121 -339t-301 -122q-72 0 -136.5 14
t-125.5 48t-105.5 85.5t-71 132t-26.5 181.5zM61 1402q0 13 9 22.5t22 9.5h293q13 0 22 -9.5t9 -22.5v-1016q0 -13 9 -22t22 -9h938q13 0 22 -9t9 -22v-293q0 -13 -9 -22t-22 -9h-1292q-13 0 -22.5 9t-9.5 22v1371z" />
    <glyph glyph-name="RS.dlig" unicode="&#xf009;" horiz-adv-x="1974" 
d="M505 717q19 0 33.5 5.5t24 12.5t16 21.5t9.5 25t5 29.5t2 29t-0.5 31t-0.5 27t0.5 27t0.5 31t-2 29t-5 29.5t-9.5 25t-16 21.5t-24 12.5t-33.5 5.5h-57q-13 0 -22.5 -9t-9.5 -22v-300q0 -13 9.5 -22t22.5 -9h57zM479 340q-13 22 -30 22h-1q-13 0 -22.5 -9t-9.5 -22v-299
q0 -13 -9 -22.5t-22 -9.5h-292q-13 0 -22.5 9.5t-9.5 22.5v1371q0 13 9.5 22t22.5 9h412q117 0 205 -43.5t139 -119.5t75.5 -169.5t24.5 -203.5q0 -271 -135 -415q-6 -6 -8 -16q-1 -10 5 -20q31 -40 118.5 -63.5t192 -26t204 7.5t166 35.5t66.5 58.5q0 40 -27.5 68t-71.5 45
t-97 34.5t-106.5 44t-97.5 65t-71.5 107t-27.5 160.5q0 214 124.5 332.5t319.5 118.5q188 0 313.5 -103t134.5 -285q2 -25 -22 -32l-294 -95q-16 -5 -28 4q-13 8 -13 24l-2 38v2q0 44 -25 68t-64 24t-64 -24.5t-25 -68.5q0 -40 29.5 -68.5t77 -47t104.5 -36.5t114.5 -46
t105 -67.5t77 -108.5t29.5 -161q0 -89 -51.5 -167t-137.5 -133t-200.5 -92t-238 -50.5t-251.5 -0.5t-240.5 51t-206 110.5t-146.5 170.5z" />
    </font>
</defs>
</svg>
